<svg width="480" height="92" viewBox="0 0 480 92" fill="none" xmlns="http://www.w3.org/2000/svg">
<path d="M192.679 60.9777C191.274 60.9777 189.977 60.7364 188.788 60.2495C187.598 59.7625 186.504 59.1463 185.504 58.4051C184.504 57.6596 183.604 56.8666 182.806 56.0134C182.009 55.1601 181.285 54.3715 180.639 53.6433L179.626 52.5099C179.411 52.2384 179.174 51.9712 178.915 51.6997C178.657 51.4283 178.394 51.1481 178.126 50.8465C178.803 49.6054 179.307 48.2307 179.648 46.7311C179.984 45.2314 180.156 43.7361 180.156 42.2537C180.156 40.9824 180.035 39.7413 179.79 38.5261C179.549 37.3109 179.204 36.1689 178.756 35.1002C178.312 34.0315 177.782 33.0619 177.174 32.1828C176.566 31.3037 175.899 30.5797 175.166 30.0152C174.545 29.5282 173.921 29.1361 173.3 28.8387C172.679 28.5414 172.003 28.313 171.275 28.1492C170.546 27.9855 169.749 27.8777 168.883 27.826C168.017 27.77 167.06 27.7441 166.004 27.7441H164.22C163.164 27.7441 162.208 27.77 161.342 27.826C160.475 27.882 159.678 27.9898 158.95 28.1492C158.222 28.313 157.536 28.5414 156.903 28.8387C156.27 29.1361 155.653 29.5282 155.059 30.0152C154.33 30.584 153.658 31.308 153.05 32.1828C152.443 33.0619 151.917 34.0358 151.469 35.1002C151.025 36.1689 150.68 37.3109 150.435 38.5261C150.193 39.7413 150.068 40.9867 150.068 42.2537C150.068 43.5249 150.189 44.766 150.435 45.9813C150.676 47.1965 151.021 48.3385 151.469 49.4072C151.913 50.4759 152.443 51.4498 153.05 52.3246C153.658 53.2037 154.326 53.9277 155.059 54.4922C155.653 54.9791 156.27 55.3713 156.903 55.6686C157.536 55.966 158.222 56.1944 158.95 56.3581C159.678 56.5219 160.475 56.6296 161.342 56.6813C162.208 56.7374 163.164 56.7632 164.22 56.7632H165.884C167.612 56.7632 169.081 56.69 170.283 56.5391C171.486 56.3926 172.589 56.0479 173.589 55.5049C174.291 56.3969 175.114 57.3708 176.062 58.4223C177.006 59.4781 178.023 60.4563 179.105 61.3613C180.186 62.2662 181.307 63.0247 182.47 63.6323C183.634 64.2399 184.78 64.5459 185.918 64.5459C187.646 64.5459 189.081 64.3476 190.214 63.9598C191.347 63.5677 192.252 63.141 192.929 62.6842C193.713 62.1456 194.321 61.5078 194.752 60.7795C194.373 60.8312 194.015 60.8829 193.679 60.9217C193.334 60.9562 193.002 60.9777 192.679 60.9777ZM168.861 53.4967C168.525 54.5913 168.043 55.3799 167.422 55.8669C167.125 56.0823 166.888 56.2332 166.711 56.3107C166.534 56.3926 166.297 56.4314 166 56.4314H164.216C163.919 56.4314 163.682 56.3926 163.505 56.3107C163.328 56.2289 163.091 56.0823 162.794 55.8669C162.173 55.4058 161.699 54.6516 161.376 53.5959C161.053 52.5401 160.807 51.3938 160.648 50.1484C160.648 50.0407 160.682 49.7993 160.751 49.4201C160.82 49.0409 160.975 48.6444 161.217 48.2221C161.458 47.8041 161.811 47.4249 162.272 47.0888C162.734 46.7526 163.367 46.5802 164.177 46.5802C165.121 46.5802 165.871 46.6837 166.427 46.8862C166.978 47.0888 167.439 47.3473 167.806 47.6576C168.172 47.9679 168.474 48.3212 168.719 48.7134C168.96 49.1055 169.245 49.502 169.572 49.9071C169.435 51.2085 169.202 52.4022 168.861 53.4967ZM175.692 48.3902C174.856 47.5929 173.989 46.8647 173.097 46.201C172.205 45.5374 171.305 44.9901 170.4 44.5592C169.495 44.1282 168.637 43.9085 167.827 43.9085C166.694 43.9343 165.724 44.0895 164.927 44.3739C164.13 44.6583 163.475 44.9901 162.962 45.365C162.367 45.796 161.867 46.27 161.462 46.7828C161.001 47.3516 160.691 47.998 160.531 48.7306C160.45 47.7869 160.402 46.8474 160.389 45.9123C160.376 44.9815 160.368 44.1369 160.368 43.3784V41.1074C160.368 40.1637 160.381 39.0691 160.406 37.8237C160.432 36.5826 160.527 35.3587 160.691 34.1564C160.855 32.9541 161.096 31.8466 161.419 30.8339C161.742 29.8212 162.203 29.0843 162.798 28.6232C163.095 28.4078 163.333 28.257 163.509 28.1794C163.686 28.0975 163.923 28.0587 164.22 28.0587H166.004C166.302 28.0587 166.539 28.0975 166.715 28.1794C166.892 28.2613 167.129 28.4078 167.426 28.6232C168.021 29.0843 168.482 29.8212 168.805 30.8339C169.129 31.8466 169.374 32.9541 169.534 34.1564C169.697 35.3587 169.792 36.5826 169.818 37.8237C169.844 39.0691 169.857 40.1637 169.857 41.1074V42.4045C170.882 42.7837 171.787 43.2578 172.572 43.8223C173.356 44.3911 174.071 45.0375 174.722 45.7701C175.373 46.4984 175.959 47.2827 176.485 48.123C177.01 48.959 177.519 49.8252 178.006 50.7172C177.299 49.9631 176.532 49.1874 175.692 48.3902Z" fill="white"/>
<path d="M203.987 34.625C203.418 34.7888 202.711 34.9223 201.858 35.0301C201.005 35.1378 200.19 35.2197 199.406 35.2714C198.488 35.3533 197.527 35.4222 196.527 35.4739H193.485V35.7971H196.527V49.6603C196.501 50.0395 196.454 50.4446 196.385 50.8755C196.316 51.3064 196.23 51.7331 196.122 52.1511C196.014 52.5691 195.881 52.9612 195.717 53.3275C195.553 53.6938 195.381 53.9825 195.191 54.198C195.002 54.4135 194.799 54.5988 194.584 54.7453C194.368 54.8961 194.14 54.9694 193.894 54.9694C193.653 54.9694 193.386 54.9349 193.106 54.8703C192.821 54.8013 192.597 54.6763 192.438 54.4867C192.14 54.0817 191.929 53.6076 191.808 53.069C191.688 52.5303 191.627 51.9873 191.627 51.4486V41.5156C191.627 40.6796 191.52 39.8953 191.304 39.1627C191.089 38.4345 190.718 37.7967 190.188 37.258C189.662 36.7193 188.96 36.2841 188.081 35.9609C187.202 35.6377 186.103 35.4739 184.776 35.4739H181.328V35.7971C182.194 35.7971 182.793 36.2755 183.134 37.2365C183.47 38.1974 183.642 39.4471 183.642 40.9856V51.565C183.642 51.8882 183.69 52.2071 183.784 52.5174C183.879 52.8276 183.996 53.1336 184.129 53.4309C184.508 54.2411 185.047 54.8789 185.75 55.3357C186.452 55.7968 187.228 56.0941 188.081 56.2277C188.934 56.3613 189.761 56.4302 190.576 56.4302C191.386 56.4302 192.149 56.3096 192.869 56.064C193.584 55.8226 194.269 55.4305 194.915 54.8875C195.295 54.5902 195.605 54.2928 195.846 53.9955C196.088 53.6981 196.32 53.3318 196.536 52.9009V56.4259H207.033V56.1027H203.991V34.625H203.987Z" fill="white"/>
<path d="M211.469 32.5388C211.887 32.8232 212.374 33.0473 212.93 33.2068C213.481 33.3705 214.072 33.4481 214.692 33.4481C215.313 33.4481 215.903 33.3662 216.455 33.2068C217.006 33.043 217.493 32.8232 217.916 32.5388C218.334 32.2544 218.665 31.9226 218.907 31.5477C219.148 31.1685 219.273 30.7634 219.273 30.3324C219.273 29.9015 219.152 29.4964 218.907 29.1172C218.665 28.738 218.334 28.4062 217.916 28.1261C217.498 27.8417 217.011 27.6176 216.455 27.4581C215.899 27.2944 215.313 27.2168 214.692 27.2168C214.072 27.2168 213.481 27.2987 212.93 27.4581C212.374 27.6219 211.891 27.8417 211.469 28.1261C211.051 28.4105 210.719 28.7423 210.478 29.1172C210.236 29.4964 210.111 29.9015 210.111 30.3324C210.111 30.7634 210.232 31.1685 210.478 31.5477C210.719 31.9226 211.046 32.2544 211.469 32.5388Z" fill="white"/>
<path d="M218.704 34.625C218.136 34.7888 217.381 34.9223 216.433 35.0301C215.485 35.1378 214.481 35.2283 213.413 35.2929C212.344 35.3619 211.284 35.4093 210.232 35.4352C209.176 35.461 208.271 35.4739 207.517 35.4739V35.7971H210.599V56.107H207.517V56.4302H221.747V56.107H218.704V34.625Z" fill="white"/>
<path d="M240.716 53.5787C239.609 54.6991 238.269 55.2593 236.704 55.2593H236.26C235.476 55.2076 234.812 54.9964 234.274 54.6301C233.731 54.2639 233.274 53.82 232.895 53.2943C232.516 52.7685 232.218 52.2083 232.003 51.6136C231.787 51.0189 231.619 50.4587 231.494 49.933C231.374 49.4072 231.296 48.9591 231.27 48.5971C231.244 48.2308 231.231 48.0239 231.231 47.9679C231.231 47.8343 231.223 47.5241 231.21 47.0371C231.197 46.5501 231.188 46.1451 231.188 45.8219C231.188 43.9301 231.249 42.3141 231.369 40.9782C231.49 39.6423 231.705 38.5477 232.02 37.6945C232.33 36.8412 232.748 36.2164 233.278 35.8113C233.804 35.4062 234.476 35.2037 235.286 35.2037C235.476 35.2037 235.713 35.2123 235.997 35.2252C236.282 35.2381 236.558 35.2726 236.829 35.3286C237.101 35.3846 237.329 35.4708 237.519 35.5915C237.708 35.7122 237.803 35.8975 237.803 36.1388C237.803 36.3542 237.682 36.5999 237.437 36.8671C237.195 37.1385 236.976 37.354 236.786 37.5178L236.665 37.6815C236.286 38.0349 235.997 38.4443 235.795 38.9183C235.592 39.3923 235.489 39.8707 235.489 40.3576C235.489 40.8704 235.592 41.3488 235.795 41.7969C235.997 42.2408 236.269 42.633 236.605 42.9734C236.941 43.3095 237.342 43.5767 237.799 43.762C238.26 43.9516 238.73 44.0464 239.217 44.0464C239.704 44.0464 240.16 43.9516 240.596 43.762C241.026 43.5724 241.419 43.3095 241.772 42.9734C242.121 42.6373 242.401 42.2451 242.604 41.7969C242.806 41.3531 242.91 40.8704 242.91 40.3576C242.91 38.5477 242.078 37.1816 240.415 36.2638C238.751 35.3459 236.476 34.8848 233.584 34.8848C233.123 34.8848 232.546 34.9451 231.839 35.0658C231.137 35.1864 230.391 35.3976 229.611 35.6949C228.827 35.9923 228.03 36.406 227.219 36.9317C226.409 37.4574 225.681 38.1254 225.03 38.9399C224.38 39.75 223.854 40.7239 223.449 41.8573C223.044 42.9906 222.841 44.3179 222.841 45.8305C222.841 47.481 223.065 48.8987 223.509 50.0881C223.953 51.2775 224.535 52.2773 225.254 53.0874C225.97 53.8976 226.78 54.5483 227.685 55.0352C228.59 55.5222 229.503 55.8928 230.421 56.1513C231.339 56.4099 232.227 56.578 233.076 56.6598C233.929 56.7417 234.662 56.7805 235.286 56.7805C236.42 56.7805 237.514 56.565 238.57 56.1298C239.626 55.6989 240.518 55.0482 241.246 54.182L241.815 53.4106C242.246 52.8159 242.586 52.1609 242.828 51.4455C243.069 50.7302 243.259 50.0192 243.397 49.3167L243.073 49.278C242.608 51.0189 241.824 52.4582 240.716 53.5787Z" fill="white"/>
<path d="M269.92 54.6517C269.554 54.2466 269.131 53.7208 268.644 53.0701C267.511 51.5317 266.619 50.2992 265.968 49.3813C265.318 48.4634 264.753 47.6188 264.266 46.8474C263.779 46.0761 263.266 45.2444 262.728 44.3566C262.185 43.4646 261.456 42.2752 260.539 40.7885L262.848 38.72C263.038 38.5563 263.322 38.315 263.702 37.9918C264.081 37.6686 264.49 37.341 264.938 37.0178C265.382 36.6946 265.865 36.4102 266.378 36.1646C266.89 35.9233 267.39 35.7983 267.877 35.7983H268.972V35.4751H260.418V35.7983H260.987C261.043 35.7983 261.168 35.8112 261.37 35.8371C261.573 35.8629 261.788 35.9233 262.021 36.0181C262.249 36.1129 262.452 36.2766 262.629 36.505C262.805 36.7334 262.891 37.0523 262.891 37.4574C262.891 37.7547 262.844 38.0047 262.749 38.2072C262.654 38.4098 262.581 38.539 262.525 38.5907L255.027 44.9556V27.2012C254.484 27.3649 253.79 27.4985 252.941 27.6063C252.088 27.714 251.273 27.7959 250.489 27.8476C249.571 27.9294 248.61 27.9984 247.611 28.0501H244.568V28.3733H247.611V56.0996H244.568V56.4228H258.108V56.0996H255.066V45.4383L255.186 45.2745C255.889 46.2226 256.509 47.1275 257.052 47.9894C257.591 48.8556 258.091 49.6657 258.552 50.4199C259.013 51.1783 259.457 51.8721 259.888 52.5056C260.319 53.1391 260.78 53.6993 261.267 54.1862C261.805 54.7292 262.396 55.1515 263.029 55.4618C263.663 55.7721 264.288 55.9962 264.895 56.1298C265.503 56.2633 266.072 56.3452 266.597 56.3711C267.123 56.3969 267.55 56.4099 267.873 56.4099H271.682V56.1254C271.441 56.0177 271.17 55.8281 270.872 55.5566C270.605 55.367 270.286 55.0567 269.92 54.6517Z" fill="white"/>
<path d="M290.289 53.5787C289.182 54.6991 287.842 55.2593 286.277 55.2593H285.834C285.049 55.2076 284.386 54.9964 283.847 54.6301C283.304 54.2639 282.847 53.82 282.468 53.2943C282.089 52.7685 281.791 52.2083 281.576 51.6136C281.36 51.0189 281.192 50.4587 281.067 49.933C280.947 49.4072 280.869 48.9591 280.843 48.5971C280.818 48.2308 280.805 48.0239 280.805 47.9679C280.805 47.8343 280.796 47.5241 280.783 47.0371C280.77 46.5501 280.761 46.1451 280.761 45.8219C280.761 43.9301 280.822 42.3141 280.942 40.9782C281.063 39.6423 281.279 38.5477 281.593 37.6945C281.903 36.8412 282.321 36.2164 282.852 35.8113C283.377 35.4062 284.05 35.2037 284.86 35.2037C285.049 35.2037 285.286 35.2123 285.571 35.2252C285.855 35.2381 286.131 35.2726 286.402 35.3286C286.674 35.3846 286.902 35.4708 287.092 35.5915C287.282 35.7122 287.376 35.8975 287.376 36.1388C287.376 36.3542 287.256 36.5999 287.01 36.8671C286.769 37.1385 286.549 37.354 286.359 37.5178L286.239 37.6815C285.859 38.0349 285.571 38.4443 285.368 38.9183C285.166 39.3923 285.062 39.8707 285.062 40.3576C285.062 40.8704 285.166 41.3488 285.368 41.7969C285.571 42.2408 285.842 42.633 286.178 42.9734C286.514 43.3095 286.915 43.5767 287.372 43.762C287.833 43.9516 288.303 44.0464 288.79 44.0464C289.277 44.0464 289.734 43.9516 290.169 43.762C290.6 43.5724 290.992 43.3095 291.345 42.9734C291.694 42.6373 291.974 42.2451 292.177 41.7969C292.379 41.3531 292.483 40.8704 292.483 40.3576C292.483 38.5477 291.651 37.1816 289.988 36.2638C288.324 35.3459 286.049 34.8848 283.157 34.8848C282.696 34.8848 282.119 34.9451 281.412 35.0658C280.71 35.1864 279.964 35.3976 279.184 35.6949C278.4 35.9923 277.603 36.406 276.793 36.9317C275.982 37.4574 275.254 38.1254 274.603 38.9399C273.953 39.75 273.427 40.7239 273.022 41.8573C272.617 42.9906 272.414 44.3179 272.414 45.8305C272.414 47.481 272.638 48.8987 273.082 50.0881C273.526 51.2775 274.108 52.2773 274.828 53.0874C275.543 53.8976 276.353 54.5483 277.258 55.0352C278.163 55.5222 279.077 55.8928 279.994 56.1513C280.912 56.4099 281.8 56.578 282.649 56.6598C283.502 56.7417 284.235 56.7805 284.86 56.7805C285.993 56.7805 287.088 56.565 288.143 56.1298C289.199 55.6989 290.091 55.0482 290.819 54.182L291.388 53.4106C291.819 52.8159 292.16 52.1609 292.401 51.4455C292.642 50.7302 292.832 50.0192 292.97 49.3167L292.647 49.278C292.181 51.0189 291.397 52.4582 290.289 53.5787Z" fill="white"/>
<path d="M311.449 36.6935C310.988 36.3961 310.501 36.2022 309.988 36.1074C309.476 36.0126 309.04 35.9652 308.691 35.9652C308.23 35.9652 307.778 36.06 307.334 36.2496C306.89 36.4392 306.369 36.8184 305.774 37.383L305.61 37.5036C305.395 37.745 305.218 38.0035 305.084 38.275C304.951 38.5465 304.843 38.818 304.761 39.0852V34.625C304.192 34.7888 303.451 34.9223 302.533 35.0301C301.615 35.1378 300.629 35.2283 299.573 35.2929C298.517 35.3619 297.47 35.4093 296.431 35.4352C295.393 35.461 294.492 35.4739 293.734 35.4739V35.7971H296.815V56.107H293.734V56.4302H307.799V56.107H304.757V44.3124C304.757 42.8515 304.791 41.5889 304.86 40.5202C304.929 39.4515 305.11 38.7146 305.408 38.3095L305.774 37.7837C306.097 37.3226 306.532 37.0942 307.071 37.0942C307.45 37.0942 307.64 37.4605 307.64 38.1888C307.64 38.3224 307.584 38.5077 307.476 38.7361C307.368 38.9645 307.248 39.2274 307.11 39.5247C306.976 39.8221 306.86 40.1539 306.765 40.5159C306.67 40.8822 306.623 41.2528 306.623 41.632C306.623 42.7136 306.804 43.5367 307.17 44.1055C307.536 44.6744 308.191 44.9588 309.135 44.9588C309.54 44.9588 309.98 44.864 310.454 44.6744C310.928 44.4848 311.359 44.196 311.751 43.8039C312.143 43.4117 312.466 42.9205 312.725 42.3258C312.983 41.7311 313.108 41.0287 313.108 40.2185C313.108 39.3006 312.945 38.5551 312.621 37.9906C312.303 37.4218 311.91 36.9908 311.449 36.6935Z" fill="white"/>
<path d="M333.827 41.1115C333.827 39.8705 333.556 38.8362 333.017 38.0088C332.474 37.1857 331.789 36.5436 330.948 36.0825C330.112 35.6214 329.177 35.2982 328.152 35.1086C327.126 34.919 326.109 34.8242 325.114 34.8242C324.247 34.8242 323.269 34.8845 322.175 35.0052C321.08 35.1259 320.046 35.3758 319.072 35.755C318.098 36.1343 317.279 36.66 316.62 37.3366C315.956 38.0131 315.624 38.9052 315.624 40.0127C315.624 40.5255 315.741 40.9995 315.969 41.4304C316.198 41.8614 316.495 42.2406 316.861 42.5638C317.228 42.887 317.633 43.1369 318.076 43.3136C318.525 43.4903 318.977 43.5765 319.434 43.5765C320.192 43.5765 320.86 43.3352 321.442 42.8482C322.024 42.3612 322.313 41.6847 322.313 40.8228C322.313 40.31 322.157 39.892 321.847 39.5645C321.537 39.2413 321.184 38.9569 320.791 38.7112C320.399 38.4699 320.046 38.2243 319.736 37.983C319.425 37.7416 319.27 37.4141 319.27 37.0091C319.27 36.7117 319.369 36.4488 319.572 36.2204C319.774 35.992 319.998 35.824 320.24 35.7119C320.537 35.5784 320.856 35.4879 321.192 35.4491C321.528 35.4103 321.86 35.3887 322.183 35.3887C323.101 35.3887 323.838 35.5654 324.394 35.9145C324.946 36.2678 325.372 36.7246 325.67 37.2935C325.967 37.8623 326.156 38.4958 326.238 39.1982C326.32 39.9006 326.359 40.603 326.359 41.3055V42.3182C325.333 42.8611 324.243 43.4127 323.097 43.9816C321.946 44.5504 320.86 45.1322 319.835 45.7268C319.374 45.9682 318.908 46.2483 318.434 46.5585C317.96 46.8688 317.508 47.1877 317.077 47.5109C316.646 47.8341 316.254 48.1659 315.9 48.5021C315.547 48.8382 315.293 49.1441 315.129 49.4156C314.913 49.769 314.737 50.1439 314.603 50.549C314.47 50.9541 314.401 51.3721 314.401 51.8073C314.401 52.5658 314.53 53.238 314.784 53.8327C315.043 54.4274 315.383 54.9273 315.818 55.3324C316.249 55.7374 316.736 56.0477 317.279 56.2632C317.818 56.4786 318.374 56.5864 318.943 56.5864H319.145C320.335 56.5864 321.537 56.3106 322.752 55.7547C323.967 55.2031 325.075 54.6386 326.075 54.074L326.359 53.9103V56.4226H336.818V56.0994H333.819V41.1115H333.827ZM326.368 53.5181C326.152 53.6517 325.907 53.7896 325.639 53.9232C325.368 54.0568 325.127 54.1818 324.911 54.2895C324.747 54.3714 324.575 54.4102 324.385 54.4102C323.898 54.4102 323.455 54.1731 323.049 53.6991C322.644 53.2251 322.442 52.7338 322.442 52.221V49.7087C322.442 49.0062 322.537 48.2952 322.726 47.5799C322.916 46.8645 323.179 46.1966 323.515 45.5717C323.851 44.9512 324.265 44.3909 324.752 43.8911C325.239 43.3912 325.777 43.0077 326.372 42.7362V53.5181H326.368Z" fill="white"/>
<path d="M361.393 35.8037V35.4805H354.218V35.8037H355.028C355.269 35.8037 355.549 35.8381 355.859 35.9071C356.17 35.976 356.407 36.157 356.57 36.4544C356.622 36.5621 356.691 36.6828 356.773 36.8207C356.855 36.9543 356.894 37.174 356.894 37.4714C356.894 37.6869 356.825 38.0919 356.691 38.6866L353.244 52.4679L347.973 40.0225C347.542 39.1305 347.055 38.3936 346.512 37.8118C345.969 37.2301 345.302 36.7647 344.504 36.4156C343.707 36.0665 342.768 35.8209 341.686 35.6873C340.604 35.5537 339.294 35.4848 337.756 35.4848H336.498V35.808H336.782C337.079 35.808 337.45 36.1053 337.898 36.7C338.342 37.2947 338.829 38.079 339.359 39.0529C339.885 40.0268 340.441 41.1257 341.022 42.3582C341.604 43.5863 342.164 44.849 342.703 46.1504C344 49.1755 345.366 52.6101 346.797 56.4454H352.714L357.092 38.609C357.2 38.2858 357.363 37.898 357.579 37.4541C357.794 37.0103 358.13 36.6354 358.592 36.338C358.889 36.1484 359.208 36.0148 359.544 35.933C359.88 35.8511 360.32 35.8123 360.863 35.8123H361.393V35.8037Z" fill="white"/>
<path d="M375.416 45.7737C376.175 45.7737 376.985 45.7479 377.847 45.6918C378.713 45.6401 379.514 45.4893 380.26 45.248C381.001 45.0067 381.626 44.6404 382.126 44.1534C382.626 43.6665 382.876 42.9899 382.876 42.128C382.876 40.6672 382.557 39.4735 381.923 38.5383C381.29 37.6075 380.475 36.8706 379.493 36.3276C378.506 35.789 377.407 35.4098 376.187 35.1943C374.972 34.9788 373.796 34.8711 372.662 34.8711C372.119 34.8711 371.452 34.9099 370.654 34.9918C369.857 35.0736 369.004 35.2417 368.099 35.5003C367.194 35.7588 366.293 36.1294 365.401 36.6164C364.509 37.1033 363.699 37.7497 362.971 38.5642C362.242 39.3744 361.652 40.3741 361.208 41.5635C360.764 42.7529 360.54 44.1706 360.54 45.8211C360.54 47.9284 360.937 49.7254 361.734 51.2121C362.531 52.6988 363.496 53.7934 364.634 54.4958C365.5 55.0646 366.254 55.4956 366.905 55.7929C367.556 56.0903 368.168 56.3144 368.75 56.4609C369.331 56.6074 369.904 56.6979 370.473 56.7237C371.042 56.7496 371.689 56.7625 372.421 56.7625C374.016 56.7625 375.351 56.5729 376.433 56.1937C377.515 55.8145 378.42 55.2887 379.148 54.6122C379.876 53.9356 380.467 53.1384 380.911 52.2205C381.354 51.3026 381.768 50.3028 382.147 49.2212L381.742 49.1824C381.445 49.9926 381.1 50.7682 380.708 51.5138C380.316 52.2593 379.842 52.91 379.29 53.4788C378.734 54.0476 378.088 54.5001 377.342 54.8363C376.597 55.1724 375.739 55.3448 374.77 55.3448C373.417 55.3448 372.356 55.0733 371.589 54.5346C370.818 53.9959 370.232 53.2978 369.827 52.4489C369.422 51.5956 369.163 50.6303 369.056 49.5487C368.948 48.4671 368.892 47.3983 368.892 46.3469V45.778H375.416V45.7737ZM368.892 43.2614C368.892 42.4254 368.918 41.5376 368.974 40.6068C369.025 39.676 369.155 38.8184 369.357 38.0341C369.56 37.2498 369.848 36.6034 370.228 36.0863C370.607 35.5735 371.133 35.302 371.809 35.2762H371.973C372.352 35.2762 372.723 35.371 373.089 35.5606C373.455 35.7502 373.783 36.1036 374.08 36.6164C374.378 37.1292 374.615 37.8445 374.791 38.7667C374.968 39.6846 375.054 40.874 375.054 42.3349C375.054 42.4167 375.046 42.559 375.033 42.7615C375.02 42.964 374.994 43.1924 374.951 43.451C374.912 43.7095 374.843 43.9638 374.748 44.2224C374.653 44.4809 374.524 44.6878 374.365 44.8515C374.067 45.123 373.71 45.2825 373.292 45.3385C372.874 45.3945 372.593 45.4204 372.46 45.4204H368.892V43.2614Z" fill="white"/>
<path d="M414.618 53.5787C413.511 54.6991 412.171 55.2593 410.606 55.2593H410.163C409.378 55.2076 408.715 54.9964 408.176 54.6301C407.633 54.2639 407.176 53.82 406.797 53.2943C406.418 52.7685 406.12 52.2083 405.905 51.6136C405.689 51.0189 405.521 50.4587 405.396 49.933C405.276 49.4072 405.198 48.9591 405.172 48.5971C405.146 48.2308 405.134 48.0239 405.134 47.9679C405.134 47.8343 405.125 47.5241 405.112 47.0371C405.099 46.5501 405.09 46.1451 405.09 45.8219C405.09 43.9301 405.151 42.3141 405.271 40.9782C405.392 39.6423 405.608 38.5477 405.922 37.6945C406.232 36.8412 406.65 36.2164 407.18 35.8113C407.706 35.4062 408.378 35.2037 409.189 35.2037C409.378 35.2037 409.615 35.2123 409.9 35.2252C410.184 35.2381 410.46 35.2726 410.731 35.3286C411.003 35.3846 411.231 35.4708 411.421 35.5915C411.61 35.7122 411.705 35.8975 411.705 36.1388C411.705 36.3542 411.585 36.5999 411.339 36.8671C411.098 37.1385 410.878 37.354 410.688 37.5178L410.568 37.6815C410.188 38.0349 409.9 38.4443 409.697 38.9183C409.495 39.3923 409.391 39.8707 409.391 40.3576C409.391 40.8704 409.49 41.3488 409.697 41.7969C409.9 42.2408 410.171 42.633 410.507 42.9734C410.843 43.3095 411.244 43.5767 411.705 43.762C412.166 43.9516 412.636 44.0464 413.123 44.0464C413.61 44.0464 414.067 43.9516 414.502 43.762C414.933 43.5724 415.325 43.3095 415.678 42.9734C416.028 42.6373 416.308 42.2451 416.51 41.7969C416.713 41.3531 416.816 40.8704 416.816 40.3576C416.816 38.5477 415.984 37.1816 414.321 36.2638C412.658 35.3459 410.382 34.8848 407.491 34.8848C407.03 34.8848 406.452 34.9451 405.745 35.0658C405.043 35.1864 404.298 35.3976 403.518 35.6949C402.733 35.9923 401.936 36.406 401.126 36.9317C400.316 37.4574 399.587 38.1254 398.937 38.9399C398.286 39.75 397.76 40.7239 397.355 41.8573C396.95 42.9906 396.748 44.3179 396.748 45.8305C396.748 47.481 396.972 48.8987 397.416 50.0881C397.859 51.2775 398.441 52.2773 399.161 53.0874C399.876 53.8976 400.686 54.5483 401.591 55.0352C402.496 55.5222 403.41 55.8928 404.328 56.1513C405.246 56.4099 406.133 56.578 406.982 56.6598C407.835 56.7417 408.568 56.7805 409.193 56.7805C410.326 56.7805 411.421 56.565 412.477 56.1298C413.532 55.6989 414.424 55.0482 415.153 54.182L415.722 53.4106C416.153 52.8159 416.493 52.1609 416.734 51.4455C416.976 50.7302 417.165 50.0192 417.303 49.3167L416.98 49.278C416.51 51.0189 415.726 52.4582 414.618 53.5787Z" fill="white"/>
<path d="M438.13 41.1115C438.13 39.8705 437.859 38.8362 437.32 38.0088C436.777 37.1857 436.092 36.5436 435.251 36.0825C434.415 35.6214 433.48 35.2982 432.455 35.1086C431.429 34.919 430.412 34.8242 429.412 34.8242C428.546 34.8242 427.568 34.8845 426.473 35.0052C425.379 35.1259 424.345 35.3758 423.371 35.755C422.397 36.1343 421.578 36.66 420.919 37.3366C420.255 38.0131 419.923 38.9052 419.923 40.0127C419.923 40.5255 420.04 40.9995 420.268 41.4304C420.496 41.8614 420.794 42.2406 421.16 42.5638C421.526 42.887 421.931 43.1369 422.375 43.3136C422.819 43.4903 423.272 43.5765 423.733 43.5765C424.491 43.5765 425.159 43.3352 425.741 42.8482C426.323 42.3612 426.611 41.6847 426.611 40.8228C426.611 40.31 426.456 39.892 426.146 39.5645C425.836 39.2413 425.482 38.9569 425.09 38.7112C424.698 38.4699 424.345 38.2243 424.034 37.983C423.724 37.7416 423.569 37.4141 423.569 37.0091C423.569 36.7117 423.668 36.4488 423.875 36.2204C424.077 35.992 424.301 35.824 424.543 35.7119C424.84 35.5784 425.159 35.4879 425.495 35.4491C425.831 35.4103 426.163 35.3887 426.486 35.3887C427.404 35.3887 428.141 35.5654 428.697 35.9145C429.249 36.2678 429.675 36.7246 429.973 37.2935C430.27 37.8623 430.459 38.4958 430.541 39.1982C430.623 39.9006 430.662 40.603 430.662 41.3055V42.3182C429.636 42.8611 428.546 43.4127 427.4 43.9816C426.249 44.5504 425.163 45.1322 424.138 45.7268C423.677 45.9682 423.211 46.2483 422.737 46.5585C422.263 46.8688 421.811 47.1877 421.38 47.5109C420.949 47.8341 420.557 48.1659 420.203 48.5021C419.85 48.8382 419.596 49.1441 419.432 49.4156C419.216 49.769 419.04 50.1439 418.906 50.549C418.773 50.9541 418.704 51.3721 418.704 51.8073C418.704 52.5658 418.833 53.238 419.087 53.8327C419.346 54.4274 419.69 54.9273 420.121 55.3324C420.552 55.7374 421.039 56.0477 421.582 56.2632C422.121 56.4786 422.677 56.5864 423.246 56.5864H423.448C424.638 56.5864 425.84 56.3106 427.055 55.7547C428.27 55.2031 429.378 54.6386 430.378 54.074L430.662 53.9103V56.4226H441.121V56.0994H438.122V41.1115H438.13ZM430.671 53.5181C430.455 53.6517 430.21 53.7896 429.942 53.9232C429.671 54.0568 429.43 54.1818 429.214 54.2895C429.05 54.3714 428.878 54.4102 428.688 54.4102C428.201 54.4102 427.758 54.1731 427.352 53.6991C426.947 53.2251 426.745 52.7338 426.745 52.221V49.7087C426.745 49.0062 426.84 48.2952 427.029 47.5799C427.219 46.8645 427.482 46.1966 427.818 45.5717C428.154 44.9512 428.568 44.3909 429.055 43.8911C429.542 43.3912 430.08 43.0077 430.675 42.7362V53.5181H430.671Z" fill="white"/>
<path d="M450.899 30.7752C450.899 31.5854 451.123 32.2145 451.567 32.6584C452.011 33.1023 452.532 33.4341 453.127 33.6495C453.721 33.865 454.329 33.9943 454.95 34.0331C455.57 34.0719 456.057 34.0934 456.411 34.0934H458.436C458.436 31.9861 457.85 30.4003 456.673 29.3316C455.497 28.2629 453.937 27.7285 451.993 27.7285C451.101 27.7285 450.218 27.8233 449.339 28.0129C448.46 28.2025 447.671 28.5731 446.969 29.1291C446.266 29.685 445.698 30.4649 445.267 31.4819C444.836 32.4946 444.616 33.8262 444.616 35.4767H441.535V35.7999H444.616V56.1098H441.535V56.433H455.075V56.1098H452.032V35.7999H455.6V35.4767C454.652 35.4767 453.778 35.369 452.967 35.1535C452.157 34.938 451.446 34.6019 450.839 34.1408C450.231 33.6797 449.748 33.1066 449.399 32.4171C449.046 31.7276 448.873 30.8959 448.873 29.9263C448.873 29.4135 448.994 28.9868 449.24 28.6507C449.481 28.3146 449.873 28.1422 450.416 28.1422H450.619C450.89 28.1422 451.11 28.1896 451.287 28.2844C451.463 28.3792 451.55 28.5085 451.55 28.668C451.55 28.9912 451.442 29.323 451.226 29.6591C451.007 29.9995 450.899 30.3701 450.899 30.7752Z" fill="white"/>
<path d="M477.832 51.5094C477.44 52.255 476.966 52.9057 476.414 53.4745C475.858 54.0433 475.212 54.4958 474.466 54.8319C473.721 55.1681 472.863 55.3404 471.894 55.3404C470.54 55.3404 469.48 55.069 468.713 54.5303C467.942 53.9916 467.356 53.2935 466.951 52.4446C466.546 51.5913 466.287 50.626 466.179 49.5444C466.072 48.4627 466.016 47.394 466.016 46.3426V45.7737H472.54C473.298 45.7737 474.108 45.7479 474.97 45.6918C475.837 45.6401 476.638 45.4893 477.384 45.248C478.125 45.0067 478.75 44.6404 479.25 44.1534C479.749 43.6665 479.999 42.9899 479.999 42.128C479.999 40.6672 479.68 39.4735 479.047 38.5383C478.414 37.6075 477.599 36.8706 476.617 36.3276C475.63 35.789 474.531 35.4098 473.311 35.1943C472.096 34.9788 470.92 34.8711 469.786 34.8711C469.243 34.8711 468.575 34.9099 467.778 34.9918C466.981 35.0736 466.128 35.2417 465.223 35.5003C464.318 35.7588 463.417 36.1294 462.525 36.6164C461.633 37.1033 460.823 37.7497 460.095 38.5642C459.366 39.3744 458.776 40.3741 458.332 41.5635C457.888 42.7529 457.664 44.1706 457.664 45.8211C457.664 47.9284 458.061 49.7254 458.858 51.2121C459.655 52.6988 460.62 53.7934 461.758 54.4958C462.624 55.0646 463.378 55.4956 464.029 55.7929C464.68 56.0903 465.292 56.3144 465.873 56.4609C466.455 56.6074 467.028 56.6979 467.597 56.7237C468.166 56.7496 468.812 56.7625 469.545 56.7625C471.139 56.7625 472.475 56.5729 473.557 56.1937C474.639 55.8145 475.543 55.2887 476.272 54.6122C477 53.9356 477.59 53.1384 478.034 52.2205C478.482 51.3026 478.892 50.3028 479.271 49.2212L478.866 49.1824C478.569 49.9882 478.224 50.7682 477.832 51.5094ZM466.016 43.2614C466.016 42.4254 466.041 41.5376 466.097 40.6068C466.149 39.676 466.278 38.8184 466.481 38.0341C466.683 37.2498 466.972 36.6034 467.351 36.0863C467.731 35.5735 468.256 35.302 468.933 35.2762H469.097C469.476 35.2762 469.847 35.371 470.213 35.5606C470.579 35.7502 470.907 36.1036 471.204 36.6164C471.501 37.1292 471.738 37.8445 471.915 38.7667C472.092 39.6846 472.178 40.874 472.178 42.3349C472.178 42.4167 472.169 42.559 472.156 42.7615C472.143 42.964 472.118 43.1924 472.074 43.451C472.036 43.7095 471.967 43.9638 471.872 44.2224C471.777 44.4809 471.648 44.6878 471.488 44.8515C471.191 45.123 470.833 45.2825 470.415 45.3385C469.997 45.3945 469.717 45.4204 469.584 45.4204H466.016V43.2614Z" fill="white"/>
<path d="M97.492 73.125C94.3738 73.125 91.3783 72.6003 88.5816 71.6314C88.4928 71.6018 88.4039 71.5764 88.3193 71.5426C88.2262 71.513 88.1331 71.4791 88.0443 71.4453C87.8581 71.3776 87.6804 71.3099 87.4985 71.238C87.3123 71.166 87.1304 71.0899 86.9442 71.0137C86.8765 70.9841 86.8088 70.9587 86.7411 70.9249C86.5973 70.8699 86.4577 70.8022 86.318 70.7387C86.263 70.7176 86.208 70.6879 86.153 70.6626C86.0049 70.5991 85.8695 70.5356 85.7215 70.4637C85.6961 70.4552 85.6707 70.4425 85.6495 70.4256C85.4634 70.3368 85.2687 70.2437 85.0868 70.1464C84.6933 69.9475 84.3083 69.7402 83.9275 69.5202C83.7371 69.4102 83.5467 69.2959 83.3606 69.1859C83.1913 69.0802 83.0179 68.9744 82.8529 68.8686C82.8359 68.8602 82.819 68.8475 82.8021 68.8348C82.6286 68.7248 82.4594 68.6105 82.2817 68.4963C82.2521 68.4751 82.2225 68.4582 82.1928 68.4371C82.0278 68.327 81.867 68.217 81.7105 68.1028C81.5286 67.9759 81.3551 67.849 81.1816 67.7178C80.8389 67.4682 80.5047 67.2016 80.1789 66.9351C79.997 66.787 79.8193 66.6389 79.6458 66.4866C79.4935 66.3554 79.3412 66.22 79.1931 66.0846C79.1804 66.0762 79.1677 66.0635 79.155 66.0508C78.8292 65.7589 78.5161 65.4585 78.2073 65.1496C78.0507 64.9973 77.8984 64.8407 77.7461 64.6842C77.598 64.5234 77.4457 64.3626 77.3018 64.2019C77.1537 64.0368 77.0057 63.8761 76.866 63.7153C76.7391 63.5672 76.6164 63.4191 76.4937 63.2753C76.0368 62.7295 75.601 62.1625 75.1906 61.5787C75.1017 61.4517 75.0044 61.3163 74.9156 61.1809C74.8267 61.054 74.7379 60.9229 74.6532 60.7917C74.5644 60.6605 74.4798 60.5251 74.3952 60.394C71.7381 56.1842 70.198 51.1958 70.198 45.8352C70.198 41.2319 71.3489 36.8952 73.3755 33.0831C73.532 32.7869 73.697 32.4907 73.8621 32.203C73.9128 32.1184 73.9594 32.038 74.0101 31.9534C74.1371 31.7418 74.264 31.5303 74.3952 31.3187C74.8352 30.6249 75.3006 29.9564 75.7956 29.309C77.1749 27.5066 78.77 25.8777 80.547 24.4688C80.7755 24.2869 81.0082 24.1092 81.2451 23.9357C83.4537 22.2856 85.9203 20.9656 88.5731 20.0474C91.3698 19.0743 94.3738 18.5454 97.492 18.5454C105.099 18.5454 111.721 21.4987 116.734 26.5124L132.038 16.4892C123.711 6.73681 111.543 0.648438 97.492 0.648438C89.0428 0.648438 81.152 2.93739 74.4036 6.93989C70.5873 9.19923 67.1306 12.0086 64.1562 15.258C63.8389 15.6007 63.53 15.9519 63.2296 16.303C62.7008 16.9081 62.1973 17.5258 61.7107 18.1562C61.4865 18.4397 61.2707 18.7274 61.0591 19.0151C60.7968 19.362 60.5472 19.7174 60.3018 20.0728C60.1029 20.3563 59.9125 20.644 59.7221 20.9317C59.5825 21.139 59.4471 21.3548 59.316 21.5664C59.2864 21.6087 59.261 21.6552 59.2356 21.6933C54.8396 28.6702 52.301 36.9417 52.301 45.8394C52.301 55.4268 55.25 64.3161 60.2976 71.6188C60.2976 71.623 60.3018 71.623 60.3018 71.6272C60.5303 71.9615 60.763 72.2872 60.9999 72.6173C61.2411 72.943 61.4865 73.2688 61.7361 73.5904C61.863 73.7512 61.9815 73.9119 62.1084 74.0727C62.2353 74.2293 62.3623 74.3858 62.4892 74.5424L62.8742 75.012C63.1365 75.3208 63.3989 75.6297 63.6696 75.9343C63.805 76.0824 63.9404 76.2347 64.0758 76.3871C64.3508 76.6832 64.6258 76.9794 64.9051 77.2756C65.1843 77.5675 65.4678 77.8552 65.7597 78.1387C65.9036 78.2783 66.0474 78.4221 66.1998 78.5618C66.3436 78.7014 66.4917 78.841 66.6398 78.9806C66.9148 79.2387 67.1983 79.4926 67.4733 79.7422C67.6595 79.903 67.8414 80.0638 68.0275 80.2245C68.3195 80.4784 68.6241 80.728 68.9245 80.9777C69.0811 81.1046 69.2418 81.2315 69.3984 81.3584C70.033 81.8619 70.6846 82.3485 71.3446 82.8181C71.6746 83.0551 72.0131 83.2835 72.3474 83.512C72.5166 83.622 72.6858 83.7363 72.8593 83.8505C73.367 84.1847 73.8874 84.5063 74.4121 84.8194C81.1562 88.8303 89.047 91.1278 97.4963 91.1278C111.547 91.1278 123.716 85.0394 132.042 75.287L116.739 65.175C111.721 70.1718 105.099 73.125 97.492 73.125Z" fill="url(#paint0_linear_3348_424)"/>
<path opacity="0.14" d="M80.5453 16.291V24.461C78.7683 25.8699 77.1732 27.4989 75.7939 29.3013C75.2989 29.9486 74.8335 30.6213 74.3935 31.311C74.2623 31.5183 74.1311 31.7341 74.0084 31.9456C73.9577 32.0302 73.9111 32.1106 73.8603 32.1952C73.6953 32.4829 73.5303 32.7791 73.3738 33.0753C70.0736 27.8966 64.9965 23.8898 59.2339 21.6813C59.2593 21.639 59.2847 21.5924 59.3143 21.5543C59.4454 21.3428 59.5808 21.1312 59.7204 20.9197C59.9108 20.632 60.1012 20.3443 60.3001 20.0608C60.5455 19.7054 60.7993 19.35 61.0574 19.0031C61.269 18.7154 61.4848 18.4234 61.709 18.1442C62.1913 17.5095 62.6991 16.896 63.2279 16.291H80.5453Z" fill="black"/>
<path d="M90.6528 45.8323C90.6528 54.4931 88.2284 62.5742 84.0102 69.4453C77.9345 67.516 72.87 63.3062 69.8237 57.8186C71.5838 54.2054 72.5738 50.1394 72.5738 45.8323C72.5738 42.0202 71.7911 38.3858 70.3737 35.0856C70.2003 34.671 70.0099 34.2606 69.8153 33.8586C69.3879 32.987 68.9141 32.1366 68.3936 31.3158C65.14 26.1413 60.1856 22.1261 54.313 20.0699C54.3087 20.0699 54.3045 20.0657 54.3045 20.0657C53.471 19.7737 52.6248 19.5199 51.7532 19.3083C51.2328 19.1814 50.7124 19.0714 50.1835 18.9741C48.5969 18.6864 46.9553 18.534 45.2841 18.534C30.2472 18.534 17.9901 30.7912 17.9901 45.828C17.9901 60.9538 30.2472 73.122 45.2841 73.122C47.5096 73.122 49.6758 72.8555 51.749 72.3562C53.4837 74.9667 55.4723 77.4038 57.7147 79.6462C60.2109 82.1509 62.9399 84.3426 65.8508 86.2042C59.6778 89.3393 52.6883 91.1037 45.2841 91.1037C20.3129 91.1037 0 70.8839 0 45.8238C0 20.7722 20.3129 0.632812 45.2841 0.632812C52.6883 0.632812 59.6736 2.38867 65.8424 5.51535C66.714 5.95537 67.5686 6.42078 68.4021 6.92004C68.4063 6.92004 68.4063 6.92004 68.4063 6.92004C74.0208 10.2287 78.8526 14.705 82.5674 20.0318C82.5674 20.0318 82.5674 20.0318 82.5716 20.0318C83.0709 20.7468 83.5448 21.4746 84.0017 22.2192C88.2242 29.0819 90.6528 37.1588 90.6528 45.8323Z" fill="url(#paint1_linear_3348_424)"/>
<defs>
<linearGradient id="paint0_linear_3348_424" x1="130.434" y1="7.33955" x2="50.0378" y2="101.558" gradientUnits="userSpaceOnUse">
<stop stop-color="#FFCC00"/>
<stop offset="1" stop-color="#FF8D00"/>
</linearGradient>
<linearGradient id="paint1_linear_3348_424" x1="84.8684" y1="11.8168" x2="-25.1473" y2="104.343" gradientUnits="userSpaceOnUse">
<stop stop-color="#9EFF2E"/>
<stop offset="1" stop-color="#69C700"/>
</linearGradient>
</defs>
</svg>
