<svg width="1440" height="664" viewBox="0 0 1440 664" fill="none" xmlns="http://www.w3.org/2000/svg">
<rect x="-1.08008" y="260.316" width="1441" height="404" fill="url(#paint0_radial_4196_2)"/>
<path d="M40.8835 399.05C40.8835 399.05 41.1543 385.525 33.3869 372.21C25.6195 358.896 22.3882 352.003 23.4976 334.816C24.6123 317.63 33.8659 292.924 59.6594 278.49C85.4518 264.061 122.967 268.378 145.823 295.623C168.938 323.179 160.671 355.292 156.683 365.607C152.696 375.922 146.559 382.855 136.799 390.386C127.034 397.916 121.574 408.348 119.205 414.169L40.8835 399.05Z" fill="#F9F9F9" fill-opacity="0.44"/>
<path d="M30.5442 470.278L-1.6966 529.228L26.8111 657.672L26.9891 657.705L46.0959 555.499C43.7169 554.157 41.6029 552.261 39.9515 549.86C34.1663 541.425 36.3135 529.903 44.7485 524.117C53.1836 518.332 64.7065 520.479 70.4917 528.914C76.2769 537.349 74.1297 548.872 65.6946 554.658C63.2499 556.334 60.5391 557.342 57.7878 557.728L38.9546 660.114L38.987 660.12L111.94 550.018L102.936 483.489L30.5442 470.278Z" fill="#F9F9F9" fill-opacity="0.44"/>
<path d="M119.192 428.541L112.064 466.789C111.375 470.49 107.818 472.925 104.122 472.237L33.9489 459.16C30.2482 458.471 27.8131 454.913 28.5017 451.218L35.629 412.97C36.3175 409.275 39.8759 406.834 43.5712 407.523L113.744 420.599C117.44 421.288 119.88 424.846 119.192 428.541Z" fill="#F9F9F9" fill-opacity="0.44"/>
<defs>
<radialGradient id="paint0_radial_4196_2" cx="0" cy="0" r="1" gradientUnits="userSpaceOnUse" gradientTransform="translate(718.649 204.653) rotate(90) scale(484.48 875.812)">
<stop stop-color="#191919"/>
<stop offset="1" stop-color="#080808"/>
</radialGradient>
</defs>
</svg>
