<svg width="184" height="28" viewBox="0 0 184 28" fill="none" xmlns="http://www.w3.org/2000/svg">
<path d="M93.578 23.9902L92.8344 26.801H92.018L91.5108 24.8127H91.4926L90.9875 26.801H90.1832L89.4355 23.9902H90.2054L90.6298 26.0736H90.646L91.1451 23.9902H91.8806L92.3817 26.0736H92.3979L92.8243 23.9902H93.578Z" fill="#F9F9F9"/>
<path d="M94.1597 26.8004V23.0176H94.9114V24.4907H94.9275C95.0043 24.3128 95.1155 24.1754 95.269 24.0785C95.4206 23.9835 95.6025 23.937 95.8106 23.937C96.1218 23.937 96.3622 24.032 96.532 24.2179C96.7058 24.4058 96.7906 24.6645 96.7906 24.9898V26.7983H96.0248V25.1514C96.0248 24.9676 95.9803 24.8241 95.8914 24.7231C95.8025 24.622 95.6712 24.5695 95.4994 24.5695C95.3196 24.5695 95.1801 24.6261 95.0771 24.7413C94.976 24.8544 94.9235 25.006 94.9235 25.1939V26.7983H94.1597V26.8004Z" fill="#F9F9F9"/>
<path d="M99.4133 25.9413H100.117C100.074 26.2161 99.9367 26.4404 99.7023 26.6081C99.4679 26.7758 99.1789 26.8607 98.8334 26.8607C98.401 26.8607 98.0635 26.7314 97.817 26.4727C97.5725 26.2141 97.4492 25.8604 97.4492 25.4078C97.4492 24.9592 97.5725 24.6015 97.817 24.3328C98.0615 24.064 98.3909 23.9307 98.8051 23.9307C99.2113 23.9307 99.5366 24.058 99.7771 24.3126C100.018 24.5672 100.141 24.9087 100.141 25.3371V25.5695H98.2029V25.6159C98.2029 25.818 98.2615 25.9797 98.3808 26.105C98.5 26.2302 98.6536 26.2929 98.8496 26.2929C98.989 26.2929 99.1102 26.2605 99.2113 26.1979C99.3103 26.1353 99.379 26.0484 99.4133 25.9413ZM98.8112 24.4965C98.6455 24.4965 98.5081 24.553 98.3949 24.6662C98.2858 24.7794 98.2211 24.9248 98.209 25.1007H99.4012C99.3931 24.9208 99.3325 24.7753 99.2254 24.6622C99.1203 24.551 98.9829 24.4965 98.8112 24.4965Z" fill="#F9F9F9"/>
<path d="M100.798 26.7995V23.9907H101.537V24.4959H101.554C101.602 24.3181 101.685 24.1827 101.8 24.0877C101.913 23.9928 102.057 23.9463 102.222 23.9463C102.301 23.9463 102.374 23.9564 102.439 23.9746V24.6475C102.366 24.6172 102.275 24.603 102.162 24.603C101.974 24.603 101.826 24.6576 101.721 24.7687C101.616 24.8778 101.564 25.0314 101.564 25.2294V26.7995H100.798Z" fill="#F9F9F9"/>
<path d="M104.878 25.9413H105.581C105.539 26.2161 105.402 26.4404 105.167 26.6081C104.933 26.7758 104.644 26.8607 104.298 26.8607C103.866 26.8607 103.528 26.7314 103.282 26.4727C103.037 26.2141 102.914 25.8604 102.914 25.4078C102.914 24.9592 103.037 24.6015 103.282 24.3328C103.526 24.064 103.856 23.9307 104.27 23.9307C104.676 23.9307 105.001 24.058 105.242 24.3126C105.482 24.5672 105.606 24.9087 105.606 25.3371V25.5695H103.668V25.6159C103.668 25.818 103.726 25.9797 103.846 26.105C103.965 26.2302 104.118 26.2929 104.314 26.2929C104.454 26.2929 104.575 26.2605 104.676 26.1979C104.777 26.1353 104.844 26.0484 104.878 25.9413ZM104.278 24.4965C104.112 24.4965 103.975 24.553 103.862 24.6662C103.753 24.7794 103.688 24.9248 103.676 25.1007H104.868C104.86 24.9208 104.799 24.7753 104.692 24.6622C104.585 24.551 104.448 24.4965 104.278 24.4965Z" fill="#F9F9F9"/>
<path d="M108.287 23.5646C108.208 23.6414 108.111 23.6798 107.996 23.6798C107.881 23.6798 107.784 23.6414 107.705 23.5646C107.626 23.4879 107.588 23.3949 107.588 23.2838C107.588 23.1726 107.626 23.0776 107.705 23.0009C107.784 22.9261 107.881 22.8877 107.996 22.8877C108.111 22.8877 108.208 22.9261 108.287 23.0009C108.366 23.0776 108.404 23.1706 108.404 23.2838C108.404 23.3949 108.366 23.4879 108.287 23.5646ZM107.614 26.7998V23.991H108.38V26.8018H107.614V26.7998Z" fill="#7D40FF"/>
<path d="M109.154 26.7997V23.9909H109.894V24.5002H109.91C109.969 24.3284 110.07 24.193 110.213 24.092C110.355 23.9909 110.522 23.9404 110.712 23.9404C110.914 23.9404 111.084 23.9909 111.219 24.092C111.355 24.193 111.448 24.3345 111.494 24.5184H111.51C111.573 24.3425 111.684 24.2031 111.84 24.0981C111.995 23.995 112.177 23.9425 112.381 23.9425C112.656 23.9425 112.88 24.0293 113.048 24.2011C113.216 24.3749 113.303 24.6032 113.303 24.8861V26.8038H112.537V25.0761C112.537 24.9124 112.499 24.7891 112.42 24.7022C112.341 24.6154 112.228 24.5729 112.078 24.5729C111.935 24.5729 111.818 24.6214 111.729 24.7164C111.642 24.8134 111.597 24.9387 111.597 25.0963V26.8018H110.86V25.0498C110.86 24.9003 110.821 24.781 110.739 24.6982C110.658 24.6133 110.547 24.5709 110.405 24.5709C110.258 24.5709 110.142 24.6214 110.051 24.7204C109.963 24.8194 109.918 24.9488 109.918 25.1064V26.8038H109.154V26.7997Z" fill="#7D40FF"/>
<path d="M114.889 26.8445C114.618 26.8445 114.392 26.7637 114.216 26.6061C114.036 26.4464 113.949 26.2424 113.949 25.9918C113.949 25.7372 114.044 25.5371 114.232 25.3916C114.42 25.2461 114.691 25.1633 115.042 25.1431L115.752 25.1007V24.9147C115.752 24.7854 115.709 24.6844 115.624 24.6116C115.54 24.5389 115.424 24.5005 115.279 24.5005C115.139 24.5005 115.024 24.5328 114.937 24.5955C114.85 24.6581 114.796 24.743 114.776 24.8501H114.077C114.093 24.5732 114.21 24.351 114.43 24.1833C114.65 24.0155 114.945 23.9307 115.313 23.9307C115.673 23.9307 115.96 24.0155 116.178 24.1873C116.394 24.357 116.503 24.5854 116.503 24.8683V26.8001H115.764V26.3697H115.748C115.671 26.5172 115.554 26.6324 115.396 26.7172C115.236 26.8021 115.069 26.8445 114.889 26.8445ZM115.141 26.2929C115.309 26.2929 115.455 26.2444 115.572 26.1454C115.689 26.0463 115.75 25.9231 115.75 25.7715V25.5674L115.158 25.6038C115.016 25.6139 114.903 25.6503 114.828 25.7109C114.749 25.7715 114.711 25.8524 114.711 25.9514C114.711 26.0565 114.749 26.1393 114.828 26.1999C114.905 26.2605 115.01 26.2929 115.141 26.2929Z" fill="#7D40FF"/>
<path d="M118.547 27.8586C118.182 27.8586 117.883 27.7778 117.646 27.6181C117.412 27.4585 117.278 27.2524 117.248 26.9978H117.996C118.026 27.0968 118.095 27.1756 118.198 27.2342C118.303 27.2948 118.426 27.3251 118.57 27.3251C118.762 27.3251 118.913 27.2766 119.022 27.1756C119.129 27.0766 119.184 26.9452 119.184 26.7795V26.2865H119.168C119.103 26.438 118.99 26.5593 118.834 26.6522C118.679 26.7432 118.499 26.7896 118.299 26.7896C117.953 26.7896 117.679 26.6643 117.47 26.4118C117.262 26.1612 117.159 25.8177 117.159 25.3812C117.159 24.9346 117.262 24.583 117.47 24.3264C117.676 24.0697 117.955 23.9404 118.313 23.9404C118.513 23.9404 118.689 23.9889 118.84 24.0839C118.994 24.1809 119.107 24.3102 119.182 24.4739H119.194V23.9909H119.948V26.7613C119.948 27.0948 119.82 27.3615 119.566 27.5615C119.311 27.7596 118.97 27.8586 118.547 27.8586ZM118.562 26.2036C118.754 26.2036 118.907 26.1309 119.018 25.9874C119.131 25.8439 119.186 25.6439 119.186 25.3913C119.186 25.1367 119.129 24.9346 119.018 24.7851C118.905 24.6356 118.752 24.5588 118.562 24.5588C118.374 24.5588 118.222 24.6335 118.113 24.7831C118.002 24.9326 117.945 25.1347 117.945 25.3893C117.945 25.6439 118.002 25.8439 118.111 25.9874C118.22 26.1309 118.372 26.2036 118.562 26.2036Z" fill="#7D40FF"/>
<path d="M121.41 23.5646C121.331 23.6414 121.234 23.6798 121.119 23.6798C121.003 23.6798 120.906 23.6414 120.828 23.5646C120.749 23.4879 120.71 23.3949 120.71 23.2838C120.71 23.1726 120.749 23.0776 120.828 23.0009C120.906 22.9261 121.003 22.8877 121.119 22.8877C121.234 22.8877 121.331 22.9261 121.41 23.0009C121.488 23.0776 121.527 23.1706 121.527 23.2838C121.529 23.3949 121.488 23.4879 121.41 23.5646ZM120.737 26.7998V23.991H121.503V26.8018H120.737V26.7998Z" fill="#7D40FF"/>
<path d="M122.277 26.7979V23.9891H123.016V24.4902H123.033C123.109 24.3124 123.221 24.175 123.37 24.078C123.518 23.983 123.697 23.9365 123.91 23.9365C124.223 23.9365 124.461 24.0295 124.631 24.2134C124.799 24.3972 124.886 24.6559 124.886 24.9873V26.7979H124.12V25.1469C124.12 24.963 124.075 24.8196 123.988 24.7185C123.902 24.6195 123.774 24.569 123.602 24.569C123.435 24.569 123.299 24.6256 123.196 24.7388C123.093 24.8519 123.043 24.9994 123.043 25.1833V26.7958H122.277V26.7979Z" fill="#7D40FF"/>
<path d="M126.47 26.8445C126.199 26.8445 125.973 26.7637 125.797 26.6061C125.617 26.4464 125.53 26.2424 125.53 25.9918C125.53 25.7372 125.625 25.5371 125.813 25.3916C126.001 25.2461 126.272 25.1633 126.623 25.1431L127.333 25.1007V24.9147C127.333 24.7854 127.29 24.6844 127.205 24.6116C127.121 24.5389 127.005 24.5005 126.86 24.5005C126.72 24.5005 126.605 24.5328 126.518 24.5955C126.432 24.6581 126.377 24.743 126.357 24.8501H125.658C125.674 24.5732 125.791 24.351 126.011 24.1833C126.231 24.0155 126.526 23.9307 126.894 23.9307C127.254 23.9307 127.541 24.0155 127.759 24.1873C127.975 24.357 128.084 24.5854 128.084 24.8683V26.8001H127.345V26.3697H127.329C127.252 26.5172 127.135 26.6324 126.977 26.7172C126.819 26.8021 126.65 26.8445 126.47 26.8445ZM126.722 26.2929C126.89 26.2929 127.036 26.2444 127.153 26.1454C127.27 26.0463 127.331 25.9231 127.331 25.7715V25.5674L126.739 25.6038C126.597 25.6139 126.484 25.6503 126.409 25.7109C126.33 25.7715 126.292 25.8524 126.292 25.9514C126.292 26.0565 126.33 26.1393 126.409 26.1999C126.486 26.2605 126.591 26.2929 126.722 26.2929Z" fill="#7D40FF"/>
<path d="M129.048 23.3457H129.814V23.9923H130.336V24.5682H129.814V25.914C129.814 26.1242 129.925 26.2313 130.144 26.2313C130.216 26.2313 130.277 26.2272 130.33 26.2192V26.7829C130.243 26.8031 130.119 26.8153 129.966 26.8153C129.637 26.8153 129.4 26.7547 129.259 26.6375C129.117 26.5182 129.046 26.3222 129.046 26.0474V24.5723H128.65V23.9944H129.046V23.3457H129.048Z" fill="#7D40FF"/>
<path d="M131.709 23.5646C131.631 23.6414 131.534 23.6798 131.418 23.6798C131.303 23.6798 131.206 23.6414 131.127 23.5646C131.049 23.4879 131.01 23.3949 131.01 23.2838C131.01 23.1726 131.049 23.0776 131.127 23.0009C131.206 22.9261 131.303 22.8877 131.418 22.8877C131.534 22.8877 131.631 22.9261 131.709 23.0009C131.788 23.0776 131.827 23.1706 131.827 23.2838C131.829 23.3949 131.788 23.4879 131.709 23.5646ZM131.037 26.7998V23.991H131.802V26.8018H131.037V26.7998Z" fill="#7D40FF"/>
<path d="M134.885 26.4707C134.637 26.7294 134.297 26.8607 133.869 26.8607C133.442 26.8607 133.103 26.7314 132.852 26.4707C132.604 26.21 132.479 25.8524 132.479 25.3937C132.479 24.941 132.606 24.5834 132.856 24.3227C133.111 24.062 133.446 23.9307 133.869 23.9307C134.295 23.9307 134.633 24.06 134.883 24.3227C135.134 24.5834 135.261 24.941 135.261 25.3937C135.261 25.8524 135.136 26.212 134.885 26.4707ZM133.869 26.2767C134.059 26.2767 134.208 26.1999 134.317 26.0463C134.428 25.8928 134.483 25.6766 134.483 25.3957C134.483 25.1209 134.428 24.9046 134.317 24.749C134.208 24.5935 134.059 24.5167 133.869 24.5167C133.681 24.5167 133.531 24.5935 133.42 24.749C133.309 24.9046 133.254 25.1209 133.254 25.3957C133.254 25.6766 133.309 25.8928 133.418 26.0463C133.529 26.1999 133.677 26.2767 133.869 26.2767Z" fill="#7D40FF"/>
<path d="M135.916 26.7979V23.9891H136.656V24.4902H136.672C136.749 24.3124 136.86 24.175 137.009 24.078C137.157 23.983 137.337 23.9365 137.549 23.9365C137.862 23.9365 138.1 24.0295 138.27 24.2134C138.438 24.3972 138.525 24.6559 138.525 24.9873V26.7979H137.759V25.1469C137.759 24.963 137.714 24.8196 137.628 24.7185C137.541 24.6195 137.413 24.569 137.242 24.569C137.074 24.569 136.938 24.6256 136.835 24.7388C136.732 24.8519 136.682 24.9994 136.682 25.1833V26.7958H135.916V26.7979Z" fill="#7D40FF"/>
<path d="M140.612 26.7997V23.9909H141.351V24.5002H141.368C141.426 24.3284 141.527 24.193 141.671 24.092C141.812 23.9909 141.98 23.9404 142.17 23.9404C142.372 23.9404 142.542 23.9909 142.677 24.092C142.812 24.193 142.905 24.3345 142.952 24.5184H142.968C143.031 24.3425 143.142 24.2031 143.297 24.0981C143.453 23.995 143.635 23.9425 143.839 23.9425C144.114 23.9425 144.338 24.0293 144.506 24.2011C144.673 24.3749 144.76 24.6032 144.76 24.8861V26.8038H143.994V25.0761C143.994 24.9124 143.956 24.7891 143.877 24.7022C143.798 24.6154 143.685 24.5729 143.536 24.5729C143.392 24.5729 143.275 24.6214 143.186 24.7164C143.099 24.8134 143.055 24.9387 143.055 25.0963V26.8018H142.317V25.0498C142.317 24.9003 142.279 24.781 142.196 24.6982C142.115 24.6133 142.004 24.5709 141.863 24.5709C141.715 24.5709 141.6 24.6214 141.509 24.7204C141.42 24.8194 141.376 24.9488 141.376 25.1064V26.8038H140.612V26.7997Z" fill="#F9F9F9"/>
<path d="M147.376 25.9413H148.079C148.037 26.2161 147.9 26.4404 147.665 26.6081C147.431 26.7758 147.142 26.8607 146.796 26.8607C146.364 26.8607 146.026 26.7314 145.78 26.4727C145.535 26.2141 145.412 25.8604 145.412 25.4078C145.412 24.9592 145.535 24.6015 145.78 24.3328C146.024 24.064 146.354 23.9307 146.768 23.9307C147.174 23.9307 147.5 24.058 147.74 24.3126C147.98 24.5672 148.104 24.9087 148.104 25.3371V25.5695H146.166V25.6159C146.166 25.818 146.224 25.9797 146.344 26.105C146.463 26.2302 146.616 26.2929 146.812 26.2929C146.952 26.2929 147.073 26.2605 147.174 26.1979C147.273 26.1353 147.34 26.0484 147.376 25.9413ZM146.774 24.4965C146.608 24.4965 146.471 24.553 146.358 24.6662C146.249 24.7794 146.184 24.9248 146.172 25.1007H147.364C147.356 24.9208 147.295 24.7753 147.188 24.6622C147.081 24.551 146.944 24.4965 146.774 24.4965Z" fill="#F9F9F9"/>
<path d="M150.628 25.9413H151.331C151.288 26.2161 151.151 26.4404 150.917 26.6081C150.682 26.7758 150.393 26.8607 150.048 26.8607C149.615 26.8607 149.278 26.7314 149.031 26.4727C148.787 26.2141 148.664 25.8604 148.664 25.4078C148.664 24.9592 148.787 24.6015 149.031 24.3328C149.276 24.064 149.605 23.9307 150.019 23.9307C150.426 23.9307 150.751 24.058 150.991 24.3126C151.232 24.5672 151.355 24.9087 151.355 25.3371V25.5695H149.417V25.6159C149.417 25.818 149.476 25.9797 149.595 26.105C149.714 26.2302 149.868 26.2929 150.064 26.2929C150.203 26.2929 150.325 26.2605 150.426 26.1979C150.525 26.1353 150.593 26.0484 150.628 25.9413ZM150.028 24.4965C149.862 24.4965 149.724 24.553 149.611 24.6662C149.502 24.7794 149.438 24.9248 149.425 25.1007H150.618C150.61 24.9208 150.549 24.7753 150.442 24.6622C150.335 24.551 150.197 24.4965 150.028 24.4965Z" fill="#F9F9F9"/>
<path d="M152.215 23.3457H152.981V23.9923H153.503V24.5682H152.981V25.914C152.981 26.1242 153.092 26.2313 153.311 26.2313C153.383 26.2313 153.444 26.2272 153.497 26.2192V26.7829C153.41 26.8031 153.286 26.8153 153.133 26.8153C152.803 26.8153 152.567 26.7547 152.426 26.6375C152.284 26.5182 152.213 26.3222 152.213 26.0474V24.5723H151.817V23.9944H152.213V23.3457H152.215Z" fill="#F9F9F9"/>
<path d="M154.144 24.8148C154.144 24.5461 154.251 24.3319 154.467 24.1702C154.681 24.0086 154.968 23.9277 155.33 23.9277C155.681 23.9277 155.964 24.0106 156.176 24.1743C156.389 24.3379 156.498 24.5562 156.504 24.829H155.796C155.788 24.7158 155.742 24.6269 155.657 24.5622C155.574 24.4976 155.461 24.4652 155.318 24.4652C155.184 24.4652 155.079 24.4935 155 24.5481C154.919 24.6047 154.879 24.6774 154.879 24.7683C154.879 24.9037 155.002 25.0007 155.247 25.0593L155.782 25.1745C156.065 25.2372 156.267 25.3281 156.391 25.4493C156.514 25.5685 156.574 25.7342 156.574 25.9424C156.574 26.2192 156.461 26.4415 156.229 26.6092C155.999 26.7769 155.697 26.8598 155.326 26.8598C154.954 26.8598 154.659 26.7769 154.435 26.6133C154.214 26.4496 154.093 26.2273 154.071 25.9484H154.816C154.837 26.0677 154.891 26.1586 154.98 26.2233C155.069 26.2879 155.192 26.3203 155.344 26.3203C155.491 26.3203 155.605 26.292 155.687 26.2394C155.77 26.1849 155.813 26.1121 155.813 26.0212C155.813 25.9484 155.786 25.8919 155.734 25.8494C155.681 25.805 155.592 25.7686 155.465 25.7403L154.946 25.6251C154.412 25.5059 154.144 25.2351 154.144 24.8148Z" fill="#F9F9F9"/>
<path d="M161.106 25.0351H160.395C160.373 24.8835 160.314 24.7603 160.215 24.6673C160.118 24.5764 159.995 24.5279 159.839 24.5279C159.649 24.5279 159.5 24.6047 159.391 24.7582C159.282 24.9118 159.227 25.122 159.227 25.3907C159.227 25.6655 159.282 25.8777 159.391 26.0313C159.5 26.1828 159.651 26.2596 159.841 26.2596C159.995 26.2596 160.118 26.2172 160.215 26.1303C160.312 26.0434 160.371 25.9242 160.395 25.7686H161.108C161.088 26.102 160.965 26.3667 160.735 26.5627C160.502 26.7608 160.203 26.8598 159.835 26.8598C159.409 26.8598 159.072 26.7305 158.823 26.4678C158.576 26.2071 158.451 25.8474 158.451 25.3907C158.451 24.9421 158.576 24.5865 158.825 24.3218C159.074 24.0591 159.409 23.9277 159.829 23.9277C160.203 23.9277 160.506 24.0308 160.735 24.2369C160.967 24.445 161.088 24.7097 161.106 25.0351Z" fill="#F9F9F9"/>
<path d="M161.747 26.7995V23.9907H162.486V24.4959H162.502C162.551 24.3181 162.634 24.1827 162.749 24.0877C162.862 23.9928 163.005 23.9463 163.171 23.9463C163.25 23.9463 163.323 23.9564 163.387 23.9746V24.6475C163.315 24.6172 163.224 24.603 163.111 24.603C162.923 24.603 162.775 24.6576 162.67 24.7687C162.565 24.8778 162.512 25.0314 162.512 25.2294V26.7995H161.747Z" fill="#F9F9F9"/>
<path d="M165.832 25.9413H166.536C166.493 26.2161 166.356 26.4404 166.121 26.6081C165.887 26.7758 165.598 26.8607 165.252 26.8607C164.82 26.8607 164.482 26.7314 164.236 26.4727C163.991 26.2141 163.868 25.8604 163.868 25.4078C163.868 24.9592 163.991 24.6015 164.236 24.3328C164.48 24.064 164.81 23.9307 165.224 23.9307C165.63 23.9307 165.956 24.058 166.196 24.3126C166.436 24.5672 166.56 24.9087 166.56 25.3371V25.5695H164.622V25.6159C164.622 25.818 164.68 25.9797 164.8 26.105C164.919 26.2302 165.073 26.2929 165.269 26.2929C165.408 26.2929 165.529 26.2605 165.63 26.1979C165.729 26.1353 165.798 26.0484 165.832 25.9413ZM165.23 24.4965C165.064 24.4965 164.927 24.553 164.814 24.6662C164.705 24.7794 164.64 24.9248 164.628 25.1007H165.82C165.812 24.9208 165.751 24.7753 165.644 24.6622C165.539 24.551 165.402 24.4965 165.23 24.4965Z" fill="#F9F9F9"/>
<path d="M168.05 26.8445C167.779 26.8445 167.553 26.7637 167.377 26.6061C167.197 26.4464 167.11 26.2424 167.11 25.9918C167.11 25.7372 167.205 25.5371 167.393 25.3916C167.581 25.2461 167.852 25.1633 168.204 25.1431L168.913 25.1007V24.9147C168.913 24.7854 168.87 24.6844 168.786 24.6116C168.701 24.5389 168.585 24.5005 168.44 24.5005C168.301 24.5005 168.185 24.5328 168.098 24.5955C168.012 24.6581 167.957 24.743 167.937 24.8501H167.238C167.254 24.5732 167.371 24.351 167.591 24.1833C167.812 24.0155 168.107 23.9307 168.474 23.9307C168.834 23.9307 169.121 24.0155 169.339 24.1873C169.555 24.357 169.665 24.5854 169.665 24.8683V26.8001H168.925V26.3697H168.909C168.832 26.5172 168.715 26.6324 168.557 26.7172C168.398 26.8021 168.23 26.8445 168.05 26.8445ZM168.303 26.2929C168.47 26.2929 168.616 26.2444 168.733 26.1454C168.85 26.0463 168.911 25.9231 168.911 25.7715V25.5674L168.319 25.6038C168.177 25.6139 168.064 25.6503 167.989 25.7109C167.911 25.7715 167.872 25.8524 167.872 25.9514C167.872 26.0565 167.911 26.1393 167.989 26.1999C168.068 26.2605 168.171 26.2929 168.303 26.2929Z" fill="#F9F9F9"/>
<path d="M170.629 23.3457H171.395V23.9923H171.916V24.5682H171.395V25.914C171.395 26.1242 171.506 26.2313 171.724 26.2313C171.797 26.2313 171.858 26.2272 171.91 26.2192V26.7829C171.823 26.8031 171.7 26.8153 171.546 26.8153C171.217 26.8153 170.981 26.7547 170.839 26.6375C170.698 26.5182 170.627 26.3222 170.627 26.0474V24.5723H170.231V23.9944H170.627V23.3457H170.629Z" fill="#F9F9F9"/>
<path d="M173.292 23.5646C173.213 23.6414 173.116 23.6798 173.001 23.6798C172.886 23.6798 172.789 23.6414 172.71 23.5646C172.631 23.4879 172.593 23.3949 172.593 23.2838C172.593 23.1726 172.631 23.0776 172.71 23.0009C172.789 22.9261 172.886 22.8877 173.001 22.8877C173.116 22.8877 173.213 22.9261 173.292 23.0009C173.371 23.0776 173.409 23.1706 173.409 23.2838C173.409 23.3949 173.371 23.4879 173.292 23.5646ZM172.617 26.7998V23.991H173.383V26.8018H172.617V26.7998Z" fill="#F9F9F9"/>
<path d="M176.462 26.4707C176.214 26.7294 175.874 26.8607 175.446 26.8607C175.02 26.8607 174.68 26.7314 174.429 26.4707C174.181 26.21 174.056 25.8524 174.056 25.3937C174.056 24.941 174.183 24.5834 174.434 24.3227C174.688 24.062 175.024 23.9307 175.446 23.9307C175.872 23.9307 176.21 24.06 176.46 24.3227C176.711 24.5834 176.838 24.941 176.838 25.3937C176.838 25.8524 176.713 26.212 176.462 26.4707ZM175.444 26.2767C175.634 26.2767 175.783 26.1999 175.892 26.0463C176.004 25.8928 176.058 25.6766 176.058 25.3957C176.058 25.1209 176.004 24.9046 175.892 24.749C175.783 24.5935 175.634 24.5167 175.444 24.5167C175.256 24.5167 175.106 24.5935 174.995 24.749C174.884 24.9046 174.83 25.1209 174.83 25.3957C174.83 25.6766 174.884 25.8928 174.993 26.0463C175.104 26.1999 175.254 26.2767 175.444 26.2767Z" fill="#F9F9F9"/>
<path d="M177.5 26.7979V23.9891H178.24V24.4902H178.256C178.333 24.3124 178.444 24.175 178.593 24.078C178.741 23.983 178.921 23.9365 179.133 23.9365C179.446 23.9365 179.684 24.0295 179.854 24.2134C180.022 24.3972 180.109 24.6559 180.109 24.9873V26.7979H179.343V25.1469C179.343 24.963 179.298 24.8196 179.212 24.7185C179.125 24.6195 178.997 24.569 178.826 24.569C178.658 24.569 178.522 24.6256 178.419 24.7388C178.316 24.8519 178.266 24.9994 178.266 25.1833V26.7958H177.5V26.7979Z" fill="#F9F9F9"/>
<path d="M0.919922 21.4269V4.10938H5.77771V21.4269H0.919922Z" fill="#7D40FF"/>
<path d="M0.919922 3.17167V0.316406H5.77771V3.17167H0.919922Z" fill="#F9F9F9"/>
<path d="M66.082 25.1832V22.3623H70.9398V25.1832H66.082Z" fill="#F9F9F9"/>
<path d="M7.58496 21.4269V4.10938H14.1482L16.7347 10.9333L17.8461 15.4052H18.1816L19.3698 10.9333L21.6713 4.10938H28.2346V21.4269H23.3768V18.8262C23.3768 16.3387 23.4718 13.8533 23.6618 11.3738H23.3263L22.2654 15.3546L20.8691 19.6204H14.9505L13.5541 15.3546L12.471 11.3738H12.1316C12.3397 13.8533 12.4428 16.3408 12.4428 18.8303V21.4289H7.58496V21.4269Z" fill="#7D40FF"/>
<path d="M28.8687 21.4269L34.8924 4.10938H41.9487L47.9442 21.4269H42.6196L41.5587 18.0927H34.9955L33.882 21.4269H28.8687ZM36.3918 13.8532H40.1907L39.8815 12.8449L38.5095 8.32256H38.1478L36.7292 12.8449L36.3918 13.8532Z" fill="#7D40FF"/>
<path d="M47.5054 12.7621C47.5054 7.36077 50.6597 3.84473 56.447 3.84473C61.8484 3.84473 64.4591 6.53228 64.4591 10.5919V10.7737H59.2639V10.6949C59.2639 9.11879 58.593 8.57521 56.1096 8.57521C53.5534 8.57521 52.7249 9.27236 52.7249 12.7621C52.7249 16.6116 53.6544 17.2077 56.5501 17.2077C59.0558 17.2077 59.7044 16.7935 59.7812 15.7346H55.6973V12.0892H64.4854V21.4209H59.9348V18.992H59.7024C59.1851 20.259 58.0979 21.6795 54.9214 21.6795C50.0393 21.6795 47.5054 18.3454 47.5054 12.7621Z" fill="#7D40FF"/>
<path d="M66.082 21.4269V4.10938H71.2773L76.1088 11.8891L77.2465 14.0088H77.5819C77.5253 13.5461 77.4687 13.0854 77.4122 12.6226C77.2788 11.5213 77.3232 10.4019 77.3232 9.29452C77.3232 8.36095 77.3232 7.42536 77.3232 6.4918C77.3232 5.69766 77.3232 4.90351 77.3232 4.10938H82.1568V21.4269H76.9858L72.4129 14.215L71.0166 11.7578H70.6812C70.7377 12.3013 70.7964 12.8449 70.8529 13.3885C70.9499 14.318 70.9398 15.2455 70.9398 16.1791C70.9398 17.0096 70.9398 17.8381 70.9398 18.6686C70.9398 19.3718 70.9398 20.075 70.9398 20.7762C70.9398 20.9924 70.9398 21.2107 70.9398 21.4269H66.082Z" fill="#7D40FF"/>
<path d="M89.5728 21.4269V4.10938H96.136L98.7225 10.9333L99.8339 15.4052H100.169L101.358 10.9333L103.659 4.10938H110.222V21.4269H105.365V18.8262C105.365 16.3387 105.46 13.8533 105.65 11.3738H105.314L104.253 15.3546L102.857 19.6204H96.9382L95.5419 15.3546L94.4548 11.3738H94.1194C94.3275 13.8533 94.4305 16.3408 94.4305 18.8303V21.4289H89.5728V21.4269Z" fill="#F9F9F9"/>
<path d="M110.857 21.4269L116.881 4.10938H123.937L129.932 21.4269H124.608L123.547 18.0927H116.984L115.87 21.4269H110.857ZM118.38 13.8532H122.179L121.87 12.8449L120.498 8.32256H120.136L118.718 12.8449L118.38 13.8532Z" fill="#F9F9F9"/>
<path d="M130.57 21.4269V4.10938H135.428V10.5453H138.582L141.991 4.10938H147.497L142.611 12.6913L147.392 21.4269H141.809L138.63 15.2738H135.426V21.4269H130.57Z" fill="#F9F9F9"/>
<path d="M148.137 21.4269V4.10938H162.118V8.47614H152.995V10.5696H161.728V14.9141H152.995V17.0581H162.118V21.4269H148.137Z" fill="#F9F9F9"/>
<path d="M163.714 21.4269V4.10938H172.426C176.79 4.10938 178.862 5.97046 178.862 9.43194C178.862 12.174 177.801 13.8775 174.879 14.215V14.4473C176.637 14.9141 177.336 16.0235 178.007 17.4966L179.819 21.4269H174.155L172.448 17.8341C171.726 16.3347 171.387 15.8942 169.76 15.8942H168.572V21.4249H163.714V21.4269ZM168.572 11.8649H172.244C173.614 11.8649 173.998 11.4769 173.998 10.1069C173.998 8.83987 173.612 8.47816 172.244 8.47816H168.572V11.8649Z" fill="#F9F9F9"/>
<path d="M182.092 21.4249C182.924 21.4249 183.598 20.7509 183.598 19.9195C183.598 19.0881 182.924 18.4141 182.092 18.4141C181.261 18.4141 180.587 19.0881 180.587 19.9195C180.587 20.7509 181.261 21.4249 182.092 21.4249Z" fill="#7D40FF"/>
</svg>
