<svg width="173" height="405" viewBox="0 0 173 405" fill="none" xmlns="http://www.w3.org/2000/svg">
<g style="mix-blend-mode:overlay">
<path d="M40.8835 140.05C40.8835 140.05 41.1543 126.525 33.3869 113.21C25.6195 99.8956 22.3882 93.0026 23.4976 75.816C24.6123 58.6304 33.8659 33.9242 59.6594 19.4897C85.4518 5.06051 122.967 9.37752 145.823 36.6229C168.938 64.179 160.671 96.2921 156.683 106.607C152.696 116.922 146.559 123.855 136.799 131.386C127.034 138.916 121.574 149.348 119.205 155.169L40.8835 140.05Z" fill="#F9F9F9" fill-opacity="0.44"/>
<path d="M30.5442 211.278L-1.6966 270.228L26.8111 398.672L26.9891 398.705L46.0959 296.499C43.7169 295.157 41.6029 293.261 39.9515 290.86C34.1663 282.425 36.3135 270.903 44.7485 265.117C53.1836 259.332 64.7065 261.479 70.4917 269.914C76.2769 278.349 74.1297 289.872 65.6946 295.658C63.2499 297.334 60.5391 298.342 57.7878 298.728L38.9546 401.114L38.987 401.12L111.94 291.018L102.936 224.489L30.5442 211.278Z" fill="#F9F9F9" fill-opacity="0.44"/>
<path d="M60.8595 276.223C63.2166 279.66 62.341 284.359 58.9043 286.716C55.4675 289.073 50.7688 288.197 48.4117 284.761C46.0546 281.324 46.9302 276.625 50.3669 274.268C53.8037 271.911 58.5024 272.786 60.8595 276.223Z" fill="#F9F9F9" fill-opacity="0.44"/>
<path d="M119.192 169.541L112.064 207.789C111.375 211.49 107.818 213.925 104.122 213.237L33.9489 200.16C30.2482 199.471 27.8131 195.913 28.5017 192.218L35.629 153.97C36.3175 150.275 39.8759 147.834 43.5712 148.523L113.744 161.599C117.44 162.288 119.88 165.846 119.192 169.541Z" fill="#F9F9F9" fill-opacity="0.44"/>
</g>
</svg>
