<svg width="30" height="86" viewBox="0 0 30 86" fill="none" xmlns="http://www.w3.org/2000/svg">
<path d="M6.36441 29.759C6.36441 29.759 5.88404 26.8601 3.69557 24.3259C1.50709 21.7918 0.542782 20.4484 0.0957895 16.7342C-0.350011 13.02 0.642909 7.37598 5.57651 3.26723C10.5101 -0.84033 18.6931 -1.41129 24.6577 3.49728C30.6903 8.46188 30.2028 15.6483 29.7618 18.0096C29.3207 20.3709 28.2861 22.0957 26.5017 24.0923C24.7161 26.0889 23.9652 28.5336 23.691 29.871L6.36441 29.759Z" fill="#6F00FF"/>
<path d="M6.99218 45.3804L2.45312 59.2515L13.6518 85.5454H13.6911L13.7042 62.9597C13.1428 62.7678 12.6159 62.4472 12.1678 62.0002C10.5967 60.4291 10.5967 57.8831 12.1678 56.312C13.7388 54.741 16.2849 54.741 17.8559 56.312C19.4269 57.8831 19.4269 60.4291 17.8559 62.0002C17.4005 62.4555 16.8618 62.7785 16.2896 62.9704L16.3421 85.5835H16.3492L27.5467 59.1692L22.9766 45.3208L6.99218 45.3804Z" fill="#6F00FF"/>
<path d="M16.1793 58.0128C16.8194 58.6529 16.8194 59.6911 16.1793 60.3312C15.5392 60.9713 14.501 60.9713 13.8609 60.3312C13.2208 59.6911 13.2208 58.6529 13.8609 58.0128C14.501 57.3727 15.5392 57.3727 16.1793 58.0128Z" fill="#6F00FF"/>
<path d="M24.2606 32.9407V41.3918C24.2606 42.2095 23.5979 42.8711 22.7814 42.8711H7.27612C6.45842 42.8711 5.79688 42.2083 5.79688 41.3918V32.9407C5.79688 32.1242 6.45962 31.4614 7.27612 31.4614H22.7814C23.5979 31.4614 24.2606 32.1242 24.2606 32.9407Z" fill="#6F00FF"/>
</svg>
