<svg width="18" height="16" viewBox="0 0 18 16" fill="none" xmlns="http://www.w3.org/2000/svg">
<mask id="mask0_246_3127" style="mask-type:luminance" maskUnits="userSpaceOnUse" x="0" y="0" width="18" height="16">
<path d="M17.515 0H0.0605469V16H17.515V0Z" fill="white"/>
</mask>
<g mask="url(#mask0_246_3127)">
<path d="M17.0055 2.96416C16.6636 2.29815 16.1701 1.72165 15.5649 1.28097C14.9596 0.840293 14.2594 0.547726 13.5206 0.426778C12.7817 0.305829 12.0248 0.359871 11.3106 0.58456C10.5965 0.809249 9.94492 1.19833 9.40842 1.72052L8.78733 2.28852L8.18587 1.74088C7.65062 1.20857 6.99604 0.811696 6.27655 0.58325C5.55706 0.354804 4.79344 0.301383 4.04915 0.427426C3.30917 0.542799 2.6074 0.833078 2.00215 1.27415C1.39689 1.71522 0.905619 2.29435 0.569145 2.96343C0.119381 3.84482 -0.037787 4.84662 0.120455 5.8234C0.278696 6.80018 0.744112 7.70112 1.44915 8.39543L8.26587 15.418C8.33365 15.4877 8.41472 15.5431 8.50429 15.581C8.59385 15.6188 8.6901 15.6383 8.78733 15.6383C8.88456 15.6383 8.9808 15.6188 9.07037 15.581C9.15994 15.5431 9.24101 15.4877 9.30878 15.418L16.1161 8.40852C16.824 7.71354 17.2919 6.81097 17.4519 5.83191C17.6118 4.85285 17.4555 3.8483 17.0055 2.96416Z" fill="#6F00FF"/>
</g>
</svg>
