<svg width="192" height="29" viewBox="0 0 192 29" fill="none" xmlns="http://www.w3.org/2000/svg">
<path d="M97.2235 24.8516L96.4432 27.8008H95.5867L95.0545 25.7145H95.0354L94.5053 27.8008H93.6615L92.877 24.8516H93.6848L94.13 27.0376H94.147L94.6707 24.8516H95.4425L95.9683 27.0376H95.9853L96.4326 24.8516H97.2235Z" fill="#F9F9F9"/>
<path d="M97.8335 27.7992V23.8301H98.6222V25.3757H98.6392C98.7198 25.1892 98.8364 25.045 98.9975 24.9432C99.1565 24.8436 99.3474 24.7948 99.5658 24.7948C99.8923 24.7948 100.145 24.8945 100.323 25.0895C100.505 25.2867 100.594 25.5581 100.594 25.8995V27.7971H99.7905V26.0691C99.7905 25.8761 99.7439 25.7256 99.6506 25.6196C99.5573 25.5136 99.4195 25.4584 99.2392 25.4584C99.0505 25.4584 98.9042 25.5178 98.7961 25.6387C98.6901 25.7574 98.635 25.9164 98.635 26.1136V27.7971H97.8335V27.7992Z" fill="#F9F9F9"/>
<path d="M103.346 26.8987H104.084C104.039 27.1871 103.895 27.4224 103.649 27.5984C103.403 27.7744 103.1 27.8634 102.738 27.8634C102.284 27.8634 101.93 27.7278 101.671 27.4564C101.414 27.185 101.285 26.8139 101.285 26.339C101.285 25.8683 101.414 25.493 101.671 25.211C101.928 24.929 102.273 24.7891 102.708 24.7891C103.134 24.7891 103.475 24.9226 103.728 25.1898C103.98 25.4569 104.109 25.8153 104.109 26.2648V26.5086H102.076V26.5574C102.076 26.7694 102.138 26.939 102.263 27.0705C102.388 27.2019 102.549 27.2677 102.755 27.2677C102.901 27.2677 103.028 27.2337 103.134 27.168C103.238 27.1023 103.31 27.0111 103.346 26.8987ZM102.714 25.3827C102.54 25.3827 102.396 25.4421 102.277 25.5608C102.163 25.6796 102.095 25.8322 102.082 26.0167H103.333C103.325 25.828 103.261 25.6753 103.149 25.5566C103.039 25.44 102.894 25.3827 102.714 25.3827Z" fill="#F9F9F9"/>
<path d="M104.799 27.7985V24.8513H105.575V25.3814H105.592C105.643 25.1948 105.73 25.0527 105.851 24.9531C105.97 24.8534 106.12 24.8047 106.294 24.8047C106.377 24.8047 106.453 24.8153 106.521 24.8344V25.5404C106.445 25.5086 106.349 25.4938 106.23 25.4938C106.033 25.4938 105.879 25.551 105.768 25.6676C105.658 25.7821 105.603 25.9433 105.603 26.1511V27.7985H104.799Z" fill="#F9F9F9"/>
<path d="M109.081 26.8987H109.819C109.774 27.1871 109.63 27.4224 109.384 27.5984C109.138 27.7744 108.835 27.8634 108.472 27.8634C108.019 27.8634 107.665 27.7278 107.406 27.4564C107.149 27.185 107.02 26.8139 107.02 26.339C107.02 25.8683 107.149 25.493 107.406 25.211C107.662 24.929 108.008 24.7891 108.443 24.7891C108.869 24.7891 109.21 24.9226 109.463 25.1898C109.715 25.4569 109.844 25.8153 109.844 26.2648V26.5086H107.811V26.5574C107.811 26.7694 107.872 26.939 107.997 27.0705C108.123 27.2019 108.284 27.2677 108.489 27.2677C108.636 27.2677 108.763 27.2337 108.869 27.168C108.975 27.1023 109.045 27.0111 109.081 26.8987ZM108.451 25.3827C108.277 25.3827 108.133 25.4421 108.014 25.5608C107.9 25.6796 107.832 25.8322 107.819 26.0167H109.07C109.062 25.828 108.998 25.6753 108.886 25.5566C108.773 25.44 108.629 25.3827 108.451 25.3827Z" fill="#F9F9F9"/>
<path d="M112.657 24.4037C112.575 24.4842 112.473 24.5245 112.352 24.5245C112.231 24.5245 112.129 24.4842 112.047 24.4037C111.964 24.3231 111.924 24.2256 111.924 24.1089C111.924 23.9923 111.964 23.8927 112.047 23.8121C112.129 23.7336 112.231 23.6934 112.352 23.6934C112.473 23.6934 112.575 23.7336 112.657 23.8121C112.74 23.8927 112.78 23.9902 112.78 24.1089C112.78 24.2256 112.74 24.3231 112.657 24.4037ZM111.951 27.7982V24.851H112.755V27.8003H111.951V27.7982Z" fill="#7D40FF"/>
<path d="M113.567 27.799V24.8518H114.343V25.3861H114.36C114.421 25.2059 114.527 25.0639 114.678 24.9578C114.826 24.8518 115.002 24.7988 115.202 24.7988C115.414 24.7988 115.592 24.8518 115.734 24.9578C115.876 25.0639 115.973 25.2123 116.022 25.4052H116.039C116.105 25.2208 116.221 25.0745 116.385 24.9642C116.548 24.8561 116.739 24.801 116.953 24.801C117.241 24.801 117.477 24.8921 117.653 25.0723C117.829 25.2547 117.92 25.4943 117.92 25.7911V27.8032H117.116V25.9904C117.116 25.8187 117.076 25.6893 116.993 25.5982C116.911 25.507 116.792 25.4625 116.635 25.4625C116.484 25.4625 116.361 25.5134 116.268 25.613C116.177 25.7148 116.13 25.8462 116.13 26.0116V27.8011H115.356V25.9629C115.356 25.806 115.316 25.6809 115.229 25.5939C115.144 25.5049 115.028 25.4604 114.879 25.4604C114.725 25.4604 114.604 25.5134 114.508 25.6172C114.415 25.7211 114.368 25.8568 114.368 26.0222V27.8032H113.567V27.799Z" fill="#7D40FF"/>
<path d="M119.585 27.8465C119.3 27.8465 119.063 27.7617 118.879 27.5963C118.69 27.4288 118.599 27.2146 118.599 26.9517C118.599 26.6846 118.698 26.4747 118.895 26.322C119.093 26.1694 119.377 26.0824 119.746 26.0612L120.49 26.0167V25.8216C120.49 25.6859 120.445 25.5799 120.356 25.5036C120.267 25.4273 120.146 25.387 119.994 25.387C119.847 25.387 119.727 25.4209 119.635 25.4866C119.544 25.5524 119.487 25.6414 119.466 25.7538H118.732C118.749 25.4633 118.872 25.2301 119.103 25.0541C119.334 24.8781 119.644 24.7891 120.03 24.7891C120.407 24.7891 120.708 24.8781 120.937 25.0583C121.164 25.2364 121.279 25.476 121.279 25.7729V27.7998H120.503V27.3482H120.486C120.405 27.503 120.282 27.6239 120.117 27.7129C119.949 27.802 119.773 27.8465 119.585 27.8465ZM119.85 27.2677C120.026 27.2677 120.178 27.2168 120.301 27.1129C120.424 27.009 120.488 26.8796 120.488 26.7206V26.5065L119.867 26.5446C119.718 26.5552 119.599 26.5934 119.521 26.657C119.438 26.7206 119.398 26.8054 119.398 26.9093C119.398 27.0196 119.438 27.1065 119.521 27.1701C119.602 27.2337 119.712 27.2677 119.85 27.2677Z" fill="#7D40FF"/>
<path d="M123.423 28.91C123.039 28.91 122.725 28.8252 122.477 28.6577C122.231 28.4902 122.091 28.2739 122.06 28.0068H122.844C122.876 28.1107 122.948 28.1934 123.056 28.2549C123.166 28.3185 123.296 28.3503 123.446 28.3503C123.648 28.3503 123.807 28.2994 123.921 28.1934C124.034 28.0895 124.091 27.9517 124.091 27.7778V27.2605H124.074C124.006 27.4195 123.887 27.5467 123.724 27.6442C123.561 27.7396 123.372 27.7884 123.162 27.7884C122.8 27.7884 122.511 27.6569 122.293 27.3919C122.074 27.129 121.966 26.7686 121.966 26.3106C121.966 25.842 122.074 25.4731 122.293 25.2038C122.509 24.9345 122.802 24.7988 123.177 24.7988C123.387 24.7988 123.571 24.8497 123.73 24.9494C123.892 25.0511 124.01 25.1868 124.089 25.3586H124.101V24.8518H124.892V27.7587C124.892 28.1086 124.759 28.3884 124.492 28.5983C124.224 28.8061 123.866 28.91 123.423 28.91ZM123.438 27.1735C123.639 27.1735 123.8 27.0972 123.917 26.9467C124.036 26.7961 124.093 26.5862 124.093 26.3212C124.093 26.054 124.034 25.842 123.917 25.6851C123.798 25.5282 123.637 25.4476 123.438 25.4476C123.241 25.4476 123.082 25.5261 122.967 25.683C122.85 25.8399 122.791 26.0519 122.791 26.3191C122.791 26.5862 122.85 26.7961 122.965 26.9467C123.079 27.0972 123.238 27.1735 123.438 27.1735Z" fill="#7D40FF"/>
<path d="M126.426 24.4037C126.344 24.4842 126.242 24.5245 126.121 24.5245C126 24.5245 125.899 24.4842 125.816 24.4037C125.733 24.3231 125.693 24.2256 125.693 24.1089C125.693 23.9923 125.733 23.8927 125.816 23.8121C125.899 23.7336 126 23.6934 126.121 23.6934C126.242 23.6934 126.344 23.7336 126.426 23.8121C126.509 23.8927 126.549 23.9902 126.549 24.1089C126.552 24.2256 126.509 24.3231 126.426 24.4037ZM125.72 27.7982V24.851H126.524V27.8003H125.72V27.7982Z" fill="#7D40FF"/>
<path d="M127.336 27.7972V24.8501H128.112V25.3759H128.129C128.209 25.1893 128.326 25.0451 128.483 24.9433C128.638 24.8437 128.826 24.7949 129.049 24.7949C129.378 24.7949 129.628 24.8925 129.806 25.0854C129.982 25.2783 130.073 25.5497 130.073 25.8975V27.7972H129.27V26.065C129.27 25.872 129.223 25.7215 129.132 25.6155C129.041 25.5116 128.907 25.4586 128.727 25.4586C128.551 25.4586 128.409 25.5179 128.301 25.6367C128.193 25.7554 128.14 25.9102 128.14 26.1031V27.7951H127.336V27.7972Z" fill="#7D40FF"/>
<path d="M131.736 27.8465C131.452 27.8465 131.214 27.7617 131.03 27.5963C130.841 27.4288 130.75 27.2146 130.75 26.9517C130.75 26.6846 130.85 26.4747 131.047 26.322C131.244 26.1694 131.528 26.0824 131.897 26.0612L132.641 26.0167V25.8216C132.641 25.6859 132.597 25.5799 132.508 25.5036C132.419 25.4273 132.298 25.387 132.145 25.387C131.999 25.387 131.878 25.4209 131.787 25.4866C131.696 25.5524 131.638 25.6414 131.617 25.7538H130.884C130.901 25.4633 131.024 25.2301 131.255 25.0541C131.486 24.8781 131.795 24.7891 132.181 24.7891C132.559 24.7891 132.86 24.8781 133.089 25.0583C133.316 25.2364 133.43 25.476 133.43 25.7729V27.7998H132.654V27.3482H132.637C132.556 27.503 132.434 27.6239 132.268 27.7129C132.103 27.802 131.925 27.8465 131.736 27.8465ZM132.001 27.2677C132.177 27.2677 132.33 27.2168 132.453 27.1129C132.576 27.009 132.639 26.8796 132.639 26.7206V26.5065L132.018 26.5446C131.87 26.5552 131.751 26.5934 131.672 26.657C131.59 26.7206 131.549 26.8054 131.549 26.9093C131.549 27.0196 131.59 27.1065 131.672 27.1701C131.753 27.2337 131.863 27.2677 132.001 27.2677Z" fill="#7D40FF"/>
<path d="M134.442 24.1738H135.245V24.8523H135.792V25.4566H135.245V26.8687C135.245 27.0892 135.362 27.2016 135.591 27.2016C135.667 27.2016 135.731 27.1973 135.786 27.1889V27.7804C135.695 27.8016 135.565 27.8143 135.404 27.8143C135.059 27.8143 134.811 27.7507 134.662 27.6278C134.514 27.5027 134.44 27.297 134.44 27.0086V25.4608H134.024V24.8544H134.44V24.1738H134.442Z" fill="#7D40FF"/>
<path d="M137.234 24.4037C137.151 24.4842 137.049 24.5245 136.928 24.5245C136.807 24.5245 136.706 24.4842 136.623 24.4037C136.54 24.3231 136.5 24.2256 136.5 24.1089C136.5 23.9923 136.54 23.8927 136.623 23.8121C136.706 23.7336 136.807 23.6934 136.928 23.6934C137.049 23.6934 137.151 23.7336 137.234 23.8121C137.316 23.8927 137.357 23.9902 137.357 24.1089C137.359 24.2256 137.316 24.3231 137.234 24.4037ZM136.528 27.7982V24.851H137.331V27.8003H136.528V27.7982Z" fill="#7D40FF"/>
<path d="M140.566 27.4542C140.305 27.7256 139.949 27.8634 139.499 27.8634C139.052 27.8634 138.696 27.7278 138.433 27.4542C138.172 27.1807 138.041 26.8054 138.041 26.3241C138.041 25.8492 138.174 25.4739 138.437 25.2004C138.704 24.9269 139.056 24.7891 139.499 24.7891C139.947 24.7891 140.301 24.9248 140.564 25.2004C140.827 25.4739 140.96 25.8492 140.96 26.3241C140.96 26.8054 140.829 27.1828 140.566 27.4542ZM139.499 27.2507C139.699 27.2507 139.855 27.1701 139.97 27.009C140.087 26.8478 140.144 26.621 140.144 26.3263C140.144 26.0379 140.087 25.811 139.97 25.6478C139.855 25.4845 139.699 25.4039 139.499 25.4039C139.302 25.4039 139.145 25.4845 139.029 25.6478C138.912 25.811 138.855 26.0379 138.855 26.3263C138.855 26.621 138.912 26.8478 139.026 27.009C139.143 27.1701 139.298 27.2507 139.499 27.2507Z" fill="#7D40FF"/>
<path d="M141.647 27.7972V24.8501H142.423V25.3759H142.44C142.521 25.1893 142.638 25.0451 142.795 24.9433C142.949 24.8437 143.138 24.7949 143.361 24.7949C143.689 24.7949 143.939 24.8925 144.118 25.0854C144.294 25.2783 144.385 25.5497 144.385 25.8975V27.7972H143.581V26.065C143.581 25.872 143.534 25.7215 143.443 25.6155C143.352 25.5116 143.219 25.4586 143.038 25.4586C142.862 25.4586 142.72 25.5179 142.612 25.6367C142.504 25.7554 142.451 25.9102 142.451 26.1031V27.7951H141.647V27.7972Z" fill="#7D40FF"/>
<path d="M146.575 27.799V24.8518H147.351V25.3861H147.368C147.429 25.2059 147.535 25.0639 147.686 24.9578C147.834 24.8518 148.01 24.7988 148.209 24.7988C148.421 24.7988 148.6 24.8518 148.742 24.9578C148.884 25.0639 148.981 25.2123 149.03 25.4052H149.047C149.113 25.2208 149.229 25.0745 149.393 24.9642C149.556 24.8561 149.747 24.801 149.961 24.801C150.249 24.801 150.484 24.8921 150.66 25.0723C150.836 25.2547 150.928 25.4943 150.928 25.7911V27.8032H150.124V25.9904C150.124 25.8187 150.084 25.6893 150.001 25.5982C149.918 25.507 149.8 25.4625 149.643 25.4625C149.492 25.4625 149.369 25.5134 149.276 25.613C149.185 25.7148 149.138 25.8462 149.138 26.0116V27.8011H148.364V25.9629C148.364 25.806 148.324 25.6809 148.237 25.5939C148.152 25.5049 148.036 25.4604 147.887 25.4604C147.732 25.4604 147.612 25.5134 147.516 25.6172C147.423 25.7211 147.376 25.8568 147.376 26.0222V27.8032H146.575V27.799Z" fill="#F9F9F9"/>
<path d="M153.672 26.8987H154.41C154.366 27.1871 154.221 27.4224 153.975 27.5984C153.729 27.7744 153.426 27.8634 153.064 27.8634C152.61 27.8634 152.256 27.7278 151.997 27.4564C151.741 27.185 151.611 26.8139 151.611 26.339C151.611 25.8683 151.741 25.493 151.997 25.211C152.254 24.929 152.599 24.7891 153.034 24.7891C153.46 24.7891 153.802 24.9226 154.054 25.1898C154.306 25.4569 154.436 25.8153 154.436 26.2648V26.5086H152.402V26.5574C152.402 26.7694 152.464 26.939 152.589 27.0705C152.714 27.2019 152.875 27.2677 153.081 27.2677C153.227 27.2677 153.354 27.2337 153.46 27.168C153.564 27.1023 153.634 27.0111 153.672 26.8987ZM153.04 25.3827C152.867 25.3827 152.722 25.4421 152.604 25.5608C152.489 25.6796 152.421 25.8322 152.409 26.0167H153.66C153.651 25.828 153.587 25.6753 153.475 25.5566C153.363 25.44 153.218 25.3827 153.04 25.3827Z" fill="#F9F9F9"/>
<path d="M157.084 26.8987H157.822C157.777 27.1871 157.633 27.4224 157.387 27.5984C157.141 27.7744 156.838 27.8634 156.475 27.8634C156.022 27.8634 155.668 27.7278 155.409 27.4564C155.152 27.185 155.023 26.8139 155.023 26.339C155.023 25.8683 155.152 25.493 155.409 25.211C155.665 24.929 156.011 24.7891 156.446 24.7891C156.872 24.7891 157.213 24.9226 157.466 25.1898C157.718 25.4569 157.847 25.8153 157.847 26.2648V26.5086H155.814V26.5574C155.814 26.7694 155.875 26.939 156 27.0705C156.125 27.2019 156.287 27.2677 156.492 27.2677C156.639 27.2677 156.766 27.2337 156.872 27.168C156.976 27.1023 157.048 27.0111 157.084 26.8987ZM156.454 25.3827C156.28 25.3827 156.136 25.4421 156.017 25.5608C155.903 25.6796 155.835 25.8322 155.822 26.0167H157.073C157.065 25.828 157.001 25.6753 156.889 25.5566C156.776 25.44 156.632 25.3827 156.454 25.3827Z" fill="#F9F9F9"/>
<path d="M158.75 24.1738H159.554V24.8523H160.101V25.4566H159.554V26.8687C159.554 27.0892 159.67 27.2016 159.899 27.2016C159.976 27.2016 160.039 27.1973 160.094 27.1889V27.7804C160.003 27.8016 159.874 27.8143 159.713 27.8143C159.367 27.8143 159.119 27.7507 158.971 27.6278C158.822 27.5027 158.748 27.297 158.748 27.0086V25.4608H158.333V24.8544H158.748V24.1738H158.75Z" fill="#F9F9F9"/>
<path d="M160.773 25.716C160.773 25.434 160.885 25.2092 161.112 25.0396C161.337 24.87 161.638 24.7852 162.018 24.7852C162.387 24.7852 162.683 24.8721 162.906 25.0438C163.129 25.2156 163.243 25.4446 163.25 25.7308H162.507C162.499 25.6121 162.45 25.5188 162.361 25.4509C162.274 25.3831 162.156 25.3491 162.005 25.3491C161.865 25.3491 161.755 25.3788 161.672 25.4361C161.587 25.4954 161.545 25.5718 161.545 25.6672C161.545 25.8092 161.674 25.911 161.931 25.9725L162.493 26.0934C162.789 26.1591 163.002 26.2545 163.131 26.3817C163.26 26.5068 163.324 26.6807 163.324 26.8991C163.324 27.1895 163.205 27.4228 162.961 27.5988C162.72 27.7747 162.404 27.8617 162.013 27.8617C161.623 27.8617 161.314 27.7747 161.078 27.603C160.847 27.4312 160.72 27.198 160.697 26.9054H161.479C161.5 27.0305 161.558 27.1259 161.651 27.1938C161.744 27.2616 161.874 27.2956 162.033 27.2956C162.187 27.2956 162.306 27.2659 162.393 27.2107C162.48 27.1535 162.524 27.0772 162.524 26.9818C162.524 26.9054 162.497 26.8461 162.442 26.8015C162.387 26.7549 162.293 26.7167 162.16 26.687L161.615 26.5662C161.055 26.4411 160.773 26.157 160.773 25.716Z" fill="#F9F9F9"/>
<path d="M168.079 25.9471H167.333C167.309 25.788 167.248 25.6587 167.144 25.5612C167.042 25.4658 166.913 25.4149 166.75 25.4149C166.55 25.4149 166.393 25.4954 166.279 25.6566C166.164 25.8177 166.107 26.0382 166.107 26.3202C166.107 26.6086 166.164 26.8312 166.279 26.9923C166.393 27.1514 166.552 27.2319 166.752 27.2319C166.913 27.2319 167.042 27.1874 167.144 27.0963C167.246 27.0051 167.307 26.88 167.333 26.7167H168.081C168.06 27.0666 167.931 27.3443 167.689 27.55C167.445 27.7578 167.131 27.8617 166.745 27.8617C166.298 27.8617 165.944 27.726 165.683 27.4503C165.424 27.1768 165.293 26.7994 165.293 26.3202C165.293 25.8495 165.424 25.4764 165.685 25.1986C165.946 24.923 166.298 24.7852 166.739 24.7852C167.131 24.7852 167.449 24.8933 167.689 25.1096C167.933 25.3279 168.06 25.6057 168.079 25.9471Z" fill="#F9F9F9"/>
<path d="M168.751 27.7985V24.8513H169.527V25.3814H169.544C169.595 25.1948 169.682 25.0527 169.803 24.9531C169.921 24.8534 170.072 24.8047 170.246 24.8047C170.328 24.8047 170.405 24.8153 170.473 24.8344V25.5404C170.396 25.5086 170.301 25.4938 170.182 25.4938C169.985 25.4938 169.83 25.551 169.72 25.6676C169.61 25.7821 169.555 25.9433 169.555 26.1511V27.7985H168.751Z" fill="#F9F9F9"/>
<path d="M173.037 26.8987H173.775C173.731 27.1871 173.587 27.4224 173.341 27.5984C173.095 27.7744 172.792 27.8634 172.429 27.8634C171.975 27.8634 171.621 27.7278 171.362 27.4564C171.106 27.185 170.977 26.8139 170.977 26.339C170.977 25.8683 171.106 25.493 171.362 25.211C171.619 24.929 171.965 24.7891 172.399 24.7891C172.825 24.7891 173.167 24.9226 173.419 25.1898C173.671 25.4569 173.801 25.8153 173.801 26.2648V26.5086H171.767V26.5574C171.767 26.7694 171.829 26.939 171.954 27.0705C172.079 27.2019 172.24 27.2677 172.446 27.2677C172.592 27.2677 172.719 27.2337 172.825 27.168C172.929 27.1023 173.001 27.0111 173.037 26.8987ZM172.406 25.3827C172.232 25.3827 172.088 25.4421 171.969 25.5608C171.854 25.6796 171.787 25.8322 171.774 26.0167H173.025C173.016 25.828 172.953 25.6753 172.84 25.5566C172.73 25.44 172.586 25.3827 172.406 25.3827Z" fill="#F9F9F9"/>
<path d="M175.364 27.8465C175.08 27.8465 174.843 27.7617 174.658 27.5963C174.47 27.4288 174.378 27.2146 174.378 26.9517C174.378 26.6846 174.478 26.4747 174.675 26.322C174.872 26.1694 175.157 26.0824 175.525 26.0612L176.27 26.0167V25.8216C176.27 25.6859 176.225 25.5799 176.136 25.5036C176.047 25.4273 175.926 25.387 175.774 25.387C175.627 25.387 175.506 25.4209 175.415 25.4866C175.324 25.5524 175.267 25.6414 175.246 25.7538H174.512C174.529 25.4633 174.652 25.2301 174.883 25.0541C175.114 24.8781 175.424 24.7891 175.81 24.7891C176.187 24.7891 176.488 24.8781 176.717 25.0583C176.944 25.2364 177.058 25.476 177.058 25.7729V27.7998H176.282V27.3482H176.265C176.185 27.503 176.062 27.6239 175.897 27.7129C175.729 27.802 175.553 27.8465 175.364 27.8465ZM175.629 27.2677C175.805 27.2677 175.958 27.2168 176.081 27.1129C176.204 27.009 176.268 26.8796 176.268 26.7206V26.5065L175.646 26.5446C175.498 26.5552 175.379 26.5934 175.301 26.657C175.218 26.7206 175.178 26.8054 175.178 26.9093C175.178 27.0196 175.218 27.1065 175.301 27.1701C175.383 27.2337 175.492 27.2677 175.629 27.2677Z" fill="#F9F9F9"/>
<path d="M178.071 24.1738H178.874V24.8523H179.421V25.4566H178.874V26.8687C178.874 27.0892 178.991 27.2016 179.22 27.2016C179.296 27.2016 179.36 27.1973 179.415 27.1889V27.7804C179.324 27.8016 179.194 27.8143 179.033 27.8143C178.688 27.8143 178.439 27.7507 178.291 27.6278C178.143 27.5027 178.068 27.297 178.068 27.0086V25.4608H177.653V24.8544H178.068V24.1738H178.071Z" fill="#F9F9F9"/>
<path d="M180.865 24.4037C180.782 24.4842 180.681 24.5245 180.56 24.5245C180.439 24.5245 180.337 24.4842 180.254 24.4037C180.172 24.3231 180.131 24.2256 180.131 24.1089C180.131 23.9923 180.172 23.8927 180.254 23.8121C180.337 23.7336 180.439 23.6934 180.56 23.6934C180.681 23.6934 180.782 23.7336 180.865 23.8121C180.948 23.8927 180.988 23.9902 180.988 24.1089C180.988 24.2256 180.948 24.3231 180.865 24.4037ZM180.157 27.7982V24.851H180.96V27.8003H180.157V27.7982Z" fill="#F9F9F9"/>
<path d="M184.191 27.4542C183.93 27.7256 183.574 27.8634 183.125 27.8634C182.677 27.8634 182.321 27.7278 182.058 27.4542C181.797 27.1807 181.666 26.8054 181.666 26.3241C181.666 25.8492 181.8 25.4739 182.063 25.2004C182.33 24.9269 182.682 24.7891 183.125 24.7891C183.572 24.7891 183.926 24.9248 184.189 25.2004C184.452 25.4739 184.586 25.8492 184.586 26.3241C184.586 26.8054 184.454 27.1828 184.191 27.4542ZM183.123 27.2507C183.322 27.2507 183.479 27.1701 183.593 27.009C183.71 26.8478 183.767 26.621 183.767 26.3263C183.767 26.0379 183.71 25.811 183.593 25.6478C183.479 25.4845 183.322 25.4039 183.123 25.4039C182.925 25.4039 182.769 25.4845 182.652 25.6478C182.535 25.811 182.478 26.0379 182.478 26.3263C182.478 26.621 182.535 26.8478 182.65 27.009C182.766 27.1701 182.923 27.2507 183.123 27.2507Z" fill="#F9F9F9"/>
<path d="M185.28 27.7972V24.8501H186.056V25.3759H186.073C186.154 25.1893 186.27 25.0451 186.427 24.9433C186.582 24.8437 186.771 24.7949 186.993 24.7949C187.322 24.7949 187.572 24.8925 187.75 25.0854C187.926 25.2783 188.018 25.5497 188.018 25.8975V27.7972H187.214V26.065C187.214 25.872 187.167 25.7215 187.076 25.6155C186.985 25.5116 186.851 25.4586 186.671 25.4586C186.495 25.4586 186.353 25.5179 186.245 25.6367C186.137 25.7554 186.084 25.9102 186.084 26.1031V27.7951H185.28V27.7972Z" fill="#F9F9F9"/>
<path d="M0 22.159V3.98828H5.09712V22.159H0Z" fill="#7D40FF"/>
<path d="M0 3.0057V0.00976562H5.09712V3.0057H0Z" fill="#F9F9F9"/>
<path d="M68.3721 26.1025V23.1426H73.4692V26.1025H68.3721Z" fill="#F9F9F9"/>
<path d="M6.99365 22.159V3.98828H13.8803L16.5942 11.1484L17.7604 15.8406H18.1123L19.3591 11.1484L21.774 3.98828H28.6607V22.159H23.5635V19.4302C23.5635 16.8201 23.6632 14.2122 23.8625 11.6106H23.5105L22.3974 15.7876L20.9323 20.2635H14.722L13.2569 15.7876L12.1205 11.6106H11.7643C11.9826 14.2122 12.0908 16.8223 12.0908 19.4344V22.1611H6.99365V22.159Z" fill="#7D40FF"/>
<path d="M29.3252 22.159L35.6457 3.98828H43.0497L49.3405 22.159H43.7536L42.6405 18.6605H35.7538L34.5856 22.159H29.3252ZM37.219 14.2122H41.2051L40.8807 13.1542L39.441 8.40904H39.0615L37.573 13.1542L37.219 14.2122Z" fill="#7D40FF"/>
<path d="M48.8804 13.0677C48.8804 7.4002 52.1901 3.71094 58.2626 3.71094C63.93 3.71094 66.6694 6.53089 66.6694 10.7905V10.9813H61.2182V10.8986C61.2182 9.24484 60.5143 8.67448 57.9085 8.67448C55.2263 8.67448 54.357 9.40597 54.357 13.0677C54.357 17.1068 55.3323 17.7323 58.3707 17.7323C60.9998 17.7323 61.6804 17.2976 61.761 16.1866H57.4759V12.3616H66.697V22.153H61.9221V19.6044H61.6783C61.1355 20.9339 59.9948 22.4244 56.6618 22.4244C51.5392 22.4244 48.8804 18.926 48.8804 13.0677Z" fill="#7D40FF"/>
<path d="M68.3721 22.159V3.98828H73.8233L78.8928 12.1513L80.0865 14.3755H80.4385C80.3791 13.8899 80.3198 13.4065 80.2604 12.921C80.1205 11.7654 80.1671 10.5908 80.1671 9.42889C80.1671 8.44932 80.1671 7.46764 80.1671 6.48808C80.1671 5.65481 80.1671 4.82155 80.1671 3.98828H85.2388V22.159H79.813L75.0149 14.5917L73.5498 12.0135H73.1978C73.2572 12.5838 73.3186 13.1542 73.378 13.7245C73.4798 14.6999 73.4692 15.6731 73.4692 16.6526C73.4692 17.5241 73.4692 18.3934 73.4692 19.2648C73.4692 20.0026 73.4692 20.7405 73.4692 21.4762C73.4692 21.7031 73.4692 21.9321 73.4692 22.159H68.3721Z" fill="#7D40FF"/>
<path d="M93.0205 22.159V3.98828H99.9071L102.621 11.1484L103.787 15.8406H104.139L105.386 11.1484L107.801 3.98828H114.688V22.159H109.59V19.4302C109.59 16.8201 109.69 14.2122 109.889 11.6106H109.537L108.424 15.7876L106.959 20.2635H100.749L99.2838 15.7876L98.1431 11.6106H97.7911C98.0095 14.2122 98.1176 16.8223 98.1176 19.4344V22.1611H93.0205V22.159Z" fill="#F9F9F9"/>
<path d="M115.354 22.159L121.674 3.98828H129.078L135.369 22.159H129.782L128.669 18.6605H121.782L120.614 22.159H115.354ZM123.247 14.2122H127.233L126.909 13.1542L125.469 8.40904H125.09L123.601 13.1542L123.247 14.2122Z" fill="#F9F9F9"/>
<path d="M136.037 22.159V3.98828H141.134V10.7413H144.444L148.021 3.98828H153.799L148.672 12.9931L153.688 22.159H147.83L144.495 15.7028H141.132V22.159H136.037Z" fill="#F9F9F9"/>
<path d="M154.47 22.159V3.98828H169.14V8.57018H159.567V10.7668H168.731V15.3253H159.567V17.575H169.14V22.159H154.47Z" fill="#F9F9F9"/>
<path d="M170.815 22.159V3.98828H179.955C184.535 3.98828 186.708 5.94105 186.708 9.57307C186.708 12.4503 185.595 14.2377 182.529 14.5917V14.8356C184.374 15.3253 185.108 16.4894 185.812 18.035L187.713 22.159H181.77L179.979 18.3891C179.222 16.8159 178.866 16.3537 177.159 16.3537H175.912V22.1568H170.815V22.159ZM175.912 12.1259H179.765C181.202 12.1259 181.605 11.7188 181.605 10.2812C181.605 8.95183 181.2 8.5723 179.765 8.5723H175.912V12.1259Z" fill="#F9F9F9"/>
<path d="M190.098 22.1572C190.971 22.1572 191.678 21.45 191.678 20.5776C191.678 19.7053 190.971 18.998 190.098 18.998C189.226 18.998 188.519 19.7053 188.519 20.5776C188.519 21.45 189.226 22.1572 190.098 22.1572Z" fill="#7D40FF"/>
</svg>
