<svg width="198" height="7" viewBox="0 0 198 7" fill="none" xmlns="http://www.w3.org/2000/svg">
<rect y="3" width="183" height="2" fill="#F9F9F9"/>
<path d="M188.343 5.90973L191.675 7L197.991 4.31013L197.991 4.30068L192.566 4.29753C192.52 4.43238 192.443 4.55893 192.335 4.66658C191.958 5.04394 191.347 5.04394 190.969 4.66658C190.592 4.28923 190.592 3.67767 190.969 3.30031C191.347 2.92296 191.958 2.92296 192.335 3.30031C192.445 3.40968 192.522 3.53909 192.568 3.67652L198 3.66393L198 3.66221L191.655 0.97262L188.329 2.07033L188.343 5.90973Z" fill="#F9F9F9"/>
<path d="M191.25 3.79462C191.404 3.64087 191.653 3.64087 191.807 3.79462C191.961 3.94836 191.961 4.19774 191.807 4.35149C191.653 4.50523 191.404 4.50523 191.25 4.35149C191.096 4.19774 191.096 3.94836 191.25 3.79462Z" fill="#F9F9F9"/>
<path d="M185.355 1.76234L187.385 1.76234C187.582 1.76234 187.741 1.92152 187.741 2.11765L187.741 5.84196C187.741 6.03836 187.581 6.19727 187.385 6.19727L185.355 6.19727C185.159 6.19727 185 6.03808 185 5.84196L185 2.11765C185 1.92153 185.159 1.76234 185.355 1.76234Z" fill="#F9F9F9"/>
</svg>
