<svg width="25" height="25" viewBox="0 0 25 25" fill="none" xmlns="http://www.w3.org/2000/svg">
<g filter="url(#filter0_i_3172_139)">
<path d="M16.2581 0.583156C16.3917 0.40872 16.6704 0.498977 16.6764 0.718642L16.9373 10.269C16.9392 10.3393 16.9727 10.405 17.0286 10.4478L24.6126 16.2582C24.787 16.3919 24.6968 16.6705 24.4771 16.6765L14.9267 16.9374C14.8564 16.9393 14.7907 16.9729 14.7479 17.0287L8.93753 24.6127C8.80388 24.7872 8.52521 24.6969 8.51921 24.4772L8.25833 14.9269C8.25641 14.8565 8.22286 14.7908 8.16702 14.7481L0.58302 8.93766C0.408583 8.80402 0.49884 8.52535 0.718505 8.51935L10.2689 8.25847C10.3392 8.25654 10.4049 8.223 10.4477 8.16716L16.2581 0.583156Z" fill="url(#paint0_linear_3172_139)"/>
</g>
<defs>
<filter id="filter0_i_3172_139" x="-0.0136691" y="0.492188" width="24.7183" height="24.2129" filterUnits="userSpaceOnUse" color-interpolation-filters="sRGB">
<feFlood flood-opacity="0" result="BackgroundImageFix"/>
<feBlend mode="normal" in="SourceGraphic" in2="BackgroundImageFix" result="shape"/>
<feColorMatrix in="SourceAlpha" type="matrix" values="0 0 0 0 0 0 0 0 0 0 0 0 0 0 0 0 0 0 127 0" result="hardAlpha"/>
<feOffset dx="-0.841467"/>
<feGaussianBlur stdDeviation="0.25244"/>
<feComposite in2="hardAlpha" operator="arithmetic" k2="-1" k3="1"/>
<feColorMatrix type="matrix" values="0 0 0 0 1 0 0 0 0 1 0 0 0 0 1 0 0 0 0.11 0"/>
<feBlend mode="normal" in2="shape" result="effect1_innerShadow_3172_139"/>
</filter>
<linearGradient id="paint0_linear_3172_139" x1="15" y1="15.5" x2="-2.89011" y2="16.9441" gradientUnits="userSpaceOnUse">
<stop stop-color="#7D40FF"/>
<stop offset="1" stop-color="#6F00FF"/>
</linearGradient>
</defs>
</svg>
