<svg width="153" height="107" viewBox="0 0 153 107" fill="none" xmlns="http://www.w3.org/2000/svg">
<mask id="mask0_3172_355" style="mask-type:luminance" maskUnits="userSpaceOnUse" x="0" y="0" width="153" height="107">
<path d="M152.097 0H0.607422V106.086H152.097V0Z" fill="white"/>
</mask>
<g mask="url(#mask0_3172_355)">
<path d="M127.837 74.0292C127.587 76.025 127.898 77.896 128.024 79.767C128.211 82.6983 128.46 85.6295 128.648 88.5607C128.709 89.4339 128.585 90.3071 128.522 91.3673C117.359 90.3694 106.382 91.7414 95.1559 91.9286C95.3431 92.4275 95.4678 92.7394 95.6549 92.9888C97.2137 95.6082 98.2744 98.3522 98.8357 101.346C98.9601 101.969 99.0227 102.656 98.9601 103.28C98.8983 104.215 98.2118 104.465 97.5262 103.903C97.027 103.467 96.6528 102.967 96.341 102.343C95.842 101.346 95.3431 100.348 95.0313 99.3502C93.5344 95.1093 90.9774 91.5544 87.9838 88.3737C86.6741 87.0016 85.302 85.6919 83.9299 84.3822C82.6826 83.1348 81.3105 82.0746 79.689 81.5133C78.4416 82.3864 77.2567 83.3843 75.8846 84.1326C72.6415 85.9414 69.0866 86.7521 65.4693 87.0016C55.6777 87.6253 46.0108 86.6897 36.6558 83.7585C33.4751 82.7607 30.3567 81.5133 27.2384 80.3906C26.6147 80.1412 25.9287 79.9541 25.2426 79.767C23.8081 79.4552 22.9973 78.582 22.6856 77.1476C22.249 75.1518 22.4361 73.1561 23.1845 71.2851C23.9329 69.3517 24.8684 67.4807 25.8663 65.6097C26.7394 63.9881 27.7373 62.429 28.7975 60.9322C32.789 55.2568 35.7202 49.0825 37.6536 42.4092C38.0902 40.85 38.5892 39.2284 39.1504 37.7317C39.6494 36.2972 40.2107 34.8004 40.8967 33.4283C42.8925 29.5616 45.4495 26.1314 49.6904 24.198C49.6904 23.6367 49.6904 23.1378 49.6904 22.5765C49.5657 16.5893 49.5034 10.602 49.3163 4.61479C49.2539 3.18034 49.7528 1.99537 50.5636 0.872768C51.0625 0.186731 51.6238 -0.249838 52.5594 -0.000370242C53.183 0.186731 53.8691 0.0619968 54.4927 0.124364C63.9101 0.560932 73.3275 0.748034 82.7449 0.685666C92.9731 0.623299 103.201 0.748034 113.429 0.685666C122.098 0.623299 130.768 0.436199 139.437 0.373832C141.744 0.373832 144.052 0.498566 146.297 0.810401C149.166 1.1846 151.162 2.74378 151.973 5.61266C152.097 5.98686 152.16 6.36106 152.16 6.79763C152.097 11.4128 151.973 15.9656 151.973 20.5808C151.973 22.5765 152.097 24.5722 152.034 26.5679C151.91 31.4949 151.847 36.422 151.536 41.349C151.224 45.8394 151.162 50.3298 151.286 54.8202C151.411 57.7515 151.473 60.6827 151.536 63.6764C151.599 64.7989 151.66 65.8591 151.786 66.9817C152.034 69.3517 151.91 71.6593 151.349 73.9668C151.162 74.7776 150.725 75.1519 149.727 75.1519C148.23 75.1519 146.734 75.0895 145.237 75.0271C139.499 74.6529 133.761 74.3411 127.837 74.0292ZM76.4459 61.1193C76.8824 61.1193 77.4437 61.1817 78.0051 61.1817C92.3495 61.244 106.694 61.3063 121.101 61.244C127.213 61.1817 133.324 60.8074 139.499 60.558C141.058 60.4956 142.554 60.3709 144.114 60.1838C145.486 59.9966 145.549 59.872 145.299 58.4375C145.237 58.001 145.112 57.5643 145.05 57.1278C144.613 50.7664 144.675 44.3425 145.237 37.9811C145.798 31.1831 145.798 24.4475 145.549 17.6495C145.424 14.3441 145.362 11.101 145.237 7.7955C145.237 7.48366 145.174 7.2342 145.112 6.92236C143.117 6.79763 141.183 6.61053 139.25 6.61053C131.703 6.4858 124.219 6.42343 116.673 6.36106C110.935 6.29869 105.197 6.29869 99.4596 6.36106C94.2829 6.42343 89.1064 6.79763 83.9299 6.79763C75.0738 6.86 66.1553 6.73526 57.2992 6.6729C56.7379 6.6729 56.239 6.6729 55.7401 6.6729C55.7401 12.4107 55.7401 17.9613 55.7401 23.5744C59.6691 24.198 62.1015 26.6303 63.723 29.8734C64.3467 31.0584 64.8456 32.3681 65.1575 33.6154C65.7811 36.2972 66.1553 38.979 66.6542 41.7231C66.9037 43.0328 67.1532 44.4049 67.6522 45.5899C68.9619 48.6458 71.207 51.0782 73.3275 53.6352C73.5147 53.4482 73.7017 53.3858 73.7641 53.3234C76.134 50.8287 78.3793 48.2717 80.8116 45.777C81.7471 44.8415 82.8697 44.0308 83.9299 43.22C84.3042 42.9705 84.8655 42.8457 85.302 42.721C85.1149 43.4695 84.7407 43.9684 84.3665 44.4049C82.6826 46.3383 80.9363 48.1469 79.3147 50.0803C78.0051 51.6395 76.6954 53.261 75.4481 54.8202C75.0738 55.2568 74.8867 55.6933 75.1362 56.317C75.5727 57.8138 75.947 59.373 76.4459 61.1193ZM149.478 73.1561C149.353 69.913 149.166 66.8571 149.166 63.8634C149.166 51.2653 149.228 38.6048 149.353 26.0067C149.415 20.1441 149.54 14.3441 149.665 8.48154C149.665 7.73313 149.665 6.98473 149.852 6.23633C150.226 4.86426 149.602 3.92875 148.542 3.36744C147.419 2.80614 146.172 2.30721 144.925 2.12011C142.929 1.87064 140.934 1.80827 138.937 1.80827C130.705 1.93301 122.472 2.24484 114.24 2.24484C102.578 2.30721 90.915 2.30721 79.2524 2.24484C71.8307 2.24484 64.4091 1.99537 56.9874 1.87064C55.3034 1.80827 53.6196 1.87064 51.6862 1.87064C51.5614 2.68141 51.312 3.49218 51.312 4.36532C51.4367 10.4149 51.6238 16.4021 51.8109 22.4518C51.8109 22.7636 51.9357 23.1378 51.9981 23.512C52.6217 23.4496 53.1207 23.3872 53.6819 23.3248C53.7443 22.9507 53.7443 22.6388 53.8067 22.327C53.8691 19.8947 53.9314 17.4624 53.9314 14.9678C53.9314 12.7225 53.8067 10.4773 53.6819 8.23208C53.6196 7.2342 53.8691 6.36106 54.4304 5.55029C54.8045 5.05136 55.2411 4.86426 55.8025 4.86426C59.1078 4.98899 62.4757 5.17609 65.7811 5.17609C76.4459 5.05136 87.1106 4.86426 97.7749 4.73952C103.638 4.67716 109.562 4.61479 115.425 4.61479C124.032 4.61479 132.7 4.61479 141.308 4.61479C142.742 4.61479 144.176 4.80189 145.611 5.05136C146.982 5.23846 147.108 5.48793 147.108 6.86C147.108 8.73101 147.171 10.5397 147.232 12.4107C147.358 20.8302 147.419 29.2497 147.108 37.6693C146.921 41.4113 147.108 45.1533 147.045 48.8954C146.982 52.3879 147.793 55.8805 146.921 59.3107C146.858 59.4977 146.982 59.6848 146.982 59.872C147.108 60.745 146.671 61.244 145.923 61.4311C145.237 61.6182 144.488 61.8054 143.74 61.8677C140.996 62.0548 138.252 62.1795 135.507 62.3043C129.77 62.5537 124.031 62.8656 118.294 62.8656C104.699 62.9279 91.0398 62.7408 77.4437 62.6784C76.9448 62.6784 76.4459 62.7408 76.0094 62.7408C75.3233 64.8613 75.5103 66.7323 77.0072 68.4162C77.7556 69.227 78.3169 70.1624 78.8158 71.1604C79.1901 71.8464 79.689 72.0958 80.4998 72.0335C82.1837 71.9088 83.8675 71.9712 85.5515 71.8464C99.3342 71.0356 113.18 71.2851 126.963 71.784C132.078 71.9712 137.191 72.4077 142.367 72.7195C144.8 72.969 147.108 73.0314 149.478 73.1561ZM126.589 90.1199C126.776 84.6317 125.591 79.3304 125.466 73.8422C113.616 73.2809 101.954 72.9066 90.1666 73.5927C90.3537 77.4594 90.5409 81.0767 90.6032 84.694C90.6656 86.1908 91.0398 87.4381 92.1623 88.3737C92.4119 88.5607 92.6613 88.8726 92.8484 89.1844C93.2849 89.9328 93.9086 90.0576 94.7194 90.0576C103.888 90.0576 113.055 90.0576 122.223 90.1199C123.657 90.1199 125.092 90.1199 126.589 90.1199ZM88.1086 73.5927C85.4267 73.7174 82.9321 73.8422 80.4998 73.9668C80.6244 75.8378 80.6868 77.5218 80.8116 79.3928C83.9299 80.0165 85.988 82.5112 88.6075 84.7563C88.4203 80.8896 88.2332 77.3347 88.1086 73.5927Z" fill="#F9F9F9"/>
<path d="M19.2555 80.1405C18.1952 81.3255 17.1973 82.5728 16.1371 83.6955C14.5155 85.3794 12.8317 87.0009 11.2724 88.7472C8.15411 92.1773 5.84653 96.1065 4.59919 100.659C4.28736 101.782 3.85079 102.843 3.47659 103.902C3.35186 104.214 3.28949 104.651 3.04002 104.838C2.66582 105.15 2.16689 105.462 1.79267 105.399C1.41848 105.337 0.919541 104.9 0.794807 104.463C0.607706 103.902 0.607706 103.154 0.73244 102.53C1.48084 96.917 3.72606 91.9279 7.65518 87.9364C10.0875 85.4417 12.8317 83.3212 15.5134 81.0761C16.1994 80.5148 17.135 80.1405 18.0081 79.7664C18.3199 79.6416 18.6941 79.704 19.0683 79.6416C19.1307 79.8287 19.1931 80.0158 19.2555 80.1405Z" fill="#F9F9F9"/>
<path d="M15.7632 105.151C15.2019 104.34 15.2019 103.342 15.1395 102.469C14.9525 98.7268 15.2019 95.0475 15.7632 91.3055C15.8879 90.5571 16.1374 89.7463 16.4492 89.0603C16.574 88.8109 17.0105 88.6861 17.3224 88.499C17.3848 88.8109 17.6342 89.1226 17.5719 89.3721C17.0105 94.611 16.3868 99.7875 15.7632 105.151Z" fill="#F9F9F9"/>
<path d="M80.0632 106.086C79.9385 105.774 79.8762 105.462 79.7514 105.213C78.9406 102.719 78.2546 100.161 77.3191 97.6666C76.8825 96.4191 76.1964 95.2341 75.5728 94.0492C75.3234 93.6126 74.9491 93.176 75.4481 92.7394C76.0094 92.3029 76.4459 92.7394 76.8201 93.176C77.0696 93.4879 77.2567 93.862 77.4438 94.1739C78.7535 97.2925 79.689 100.535 80.3127 103.841C80.4375 104.527 80.3127 105.275 80.3127 105.961C80.2503 106.024 80.1256 106.024 80.0632 106.086Z" fill="#F9F9F9"/>
<path d="M116.049 37.7947C118.17 38.9796 119.978 40.1022 121.787 41.0378C124.219 42.2227 126.09 43.9066 127.4 46.3389C128.959 49.2702 130.456 52.2014 131.267 55.3822C131.454 56.0682 131.516 56.6919 131.454 57.4403C128.959 52.8251 126.776 48.0229 123.533 43.7195C122.972 44.2185 122.472 44.7174 121.911 45.1539C118.981 47.5862 115.425 48.5842 111.746 49.0207C106.944 49.582 102.266 48.9583 97.7134 47.6486C95.0314 46.9002 92.4119 46.0271 89.7302 45.0916C88.7323 44.7798 87.7969 44.2808 86.9237 43.7195C86.0505 43.1582 86.1753 42.5345 87.1108 42.098C88.171 41.5991 89.2936 41.1624 90.4162 40.6635C91.227 40.2894 92.1002 39.9775 92.911 39.6033C93.597 39.2914 94.0959 38.8549 94.0335 37.9194C91.7259 36.6097 91.04 34.3021 90.4786 31.8698C89.7302 28.2525 88.9818 24.6352 88.171 20.8932C87.9839 20.8932 87.7969 20.9555 87.5473 20.8932C86.7365 20.7685 86.5495 20.3942 86.7989 19.6458C86.9861 19.1469 87.1732 18.648 87.1732 18.1491C87.0484 14.2199 89.2936 10.9145 93.0356 9.48004C94.969 8.73164 97.0271 8.60691 99.0856 8.66928C101.143 8.73164 103.264 8.98111 105.322 9.23058C107.318 9.48004 108.814 10.5403 109.563 12.3489C110.748 15.2801 112.868 17.5878 114.802 19.9577C117.796 23.5126 118.981 27.6289 118.918 32.1193C118.918 33.1171 118.668 34.115 118.419 35.0505C118.231 36.2355 117.796 37.358 116.049 37.7947ZM89.7926 23.2632C90.5409 25.5707 91.227 27.9406 92.0378 30.2483C92.5367 31.6827 93.0356 33.0547 93.6593 34.4268C94.0959 35.487 94.969 35.9861 96.154 35.9237C97.7751 35.8613 99.2726 35.487 100.769 34.801C101.081 34.6763 101.393 34.4268 101.705 34.4268C102.016 34.4268 102.453 34.5516 102.578 34.7387C102.765 34.9881 102.765 35.4247 102.578 35.6742C102.328 36.0483 102.016 36.4226 101.642 36.5473C100.519 37.0463 99.397 37.5452 98.2119 37.9194C97.401 38.1688 96.5906 38.2312 95.7798 38.356C95.2809 40.227 94.8443 40.8506 93.1604 41.5991C92.3496 41.9732 91.4765 42.2227 90.6657 42.5345C90.3539 42.6593 90.1044 42.784 89.6055 43.0334C92.0378 43.8442 94.1583 44.5927 96.3411 45.3411C99.3344 46.4013 102.453 47.2121 105.634 47.5862C108.877 47.9605 112.12 47.8358 115.301 47.025C117.67 46.4013 119.666 45.0292 121.537 43.2206C120.789 42.8464 120.228 42.5969 119.604 42.3475C117.359 41.4119 115.363 40.227 113.492 38.6054C111.434 36.8591 110.186 34.7387 110.062 31.9322C109.937 28.4396 108.814 25.1342 107.068 22.1405C105.384 19.2717 102.827 17.4007 99.3344 17.7748C96.4035 18.0867 93.4723 18.7104 90.4786 19.2717C89.9797 19.334 89.5431 19.5834 89.1066 19.833C88.9194 19.9577 88.9194 20.3319 88.7947 20.7061" fill="#F9F9F9"/>
</g>
</svg>
