<svg width="20" height="20" viewBox="0 0 20 20" fill="none" xmlns="http://www.w3.org/2000/svg">
<g filter="url(#filter0_i_3172_395)">
<path d="M10 0C4.48583 0 0 4.48583 0 10C0 15.5142 4.48583 20 10 20C15.5142 20 20 15.5142 20 10H17.75C17.75 14.2733 14.2733 17.75 10 17.75C5.72667 17.75 2.25 14.2733 2.25 10C2.25 5.72667 5.72667 2.25 10 2.25V0ZM16.1667 2.1525L9.9125 9.96167L6.99 7.56667L5.32167 9.59667L9.2725 12.8367C9.40672 12.9474 9.56164 13.0303 9.72822 13.0805C9.89481 13.1307 10.0697 13.1473 10.2428 13.1292C10.4158 13.1111 10.5835 13.0588 10.7362 12.9752C10.8888 12.8917 11.0232 12.7786 11.1317 12.6425L18.2183 3.795L16.1667 2.1525Z" fill="url(#paint0_linear_3172_395)"/>
</g>
<defs>
<filter id="filter0_i_3172_395" x="-0.4" y="0" width="20.4" height="20" filterUnits="userSpaceOnUse" color-interpolation-filters="sRGB">
<feFlood flood-opacity="0" result="BackgroundImageFix"/>
<feBlend mode="normal" in="SourceGraphic" in2="BackgroundImageFix" result="shape"/>
<feColorMatrix in="SourceAlpha" type="matrix" values="0 0 0 0 0 0 0 0 0 0 0 0 0 0 0 0 0 0 127 0" result="hardAlpha"/>
<feOffset dx="-0.4"/>
<feGaussianBlur stdDeviation="0.3"/>
<feComposite in2="hardAlpha" operator="arithmetic" k2="-1" k3="1"/>
<feColorMatrix type="matrix" values="0 0 0 0 1 0 0 0 0 1 0 0 0 0 1 0 0 0 0.11 0"/>
<feBlend mode="normal" in2="shape" result="effect1_innerShadow_3172_395"/>
</filter>
<linearGradient id="paint0_linear_3172_395" x1="17.9245" y1="1.1813" x2="-1.97262" y2="3.37274" gradientUnits="userSpaceOnUse">
<stop offset="0.0640625" stop-color="#7D40FF"/>
<stop offset="1" stop-color="#6F00FF"/>
</linearGradient>
</defs>
</svg>
