<svg width="17" height="12" viewBox="0 0 17 12" fill="none" xmlns="http://www.w3.org/2000/svg">
<path d="M10.9132 10.7593C11.483 11.2884 12.4034 11.5706 13.4552 11.5706C15.5152 11.5706 16.83 10.4771 16.83 8.78381C16.83 7.12581 15.4713 5.92641 13.5429 5.92641C13.1484 5.92641 12.7102 5.99697 12.2719 6.10281C12.0089 3.45708 13.6305 1.26995 15.8219 0.599695L15.6028 0C11.8336 1.16412 9.46688 4.12733 9.46688 7.61969C9.46688 8.74853 9.99282 9.98318 10.9132 10.7593ZM0 7.61969C0 9.5599 1.35867 11.5706 3.98836 11.5706C6.00444 11.5706 7.31932 10.4771 7.31932 8.78381C7.31932 7.12581 5.9606 5.92641 4.07601 5.92641C3.68156 5.92641 3.24328 5.99697 2.805 6.10281C2.54203 3.45708 4.16367 1.26995 6.3551 0.599695L6.0921 0C2.36672 1.16412 0 4.12733 0 7.61969Z" fill="#F2F2F2"/>
</svg>
