<svg width="192" height="27" viewBox="0 0 192 27" fill="none" xmlns="http://www.w3.org/2000/svg">
<path d="M0 22.159V3.98828H5.09712V22.159H0Z" fill="#7D40FF"/>
<path d="M0 3.0057V0.00976562H5.09712V3.0057H0Z" fill="#F9F9F9"/>
<path d="M68.3721 26.1025V23.1426H73.4692V26.1025H68.3721Z" fill="#F9F9F9"/>
<path d="M6.99365 22.159V3.98828H13.8803L16.5942 11.1484L17.7604 15.8406H18.1123L19.3591 11.1484L21.774 3.98828H28.6607V22.159H23.5635V19.4302C23.5635 16.8201 23.6632 14.2122 23.8625 11.6106H23.5105L22.3974 15.7876L20.9323 20.2635H14.722L13.2569 15.7876L12.1205 11.6106H11.7643C11.9826 14.2122 12.0908 16.8223 12.0908 19.4344V22.1611H6.99365V22.159Z" fill="#7D40FF"/>
<path d="M29.3252 22.159L35.6457 3.98828H43.0497L49.3405 22.159H43.7536L42.6405 18.6605H35.7538L34.5856 22.159H29.3252ZM37.219 14.2122H41.2051L40.8807 13.1542L39.441 8.40904H39.0615L37.573 13.1542L37.219 14.2122Z" fill="#7D40FF"/>
<path d="M48.8804 13.0677C48.8804 7.4002 52.1901 3.71094 58.2626 3.71094C63.93 3.71094 66.6694 6.53089 66.6694 10.7905V10.9813H61.2182V10.8986C61.2182 9.24484 60.5143 8.67448 57.9085 8.67448C55.2263 8.67448 54.357 9.40597 54.357 13.0677C54.357 17.1068 55.3323 17.7323 58.3707 17.7323C60.9998 17.7323 61.6804 17.2976 61.761 16.1866H57.4759V12.3616H66.697V22.153H61.9221V19.6044H61.6783C61.1355 20.9339 59.9948 22.4244 56.6618 22.4244C51.5392 22.4244 48.8804 18.926 48.8804 13.0677Z" fill="#7D40FF"/>
<path d="M68.3721 22.159V3.98828H73.8233L78.8928 12.1513L80.0865 14.3755H80.4385C80.3791 13.8899 80.3198 13.4065 80.2604 12.921C80.1205 11.7654 80.1671 10.5908 80.1671 9.42889C80.1671 8.44932 80.1671 7.46764 80.1671 6.48808C80.1671 5.65481 80.1671 4.82155 80.1671 3.98828H85.2388V22.159H79.813L75.0149 14.5917L73.5498 12.0135H73.1978C73.2572 12.5838 73.3186 13.1542 73.378 13.7245C73.4798 14.6999 73.4692 15.6731 73.4692 16.6526C73.4692 17.5241 73.4692 18.3934 73.4692 19.2648C73.4692 20.0026 73.4692 20.7405 73.4692 21.4762C73.4692 21.7031 73.4692 21.9321 73.4692 22.159H68.3721Z" fill="#7D40FF"/>
<path d="M93.0205 22.159V3.98828H99.9071L102.621 11.1484L103.787 15.8406H104.139L105.386 11.1484L107.801 3.98828H114.688V22.159H109.59V19.4302C109.59 16.8201 109.69 14.2122 109.889 11.6106H109.537L108.424 15.7876L106.959 20.2635H100.749L99.2838 15.7876L98.1431 11.6106H97.7911C98.0095 14.2122 98.1176 16.8223 98.1176 19.4344V22.1611H93.0205V22.159Z" fill="#F9F9F9"/>
<path d="M115.354 22.159L121.674 3.98828H129.078L135.369 22.159H129.782L128.669 18.6605H121.782L120.614 22.159H115.354ZM123.247 14.2122H127.233L126.909 13.1542L125.469 8.40904H125.09L123.601 13.1542L123.247 14.2122Z" fill="#F9F9F9"/>
<path d="M136.037 22.159V3.98828H141.134V10.7413H144.444L148.021 3.98828H153.799L148.672 12.9931L153.688 22.159H147.83L144.495 15.7028H141.132V22.159H136.037Z" fill="#F9F9F9"/>
<path d="M154.47 22.159V3.98828H169.14V8.57018H159.567V10.7668H168.731V15.3253H159.567V17.575H169.14V22.159H154.47Z" fill="#F9F9F9"/>
<path d="M170.815 22.159V3.98828H179.955C184.535 3.98828 186.708 5.94105 186.708 9.57307C186.708 12.4503 185.595 14.2377 182.529 14.5917V14.8356C184.374 15.3253 185.108 16.4894 185.812 18.035L187.713 22.159H181.77L179.979 18.3891C179.222 16.8159 178.866 16.3537 177.159 16.3537H175.912V22.1568H170.815V22.159ZM175.912 12.1259H179.765C181.202 12.1259 181.605 11.7188 181.605 10.2812C181.605 8.95183 181.2 8.5723 179.765 8.5723H175.912V12.1259Z" fill="#F9F9F9"/>
<path d="M190.098 22.1572C190.971 22.1572 191.678 21.45 191.678 20.5776C191.678 19.7053 190.971 18.998 190.098 18.998C189.226 18.998 188.519 19.7053 188.519 20.5776C188.519 21.45 189.226 22.1572 190.098 22.1572Z" fill="#7D40FF"/>
</svg>
