<svg width="198" height="7" viewBox="0 0 198 7" fill="none" xmlns="http://www.w3.org/2000/svg">
<rect y="2.02734" width="183" height="2" fill="#F9F9F9"/>
<path d="M188.343 4.93708L191.675 6.02734L197.991 3.33747L197.991 3.32802L192.566 3.32487C192.52 3.45972 192.443 3.58627 192.335 3.69392C191.958 4.07128 191.347 4.07128 190.969 3.69392C190.592 3.31657 190.592 2.70501 190.969 2.32766C191.347 1.9503 191.958 1.9503 192.335 2.32766C192.445 2.43703 192.522 2.56644 192.568 2.70387L198 2.69127L198 2.68955L191.655 -3.6385e-05L188.329 1.09767L188.343 4.93708Z" fill="#F9F9F9"/>
<path d="M191.25 2.82196C191.404 2.66821 191.653 2.66821 191.807 2.82196C191.96 2.97571 191.96 3.22508 191.807 3.37883C191.653 3.53258 191.404 3.53258 191.25 3.37883C191.096 3.22508 191.096 2.97571 191.25 2.82196Z" fill="#F9F9F9"/>
<path d="M185.355 0.789682L187.385 0.789682C187.582 0.789682 187.741 0.948869 187.741 1.14499L187.741 4.8693C187.741 5.06571 187.581 5.22461 187.385 5.22461L185.355 5.22461C185.159 5.22461 185 5.06542 185 4.8693L185 1.14499C185 0.948869 185.159 0.789682 185.355 0.789682Z" fill="#F9F9F9"/>
</svg>
