<svg width="20" height="14" viewBox="0 0 20 14" fill="none" xmlns="http://www.w3.org/2000/svg">
<path d="M12.9688 12.7858C13.6459 13.4146 14.7396 13.75 15.9896 13.75C18.4375 13.75 20 12.4505 20 10.4383C20 8.46799 18.3854 7.04268 16.0937 7.04268C15.625 7.04268 15.1042 7.12653 14.5833 7.2523C14.2709 4.10824 16.1979 1.50915 18.8021 0.712651L18.5417 0C14.0625 1.38338 11.25 4.90473 11.25 9.0549C11.25 10.3964 11.875 11.8636 12.9688 12.7858ZM0 9.0549C0 11.3605 1.61458 13.75 4.73959 13.75C7.1354 13.75 8.69795 12.4505 8.69795 10.4383C8.69795 8.46799 7.08331 7.04268 4.84375 7.04268C4.37501 7.04268 3.85417 7.12653 3.33333 7.2523C3.02084 4.10824 4.94792 1.50915 7.55211 0.712651L7.23958 0C2.8125 1.38338 0 4.90473 0 9.0549Z" fill="#F2F2F2"/>
</svg>
