<svg width="82" height="17" viewBox="0 0 82 17" fill="none" xmlns="http://www.w3.org/2000/svg">
<g clip-path="url(#clip0_3172_284)">
<g clip-path="url(#clip1_3172_284)">
<g clip-path="url(#clip2_3172_284)">
<mask id="mask0_3172_284" style="mask-type:luminance" maskUnits="userSpaceOnUse" x="0" y="0" width="95" height="17">
<path d="M94.9538 0.615234H0.000488281V16.2825H94.9538V0.615234Z" fill="white"/>
</mask>
<g mask="url(#mask0_3172_284)">
<path d="M87.31 0.615234H79.6663V15.9027H94.9538V8.25897C94.9538 4.03355 91.5354 0.615234 87.31 0.615234ZM2.69083 15.8869H0.0163139V6.70807L0.000488281 4.14433H2.46927V5.3629H2.4851C2.95987 4.58744 4.14678 3.79617 5.82429 3.79617C8.68871 3.79617 10.8726 5.67941 10.8726 9.44589V15.8711H8.18232V9.39841C8.18232 7.4677 7.29606 6.18583 5.42865 6.18583C3.57706 6.18583 2.69083 7.48352 2.69083 9.39841V15.8869Z" fill="white"/>
<path d="M24.6884 12.3894C23.9763 14.5892 22.014 16.2351 18.9437 16.2351C15.4938 16.2351 12.9775 13.7663 12.9775 9.96813C12.9775 6.21748 15.5888 3.79617 18.8963 3.79617C22.188 3.79617 24.5777 6.18583 24.5777 9.95228V10.6961H15.6996C15.9052 12.7693 17.1713 14.0036 19.0862 14.0036C20.6054 14.0036 21.46 13.3231 21.8082 12.3894H24.6884ZM15.6996 8.65464H21.7766C21.6183 7.15118 20.6529 5.88514 18.8172 5.88514C17.0764 5.88514 15.9369 7.18284 15.6996 8.65464ZM32.6487 16.2351C29.3886 16.2351 26.5717 14.0827 26.5717 10.0156C26.5717 5.9801 29.4836 3.79617 32.7437 3.79617C35.7188 3.79617 37.8553 5.60028 38.3459 7.95829H35.5131C35.1808 6.99293 34.2629 6.21748 32.7437 6.21748C30.7022 6.21748 29.262 7.7209 29.262 10.0156C29.262 12.3103 30.7022 13.8454 32.712 13.8454C34.3104 13.8454 35.2916 13.0066 35.5923 12.0413H38.4409C37.9503 14.3835 35.608 16.2351 32.6487 16.2351ZM46.4644 15.9818C43.7265 15.9818 41.9541 14.5734 41.9541 11.3608V6.50234H39.6119V4.16016H41.9541V0.615234H43.1727C43.9798 0.615234 44.6286 1.26408 44.6286 2.07118V4.16016H47.8887V6.50234H44.6286V11.2184C44.6286 13.1016 45.7523 13.5605 46.9708 13.5605C47.3265 13.5623 47.6814 13.5305 48.0312 13.4656V15.8078C47.6671 15.9186 47.0499 15.9818 46.4644 15.9818ZM49.9618 10.0472C49.9618 6.35991 52.2882 3.812 55.8964 3.812C57.3049 3.812 59.2039 4.63492 59.6946 5.79019H59.7104V4.17598H62.2899L62.2741 6.73972V15.9186H59.6946V14.2727H59.6787C59.1882 15.4279 57.3366 16.2509 55.8964 16.2509C52.2882 16.2351 49.9618 13.7346 49.9618 10.0472ZM59.6787 10.0472C59.6787 7.65761 58.1278 6.26496 56.1813 6.26496C54.1873 6.26496 52.6839 7.65761 52.6839 10.0472C52.6839 12.4369 54.1873 13.7821 56.1813 13.7821C58.0487 13.7821 59.6787 12.4369 59.6787 10.0472ZM71.896 6.50234C69.6646 6.50234 68.3037 7.76838 68.3037 10.158V15.8869H65.6291V6.70807L65.5975 4.14434H68.177V6.07505H68.2245C68.6676 4.76153 69.9811 3.79617 71.6587 3.79617C72.1334 3.79617 72.4183 3.84365 72.4183 3.84365V6.50234H71.896Z" fill="white"/>
</g>
</g>
</g>
</g>
<defs>
<clipPath id="clip0_3172_284">
<rect width="94.9533" height="16.8985" fill="white"/>
</clipPath>
<clipPath id="clip1_3172_284">
<rect width="94.9533" height="16.8985" fill="white"/>
</clipPath>
<clipPath id="clip2_3172_284">
<rect width="94.9533" height="16.8985" fill="white"/>
</clipPath>
</defs>
</svg>
