<svg width="115" height="25" viewBox="0 0 115 25" fill="none" xmlns="http://www.w3.org/2000/svg">
<g clip-path="url(#clip0_3172_267)">
<g clip-path="url(#clip1_3172_267)">
<g clip-path="url(#clip2_3172_267)">
<mask id="mask0_3172_267" style="mask-type:luminance" maskUnits="userSpaceOnUse" x="0" y="-1" width="114" height="26">
<path d="M113.517 -0.00390625H0.000488281V24.9414H113.517V-0.00390625Z" fill="white"/>
</mask>
<g mask="url(#mask0_3172_267)">
<path d="M8.25834 6.07796C8.25834 5.27838 8.5354 4.50349 9.04235 3.88507C9.5493 3.26663 10.2549 2.84287 11.0391 2.68584L18.3025 1.23486C18.8042 1.13474 19.3219 1.14714 19.8183 1.27117C20.3147 1.39519 20.7773 1.62774 21.173 1.95207C21.5685 2.2764 21.8873 2.68443 22.1062 3.14676C22.325 3.60908 22.4387 4.11418 22.4387 4.62569V4.66717C22.4374 5.46554 22.1597 6.23884 21.6528 6.85578C21.1458 7.47269 20.441 7.89517 19.6579 8.05149L15.3478 8.9138V11.7483C15.3478 12.5479 15.0708 13.3228 14.5638 13.9413C14.0568 14.5597 13.3512 14.9834 12.567 15.1405L3.9483 16.8637C3.16407 17.0202 2.45837 17.4437 1.95134 18.062C1.4443 18.6802 1.1673 19.4551 1.16748 20.2545V20.2895C1.16752 20.8011 1.28111 21.3064 1.50007 21.7689C1.71902 22.2313 2.03788 22.6394 2.43366 22.9637C2.82944 23.2881 3.29226 23.5206 3.78881 23.6445C4.28534 23.7684 4.80317 23.7807 5.305 23.6804L5.47619 23.6467C6.26065 23.4899 6.96655 23.0663 7.47377 22.4478C7.98102 21.8294 8.25826 21.0543 8.25834 20.2545V6.07796Z" stroke="white" stroke-width="2.33444" stroke-miterlimit="10"/>
<path d="M32.2414 14.0299V19.4747H29.5942V5.43945H38.4142V7.92774H32.2868H32.2221V7.99259V11.4936V11.5585H32.2868H37.737V13.9651H32.3064H32.2414V14.0299Z" fill="white" stroke="white" stroke-width="0.129692"/>
<path d="M39.7036 19.4747V5.43945H42.2316V19.4747H39.7036Z" fill="white" stroke="white" stroke-width="0.129692"/>
<path d="M53.6816 14.6243C53.6816 17.6063 51.4924 19.7747 48.5907 19.7747C45.6892 19.7747 43.5 17.6063 43.5 14.6243C43.5 11.6425 45.6892 9.47656 48.5907 9.47656C51.4927 9.47656 53.6816 11.6245 53.6816 14.6243ZM51.1536 14.6243C51.1536 13.6815 50.8488 12.9652 50.3728 12.4846C49.8973 12.0043 49.2556 11.7639 48.5907 11.7639C47.926 11.7639 47.2844 12.0043 46.8087 12.4846C46.3328 12.9652 46.0278 13.6815 46.0278 14.6243C46.0278 15.5673 46.3328 16.2837 46.8087 16.7647C47.2844 17.2454 47.926 17.4861 48.5907 17.4861C49.2556 17.4861 49.8973 17.2457 50.3728 16.7652C50.8488 16.2844 51.1536 15.5679 51.1536 14.6243Z" fill="white" stroke="white" stroke-width="0.129692"/>
<path d="M65.1731 16.0601L66.9755 9.77539H69.4754L66.4394 19.4745H63.8836L61.6001 12.8054L61.5383 12.6247L61.4773 12.8058L59.2342 19.4745H56.6304L53.5342 9.77539H56.1942L57.9966 16.0407L58.0539 16.2396L58.1203 16.0436L60.2467 9.77539H62.9513L65.0494 16.0627L65.1155 16.2611L65.1731 16.0601Z" fill="white" stroke="white" stroke-width="0.129692"/>
<path d="M72.7984 18.3401V19.4747H70.334V5.43945H72.8282V10.7883V11.0131L72.9479 10.8228C73.3731 10.1468 74.4288 9.51491 75.8761 9.51491C77.2966 9.51491 78.413 10.0619 79.1753 10.9657C79.9387 11.8708 80.351 13.1386 80.351 14.5849C80.351 16.063 79.8955 17.3453 79.0983 18.2572C78.3017 19.1683 77.1609 19.7133 75.7802 19.7133C74.4401 19.7133 73.4239 19.1231 72.9185 18.306L72.7984 18.112V18.3401ZM75.3043 11.7634C74.6189 11.7634 73.9872 12.0143 73.5272 12.4976C73.0669 12.981 72.7828 13.6921 72.7828 14.6043C72.7828 15.5071 73.0669 16.223 73.5267 16.7138C73.9864 17.2047 74.6181 17.4661 75.3043 17.4661C76.0004 17.4661 76.6276 17.2102 77.0808 16.7213C77.5335 16.2327 77.8076 15.5166 77.8076 14.6043C77.8076 13.6921 77.5335 12.981 77.0806 12.4975C76.6274 12.0138 75.9999 11.7634 75.3043 11.7634Z" fill="white" stroke="white" stroke-width="0.129692"/>
<path d="M88.4366 18.2007L88.3126 18.1743C87.9055 19.0869 86.9109 19.754 85.6145 19.754C84.1838 19.754 82.9977 19.1971 82.1688 18.2748C81.34 17.3519 80.8652 16.0596 80.8652 14.5855C80.8652 11.7367 82.7208 9.49609 85.5356 9.49609C87.2673 9.49609 88.0632 10.4187 88.2925 10.9544L88.4172 10.9288V9.77613H90.8651V17.7637C90.8651 18.567 90.9158 19.2021 90.9391 19.4779H88.5283C88.4695 19.096 88.439 18.7101 88.4366 18.3236C88.4366 18.3235 88.4366 18.3237 88.4366 18.3236V18.2007ZM85.9348 17.5873C86.6437 17.5873 87.2657 17.294 87.7099 16.7699C88.1541 16.2464 88.4172 15.4963 88.4172 14.5855C88.4172 13.6748 88.1589 12.9453 87.7164 12.4424C87.2738 11.9388 86.6509 11.6679 85.9348 11.6679C85.2089 11.6679 84.5757 11.9393 84.1258 12.4429C83.6752 12.9461 83.4121 13.6758 83.4121 14.5855C83.4121 15.4865 83.6704 16.2366 84.117 16.7626C84.5644 17.2894 85.1969 17.5873 85.9348 17.5873Z" fill="white"/>
<path d="M88.4366 18.3236C88.439 18.7101 88.4695 19.096 88.5283 19.4779H90.9391C90.9158 19.2021 90.8651 18.567 90.8651 17.7637V9.77613H88.4172V10.9288L88.2925 10.9544C88.0632 10.4187 87.2673 9.49609 85.5356 9.49609C82.7208 9.49609 80.8652 11.7367 80.8652 14.5855C80.8652 16.0596 81.34 17.3519 82.1688 18.2748C82.9977 19.1971 84.1838 19.754 85.6145 19.754C86.9109 19.754 87.9055 19.0869 88.3126 18.1743L88.4366 18.2007V18.3236ZM88.4366 18.3236C88.4366 18.3235 88.4366 18.3237 88.4366 18.3236ZM85.9348 17.5873C86.6437 17.5873 87.2657 17.294 87.7099 16.7699C88.1541 16.2464 88.4172 15.4963 88.4172 14.5855C88.4172 13.6748 88.1589 12.9453 87.7164 12.4424C87.2738 11.9388 86.6509 11.6679 85.9348 11.6679C85.2089 11.6679 84.5757 11.9393 84.1258 12.4429C83.6752 12.9461 83.4121 13.6758 83.4121 14.5855C83.4121 15.4865 83.6704 16.2366 84.117 16.7626C84.5644 17.2894 85.1969 17.5873 85.9348 17.5873Z" stroke="white" stroke-width="0.129692"/>
<path d="M95.0012 15.5013C94.0621 15.2934 93.3861 14.9097 92.9452 14.4132C92.5042 13.9172 92.2942 13.3038 92.2942 12.6275C92.2942 10.9116 93.8142 9.47656 95.9064 9.47656C97.2905 9.47656 98.2078 9.91576 98.7937 10.4795C99.3593 11.0238 99.6201 11.6882 99.6909 12.1972L97.5979 12.6683C97.5472 12.3859 97.4176 12.074 97.1714 11.8255C96.9034 11.555 96.5011 11.3645 95.9257 11.3645C95.208 11.3645 94.6028 11.7975 94.6028 12.4083C94.6028 12.6655 94.7002 12.8772 94.8708 13.0366C95.039 13.1945 95.2764 13.2983 95.554 13.3498L96.9525 13.6491L96.9533 13.6492C97.9117 13.8475 98.6279 14.237 99.1035 14.7495C99.579 15.2615 99.818 15.8997 99.818 16.603C99.818 17.3852 99.5155 18.1785 98.8967 18.7764C98.2787 19.3738 97.3412 19.78 96.0658 19.78C94.602 19.78 93.6251 19.3059 92.9991 18.6994C92.3932 18.1126 92.1123 17.3983 92.0415 16.8585L94.1892 16.3826C94.2335 16.7594 94.3976 17.1199 94.6889 17.3916C94.9995 17.6815 95.4518 17.8661 96.0448 17.8661C96.4955 17.8661 96.8358 17.7484 97.0652 17.5564C97.2945 17.3637 97.4072 17.1005 97.4072 16.8222C97.4072 16.5861 97.3259 16.3693 97.1424 16.1915C96.9614 16.0155 96.6838 15.8819 96.2975 15.8006L95.0012 15.5013Z" fill="white" stroke="white" stroke-width="0.129692"/>
<path d="M109.871 15.2597H102.898H102.83L102.834 15.3275C102.895 16.6631 104.026 17.6261 105.376 17.6261C106.007 17.6261 106.5 17.4686 106.877 17.1947C107.238 16.9326 107.489 16.5676 107.652 16.1432L109.752 16.7711C109.24 18.4146 107.716 19.7747 105.356 19.7747C102.692 19.7747 100.345 17.863 100.345 14.5855C100.345 11.4841 102.633 9.47656 105.117 9.47656C106.621 9.47656 107.815 9.95592 108.635 10.8194C109.455 11.6834 109.906 12.9392 109.906 14.5051C109.906 14.693 109.896 14.886 109.887 15.0376C109.882 15.1132 109.877 15.1785 109.873 15.2276V15.2352C109.872 15.2438 109.871 15.252 109.871 15.2597ZM107.354 13.5766H107.421L107.419 13.5091C107.398 13.0069 107.223 12.5043 106.855 12.1268C106.484 11.7484 105.925 11.5019 105.149 11.5019C103.732 11.5019 102.949 12.5703 102.887 13.5075L102.882 13.5766H102.951H107.354Z" fill="white" stroke="white" stroke-width="0.129692"/>
<path d="M110.869 4.03736H110.804V4.10221V5.3094H110.506V4.10221V4.03736H110.442H110.036V3.78711H111.269V4.03736H110.869ZM112.614 4.71508L112.986 3.78711H113.448V5.3094H113.166V4.36931L113.04 4.34516L112.653 5.3094H112.434L112.043 4.35892L111.918 4.38358V5.3094H111.635V3.78711H112.107L112.493 4.71583L112.554 4.86217L112.614 4.71508Z" fill="white" stroke="white" stroke-width="0.129692"/>
</g>
</g>
</g>
</g>
<defs>
<clipPath id="clip0_3172_267">
<rect width="114.266" height="24.9454" fill="white"/>
</clipPath>
<clipPath id="clip1_3172_267">
<rect width="114.266" height="24.9454" fill="white"/>
</clipPath>
<clipPath id="clip2_3172_267">
<rect width="114.266" height="24.9454" fill="white"/>
</clipPath>
</defs>
</svg>
