<svg width="103" height="26" viewBox="0 0 103 26" fill="none" xmlns="http://www.w3.org/2000/svg">
<g clip-path="url(#clip0_3172_248)">
<g clip-path="url(#clip1_3172_248)">
<g clip-path="url(#clip2_3172_248)">
<path fill-rule="evenodd" clip-rule="evenodd" d="M36.2456 7.50586H48.6624V10.4564H44.1136V24.7172H40.7943V10.4564H36.2456V7.50586Z" fill="white"/>
<path fill-rule="evenodd" clip-rule="evenodd" d="M57.0217 14.1445H59.7755C60.5787 14.1445 61.136 13.9725 61.4475 13.6282C61.7754 13.2679 61.9393 12.8332 61.9393 12.325C61.9393 11.8008 61.7754 11.3582 61.4475 10.9973C61.1194 10.6369 60.5624 10.4564 59.7755 10.4564H57.0217V14.1445ZM58.2265 17.0951H57.0217V24.7172H53.7026V7.50586H59.9725C61.5461 7.50586 62.7998 7.93232 63.7341 8.78439C64.7505 9.75179 65.2586 10.9236 65.2586 12.3005C65.2586 13.6774 64.7505 14.8497 63.7341 15.8165C63.2427 16.2757 62.6687 16.6118 62.0133 16.8248L68.4552 24.7172H64.3488L58.2265 17.0951Z" fill="white"/>
<path fill-rule="evenodd" clip-rule="evenodd" d="M89.0357 3.01491L81.6052 7.30507C81.1554 7.23799 80.6959 7.20322 80.2276 7.20322C75.1168 7.20322 70.9736 11.3463 70.9736 16.4572C70.9736 21.568 75.1168 25.7111 80.2276 25.7111C82.9168 25.7111 85.3381 24.5638 87.0288 22.732L97.3232 16.788C97.5155 16.6769 97.5815 16.4308 97.4704 16.2384C97.3594 16.046 97.1131 15.98 96.9208 16.0911L88.2278 21.1106C89.0252 19.7435 89.4815 18.1536 89.4815 16.4572C89.4815 12.2301 86.6474 8.66488 82.7752 7.5584L89.438 3.71179C89.6303 3.60068 89.6963 3.35462 89.5853 3.16217C89.4742 2.96974 89.228 2.9038 89.0357 3.01491ZM80.2276 9.61731C84.0048 9.61731 87.0674 12.6796 87.0674 16.4572C87.0674 20.2347 84.0048 23.297 80.2276 23.297C76.45 23.297 73.3877 20.2347 73.3877 16.4572C73.3877 12.6796 76.45 9.61731 80.2276 9.61731Z" fill="white"/>
<path d="M90.3301 10.2591L98.6924 5.43092C98.8847 5.31982 99.131 5.38576 99.242 5.57819C99.3531 5.77063 99.2871 6.0167 99.0948 6.1278L90.7324 10.9559C90.5401 11.067 90.2939 11.0011 90.1828 10.8087C90.0718 10.6163 90.1378 10.3702 90.3301 10.2591Z" fill="white"/>
<path d="M91.1349 14.2825L101.588 8.24734C101.78 8.13621 102.026 8.20219 102.137 8.39459C102.249 8.58707 102.183 8.83315 101.99 8.9442L91.5373 14.9794C91.3442 15.0905 91.0987 15.0246 90.9877 14.8321C90.8766 14.6397 90.9418 14.3936 91.1349 14.2825Z" fill="white"/>
<path d="M76.2261 13.8802L99.9201 0.200456C100.112 0.0893513 100.359 0.155285 100.47 0.347723C100.581 0.540162 100.515 0.786232 100.322 0.897332L76.6285 14.577C76.4361 14.6882 76.19 14.6223 76.0789 14.4298C75.9678 14.2374 76.0337 13.9913 76.2261 13.8802Z" fill="white"/>
<mask id="mask0_3172_248" style="mask-type:alpha" maskUnits="userSpaceOnUse" x="20" y="7" width="13" height="18">
<path fill-rule="evenodd" clip-rule="evenodd" d="M20.8784 7.25781H32.9264V24.9612H20.8784V7.25781Z" fill="white"/>
</mask>
<g mask="url(#mask0_3172_248)">
<path fill-rule="evenodd" clip-rule="evenodd" d="M20.8784 22.3796L23.0421 20.1175C24.1893 21.3799 25.5416 22.0104 27.0991 22.0104C27.8367 22.0104 28.4391 21.8058 28.9063 21.3957C29.3734 20.9862 29.607 20.4702 29.607 19.8467C29.607 19.1916 29.3448 18.6629 28.8202 18.2611C28.2954 17.8595 27.4963 17.4541 26.423 17.044C25.3493 16.6345 24.5748 16.2902 24.0994 16.0111C22.4766 15.0609 21.6652 13.7575 21.6652 12.1019C21.6652 10.643 22.2307 9.47098 23.3618 8.58582C24.4928 7.70067 25.8206 7.25781 27.345 7.25781C29.2136 7.25781 30.8772 7.79902 32.3363 8.8809L30.6152 11.3396C29.7953 10.5859 28.8039 10.2086 27.6401 10.2086C26.9349 10.2086 26.3161 10.3646 25.7836 10.6758C25.2506 10.9873 24.9846 11.4547 24.9846 12.0773C24.9846 12.569 25.2588 12.9993 25.8083 13.3682C26.3574 13.737 27.0169 14.0648 27.7876 14.3517C28.558 14.6385 29.3325 14.9705 30.1111 15.3475C30.8895 15.7248 31.5533 16.2902 32.1027 17.044C32.6518 17.7981 32.9264 18.716 32.9264 19.7979C32.9264 21.2898 32.3524 22.523 31.2052 23.4983C30.0578 24.4736 28.6888 24.9612 27.0991 24.9612C24.837 24.9612 22.7632 24.1007 20.8784 22.3796Z" fill="white"/>
</g>
<mask id="mask1_3172_248" style="mask-type:alpha" maskUnits="userSpaceOnUse" x="0" y="7" width="18" height="18">
<path fill-rule="evenodd" clip-rule="evenodd" d="M0 7.41406H17.0884V24.6457H0V7.41406Z" fill="white"/>
</mask>
<g mask="url(#mask1_3172_248)">
<path fill-rule="evenodd" clip-rule="evenodd" d="M7.37632 7.41406L0 24.6254C0 24.6254 3.33 24.6711 3.46687 24.6254C3.60374 24.5798 8.53195 12.7742 8.53195 12.7742L13.6216 24.6254H17.0885L9.71211 7.41406H7.37632Z" fill="white"/>
</g>
</g>
</g>
</g>
<defs>
<clipPath id="clip0_3172_248">
<rect width="103" height="25.75" fill="white"/>
</clipPath>
<clipPath id="clip1_3172_248">
<rect width="103" height="25.75" fill="white"/>
</clipPath>
<clipPath id="clip2_3172_248">
<rect width="103" height="25.75" fill="white"/>
</clipPath>
</defs>
</svg>
