<svg width="111" height="19" viewBox="0 0 111 19" fill="none" xmlns="http://www.w3.org/2000/svg">
<g clip-path="url(#clip0_3172_239)">
<g clip-path="url(#clip1_3172_239)">
<g clip-path="url(#clip2_3172_239)">
<path fill-rule="evenodd" clip-rule="evenodd" d="M99.705 6.81717V3.39731H96.6472V6.81717H94.7948V8.91324H96.6472V15.6426C96.6472 16.2163 96.7405 16.6795 96.9272 17.0326C97.1139 17.3857 97.3681 17.6577 97.6916 17.849C98.0143 18.0401 98.3877 18.1689 98.811 18.2351C99.235 18.3013 99.6832 18.3344 100.157 18.3344C100.459 18.3344 100.767 18.327 101.083 18.3123C101.399 18.2975 101.686 18.2682 101.944 18.2241V15.797C101.801 15.8264 101.65 15.8485 101.492 15.8633C101.334 15.8779 101.17 15.8854 100.997 15.8854C100.48 15.8854 100.135 15.797 99.9633 15.6206C99.7911 15.4441 99.705 15.091 99.705 14.5615V8.91324H101.944V6.81717H99.705ZM90.7383 12.642C90.6096 12.7597 90.4478 12.8516 90.2539 12.9178C90.06 12.984 89.8524 13.0391 89.6295 13.0832C89.4074 13.1274 89.174 13.1641 88.9294 13.1935C88.6856 13.2229 88.4417 13.2598 88.1971 13.3039C87.9678 13.348 87.7417 13.4068 87.5188 13.4804C87.2967 13.5539 87.1027 13.6532 86.9378 13.7783C86.7728 13.9033 86.64 14.0613 86.5395 14.2527C86.4389 14.4438 86.3882 14.6865 86.3882 14.9807C86.3882 15.2601 86.4389 15.4955 86.5395 15.6868C86.64 15.8779 86.776 16.0287 86.9482 16.139C87.1204 16.2494 87.3216 16.3266 87.5518 16.3707C87.7811 16.4148 88.0177 16.4369 88.2623 16.4369C88.865 16.4369 89.3317 16.3338 89.6617 16.128C89.9916 15.9221 90.2362 15.6758 90.3939 15.3889C90.5516 15.1021 90.649 14.8115 90.6844 14.5173C90.7206 14.2231 90.7383 13.9879 90.7383 13.8114V12.642ZM83.6756 10.3253C83.7182 9.58982 83.8977 8.97947 84.2131 8.49408C84.5293 8.00859 84.9317 7.61882 85.4193 7.32467C85.9078 7.03046 86.4566 6.82091 87.0665 6.69582C87.6773 6.57079 88.2905 6.50832 88.9085 6.50832C89.4677 6.50832 90.035 6.54875 90.6096 6.62966C91.1833 6.71058 91.7072 6.86868 92.1811 7.10396C92.6551 7.33938 93.0429 7.66667 93.3439 8.08586C93.6457 8.5051 93.7961 9.06026 93.7961 9.75165V15.6868C93.7961 16.2016 93.8251 16.6943 93.8822 17.165C93.9402 17.6357 94.0408 17.9887 94.184 18.2241H91.0827C91.0256 18.0476 90.9789 17.8673 90.9427 17.6835C90.9073 17.4996 90.8824 17.3121 90.8679 17.1208C90.3794 17.6357 89.8057 17.996 89.145 18.2019C88.4844 18.4079 87.8101 18.5108 87.1204 18.5108C86.5893 18.5108 86.0945 18.4447 85.635 18.3123C85.1755 18.18 84.7732 17.974 84.4287 17.6945C84.0843 17.415 83.8156 17.062 83.6217 16.6355C83.4277 16.2089 83.3304 15.7014 83.3304 15.1131C83.3304 14.4658 83.4422 13.9327 83.6643 13.5135C83.8872 13.0942 84.1745 12.7597 84.5261 12.5096C84.8778 12.2595 85.2793 12.072 85.7315 11.9469C86.1838 11.822 86.64 11.7227 87.0995 11.6492C87.5582 11.5756 88.0112 11.5168 88.4562 11.4726C88.9012 11.4285 89.2955 11.3623 89.6399 11.274C89.9851 11.1858 90.2579 11.0571 90.4583 10.8879C90.6595 10.7188 90.7528 10.4724 90.7383 10.1488C90.7383 9.81047 90.6844 9.54203 90.5774 9.34351C90.4696 9.14491 90.3255 8.99049 90.1461 8.88017C89.9666 8.76985 89.759 8.69622 89.5216 8.65944C89.285 8.62275 89.03 8.6044 88.7572 8.6044C88.1545 8.6044 87.6805 8.73677 87.3361 9.00144C86.9917 9.26626 86.7905 9.70755 86.7334 10.3253H83.6756ZM71.3709 2.4707V18.2241H74.4288V12.2448C74.4288 11.0828 74.6154 10.2481 74.9887 9.74062C75.3619 9.23311 75.9649 8.97947 76.7976 8.97947C77.5298 8.97947 78.0394 9.21114 78.3265 9.6744C78.6137 10.1378 78.7572 10.8401 78.7572 11.7816V18.2241H81.8151V11.2079C81.8151 10.5019 81.754 9.85827 81.6325 9.27736C81.5101 8.69622 81.2985 8.20351 80.9968 7.79904C80.695 7.3945 80.2826 7.07823 79.7586 6.85031C79.2346 6.62231 78.5634 6.50832 77.7451 6.50832C77.1709 6.50832 76.5822 6.65913 75.9793 6.96056C75.3763 7.2622 74.881 7.74384 74.4934 8.40581H74.4288V2.4707H71.3709ZM66.9267 10.8328H69.9201C69.8769 10.0973 69.7046 9.46108 69.4031 8.92427C69.1017 8.38738 68.7104 7.93869 68.2296 7.57839C67.7485 7.21796 67.203 6.94961 66.5928 6.77306C65.9827 6.59652 65.3475 6.50832 64.6871 6.50832C63.7827 6.50832 62.9787 6.66274 62.2753 6.97166C61.5718 7.28057 60.9759 7.71069 60.4879 8.26241C59.9998 8.81402 59.6301 9.46848 59.3788 10.2261C59.1276 10.9835 59.002 11.8035 59.002 12.6861C59.002 13.5392 59.1384 14.3224 59.4111 15.0359C59.6839 15.7492 60.0643 16.3633 60.5524 16.8781C61.0406 17.393 61.6328 17.7938 62.3291 18.0807C63.0254 18.3675 63.7899 18.5108 64.6226 18.5108C66.1012 18.5108 67.3143 18.1137 68.2618 17.3194C69.2094 16.5252 69.7837 15.3705 69.9846 13.8555H67.0344C66.9339 14.5615 66.6862 15.1241 66.2914 15.5434C65.8966 15.9626 65.3332 16.1721 64.601 16.1721C64.1272 16.1721 63.7252 16.0619 63.3951 15.8411C63.0648 15.6206 62.8028 15.3373 62.609 14.9917C62.4151 14.6461 62.2753 14.2599 62.1891 13.8334C62.103 13.4068 62.0599 12.9876 62.0599 12.5758C62.0599 12.1492 62.103 11.719 62.1891 11.2851C62.2753 10.8511 62.4224 10.4541 62.6305 10.0936C62.8388 9.73322 63.1079 9.43911 63.438 9.21114C63.7683 8.98309 64.1775 8.86915 64.6656 8.86915C65.972 8.86915 66.7257 9.52368 66.9267 10.8328ZM55.6561 6.81717V3.39731H53.8256V6.81717H51.9306V8.47203H53.8256V15.7309C53.8256 16.2605 53.8759 16.6869 53.9764 17.0106C54.0769 17.3341 54.2312 17.5842 54.4393 17.7607C54.6475 17.9372 54.9203 18.0585 55.2577 18.1248C55.595 18.191 56.0005 18.2241 56.4744 18.2241H57.8741V16.5693H57.0343C56.7471 16.5693 56.5138 16.5583 56.3344 16.5362C56.1549 16.5141 56.015 16.4663 55.9145 16.3928C55.8139 16.3192 55.7458 16.2163 55.7099 16.0839C55.674 15.9515 55.6561 15.7751 55.6561 15.5543V8.47203H57.8741V6.81717H55.6561ZM51.3841 14.6056H49.5753C49.4173 15.3557 49.0907 15.9148 48.5954 16.2824C48.1001 16.6502 47.4648 16.8341 46.6896 16.8341C46.0866 16.8341 45.5626 16.731 45.1176 16.5252C44.6725 16.3192 44.3064 16.0433 44.0193 15.6977C43.7322 15.352 43.524 14.955 43.3948 14.5064C43.2656 14.0576 43.2082 13.5833 43.2226 13.0832H51.5564C51.5851 12.3918 51.5241 11.6638 51.3733 10.899C51.2225 10.134 50.9499 9.428 50.555 8.78087C50.1603 8.13366 49.6362 7.60044 48.983 7.18128C48.3299 6.76196 47.5079 6.55241 46.5173 6.55241C45.7565 6.55241 45.0565 6.69949 44.4177 6.99371C43.7789 7.28785 43.2261 7.69974 42.7595 8.22934C42.2929 8.75882 41.9304 9.38391 41.672 10.1047C41.4137 10.8253 41.2844 11.6196 41.2844 12.4875C41.3131 13.3554 41.4387 14.1569 41.6613 14.8924C41.8838 15.6279 42.2176 16.2605 42.6627 16.7899C43.1077 17.3194 43.6569 17.7313 44.31 18.0255C44.9633 18.3197 45.7349 18.4667 46.625 18.4667C47.8884 18.4667 48.9364 18.1431 49.769 17.496C50.6017 16.8487 51.1401 15.8854 51.3841 14.6056ZM49.6183 11.4285H43.2226C43.2512 10.9872 43.3445 10.5717 43.5024 10.1818C43.6604 9.79212 43.8758 9.45013 44.1485 9.15594C44.4213 8.86174 44.7479 8.62999 45.1283 8.46101C45.5088 8.29178 45.9358 8.20721 46.4096 8.20721C46.869 8.20721 47.289 8.29178 47.6694 8.46101C48.0499 8.62999 48.3801 8.85804 48.66 9.14491C48.94 9.4317 49.1625 9.7737 49.3276 10.1709C49.4927 10.5681 49.5896 10.9872 49.6183 11.4285ZM23.8549 6.81717V18.2241H25.6853V11.1196C25.6853 10.899 25.7392 10.6231 25.8468 10.2922C25.9545 9.96127 26.1268 9.64133 26.3637 9.33249C26.6005 9.02357 26.9092 8.75882 27.2897 8.53818C27.6701 8.31753 28.1259 8.20721 28.6571 8.20721C29.0735 8.20721 29.4144 8.26973 29.68 8.39478C29.9456 8.51975 30.1573 8.69622 30.3153 8.92427C30.4732 9.15224 30.5845 9.42076 30.6491 9.7296C30.7136 10.0384 30.746 10.3767 30.746 10.7446V18.2241H32.5764V11.1196C32.5764 10.237 32.8348 9.531 33.3516 9.00144C33.8685 8.47203 34.5791 8.20721 35.4836 8.20721C35.9286 8.20721 36.2911 8.27343 36.5711 8.40581C36.851 8.53818 37.0699 8.71835 37.2279 8.94632C37.3858 9.17428 37.4934 9.44281 37.5508 9.75165C37.6083 10.0606 37.637 10.3915 37.637 10.7446V18.2241H39.4674V9.86197C39.4674 9.27358 39.3777 8.76985 39.1982 8.3506C39.0188 7.93141 38.7676 7.58942 38.4446 7.32467C38.1216 7.05986 37.734 6.86501 37.2817 6.73999C36.8294 6.61489 36.3234 6.55241 35.7635 6.55241C35.0313 6.55241 34.3602 6.72161 33.75 7.05986C33.1399 7.39817 32.6482 7.87622 32.2749 8.49408C32.0452 7.78801 31.6504 7.28785 31.0905 6.99371C30.5305 6.69949 29.9061 6.55241 29.217 6.55241C27.6521 6.55241 26.4534 7.19965 25.6207 8.49408H25.5776V6.81717H23.8549ZM11.2276 12.5317C11.2276 13.3701 11.3424 14.1496 11.5721 14.8704C11.8018 15.5911 12.1464 16.2199 12.6058 16.7568C13.0652 17.2938 13.6322 17.7128 14.307 18.0145C14.9818 18.316 15.757 18.4667 16.6328 18.4667C17.5228 18.4667 18.3017 18.316 18.9693 18.0145C19.6368 17.7128 20.2003 17.2938 20.6597 16.7568C21.1191 16.2199 21.4636 15.5911 21.6934 14.8704C21.9231 14.1496 22.0379 13.3701 22.0379 12.5317C22.0379 11.6933 21.9231 10.91 21.6934 10.1818C21.4636 9.45383 21.1191 8.82127 20.6597 8.28438C20.2003 7.74751 19.6368 7.32467 18.9693 7.01575C18.3017 6.70691 17.5228 6.55241 16.6328 6.55241C15.757 6.55241 14.9818 6.70691 14.307 7.01575C13.6322 7.32467 13.0652 7.74751 12.6058 8.28438C12.1464 8.82127 11.8018 9.45383 11.5721 10.1818C11.3424 10.91 11.2276 11.6933 11.2276 12.5317ZM13.1657 12.5317C13.1657 11.8403 13.2554 11.2262 13.4348 10.6894C13.6144 10.1524 13.862 9.70015 14.1777 9.33249C14.4937 8.96474 14.8633 8.68519 15.2868 8.49408C15.7103 8.30281 16.159 8.20721 16.6328 8.20721C17.1065 8.20721 17.5552 8.30281 17.9787 8.49408C18.4022 8.68519 18.7719 8.96474 19.0877 9.33249C19.4035 9.70015 19.6511 10.1524 19.8307 10.6894C20.01 11.2262 20.0998 11.8403 20.0998 12.5317C20.0998 13.2229 20.01 13.8371 19.8307 14.3739C19.6511 14.9108 19.4035 15.3594 19.0877 15.7199C18.7719 16.0802 18.4022 16.356 17.9787 16.5472C17.5552 16.7384 17.1065 16.8341 16.6328 16.8341C16.159 16.8341 15.7103 16.7384 15.2868 16.5472C14.8633 16.356 14.4937 16.0802 14.1777 15.7199C13.862 15.3594 13.6144 14.9108 13.4348 14.3739C13.2554 13.8371 13.1657 13.2229 13.1657 12.5317ZM8.16156 10.4797H10.0567C9.98482 9.80315 9.81262 9.21846 9.53983 8.72567C9.26704 8.23288 8.91893 7.82469 8.49534 7.50114C8.07183 7.1776 7.58374 6.93858 7.031 6.78408C6.47826 6.62959 5.88613 6.55241 5.25446 6.55241C4.37867 6.55241 3.61061 6.71058 2.95021 7.02678C2.28981 7.34305 1.7407 7.77692 1.30281 8.32864C0.864984 8.88017 0.538374 9.5273 0.322981 10.2702C0.107661 11.0129 0 11.8109 0 12.6641C0 13.5171 0.111216 14.3004 0.333791 15.0138C0.556293 15.7271 0.886526 16.3412 1.32435 16.8561C1.76224 17.3709 2.30781 17.768 2.96102 18.0476C3.61424 18.327 4.3643 18.4667 5.21137 18.4667C6.63264 18.4667 7.75603 18.0843 8.58152 17.3194C9.40697 16.5546 9.92028 15.4661 10.1212 14.0541H8.24766C8.13291 14.9367 7.8206 15.6206 7.31096 16.106C6.80132 16.5913 6.09427 16.8341 5.18982 16.8341C4.61553 16.8341 4.12026 16.7163 3.7039 16.481C3.28763 16.2456 2.95021 15.9331 2.6918 15.5434C2.43339 15.1535 2.24317 14.7086 2.12114 14.2085C1.99911 13.7084 1.9381 13.1935 1.9381 12.6641C1.9381 12.0904 1.99549 11.5352 2.1104 10.9982C2.22525 10.4613 2.41547 9.98694 2.68106 9.5751C2.94666 9.16334 3.30199 8.83237 3.747 8.58227C4.19207 8.33218 4.74482 8.20721 5.40514 8.20721C6.18045 8.20721 6.79776 8.40581 7.25713 8.80292C7.71657 9.20003 8.01801 9.75897 8.16156 10.4797Z" fill="white"/>
<mask id="mask0_3172_239" style="mask-type:alpha" maskUnits="userSpaceOnUse" x="103" y="0" width="8" height="8">
<path d="M110.22 0.0273438H103.151V7.37312H110.22V0.0273438Z" fill="white"/>
</mask>
<g mask="url(#mask0_3172_239)">
<path fill-rule="evenodd" clip-rule="evenodd" d="M106.715 3.49405C106.836 3.49405 106.954 3.48914 107.066 3.47932C107.178 3.4695 107.277 3.4417 107.359 3.39577C107.443 3.35014 107.511 3.28624 107.562 3.20435C107.614 3.12254 107.639 3.00635 107.639 2.85572C107.639 2.73138 107.612 2.63317 107.557 2.56103C107.503 2.48911 107.433 2.43344 107.351 2.39409C107.267 2.35487 107.174 2.33032 107.071 2.3205C106.968 2.31068 106.869 2.30577 106.772 2.30577H105.983V3.49405H106.715ZM105.983 5.80187H105.328V1.73611H106.84C107.322 1.73611 107.684 1.82789 107.928 2.01116C108.172 2.1945 108.294 2.49229 108.294 2.90475C108.294 3.27158 108.195 3.53991 107.995 3.71003C107.796 3.88038 107.549 3.98183 107.254 4.01454L108.371 5.80187H107.63L106.599 4.06364H105.983V5.80187ZM109.45 3.70021C109.45 3.25511 109.379 2.8459 109.238 2.47265C109.097 2.09955 108.901 1.77879 108.65 1.51024C108.4 1.24191 108.108 1.03402 107.774 0.886638C107.44 0.73933 107.08 0.665751 106.696 0.665751C106.304 0.665751 105.939 0.73933 105.602 0.886638C105.265 1.03402 104.971 1.24191 104.721 1.51024C104.471 1.77879 104.274 2.09955 104.133 2.47265C103.992 2.8459 103.922 3.25511 103.922 3.70021C103.922 4.11931 103.985 4.51213 104.114 4.87874C104.242 5.2455 104.427 5.56618 104.668 5.84107C104.908 6.11613 105.199 6.33383 105.539 6.49421C105.88 6.65466 106.265 6.73474 106.696 6.73474C107.08 6.73474 107.44 6.66116 107.774 6.51385C108.108 6.36647 108.4 6.15873 108.65 5.89025C108.901 5.62185 109.097 5.30268 109.238 4.93275C109.379 4.5629 109.45 4.15202 109.45 3.70021ZM110.22 3.70021C110.22 4.25023 110.125 4.75108 109.936 5.20282C109.747 5.65456 109.49 6.04088 109.166 6.36164C108.842 6.68247 108.466 6.93123 108.039 7.10799C107.612 7.28476 107.164 7.37315 106.696 7.37315C106.175 7.37315 105.699 7.27978 105.265 7.09326C104.832 6.90668 104.459 6.64975 104.148 6.32228C103.836 5.99503 103.593 5.60712 103.416 5.15855C103.239 4.71029 103.151 4.22409 103.151 3.70021C103.151 3.15026 103.246 2.64941 103.435 2.19775C103.624 1.74593 103.882 1.35975 104.206 1.03893C104.53 0.718178 104.907 0.469341 105.337 0.292573C105.768 0.115728 106.22 0.0273438 106.696 0.0273438C107.164 0.0273438 107.612 0.115728 108.039 0.292573C108.466 0.469341 108.842 0.718178 109.166 1.03893C109.49 1.35975 109.747 1.74593 109.936 2.19775C110.125 2.64941 110.22 3.15026 110.22 3.70021Z" fill="white"/>
</g>
</g>
</g>
</g>
<defs>
<clipPath id="clip0_3172_239">
<rect width="110.242" height="18.5078" fill="white"/>
</clipPath>
<clipPath id="clip1_3172_239">
<rect width="110.242" height="18.5078" fill="white"/>
</clipPath>
<clipPath id="clip2_3172_239">
<rect width="110.242" height="18.5078" fill="white"/>
</clipPath>
</defs>
</svg>
