<svg width="134" height="20" viewBox="0 0 134 20" fill="none" xmlns="http://www.w3.org/2000/svg">
<mask id="mask0_3172_308" style="mask-type:luminance" maskUnits="userSpaceOnUse" x="0" y="0" width="134" height="20">
<path d="M133.578 0H0V19.3831H133.578V0Z" fill="white"/>
</mask>
<g mask="url(#mask0_3172_308)">
<path fill-rule="evenodd" clip-rule="evenodd" d="M13.0168 7.86328L16.2425 15.1047C16.8952 16.57 16.2359 18.2869 14.7698 18.9393C13.3036 19.5917 11.5858 18.9327 10.9332 17.4674L8.32564 11.6135L7.17627 14.3194V7.86328H13.0168Z" fill="white"/>
<path fill-rule="evenodd" clip-rule="evenodd" d="M13.3654 8.65039L14.0327 10.1486C13.6296 10.0087 13.1965 9.93259 12.7456 9.93259C10.8833 9.93259 9.32453 11.2304 8.92745 12.9694L8.32463 11.6158L7.68555 13.1205V8.65039H13.3654Z" fill="black" fill-opacity="0.2"/>
<path fill-rule="evenodd" clip-rule="evenodd" d="M3.65777 7.73594V12.8638H-1.71611L-2.27326 11.6133L-2.80436 12.8638H-8.74854V11.9937L-5.023 3.22147C-4.55179 2.112 -3.47148 1.44722 -2.33669 1.45119C-1.22045 1.4473 -0.153617 2.09019 0.329578 3.17498L3.02503 9.22574L3.65777 7.73594Z" fill="white"/>
<path fill-rule="evenodd" clip-rule="evenodd" d="M3.0187 9.21701L3.02258 9.22574L5.57259 3.22147C6.04377 2.112 7.12411 1.44722 8.25885 1.45119C9.37509 1.4473 10.4419 2.09019 10.9251 3.17498L14.0278 10.14C13.4021 9.59999 12.587 9.27343 11.6954 9.27343C10.1463 9.27343 8.82772 10.2594 8.33325 11.6378L8.32243 11.6133L5.81736 17.5115C5.19028 18.9881 3.48436 19.677 2.00702 19.0502C1.86478 18.9899 1.72755 18.9185 1.59658 18.8364C1.0548 18.5421 0.602129 18.0736 0.331988 17.4671L-2.26562 11.636C-1.87459 11.7479 -1.46162 11.8078 -1.03462 11.8078C0.76205 11.8078 2.31089 10.7466 3.0187 9.21701Z" fill="white"/>
<path d="M23.9487 15.3243H25.9576V7.70273L29.3694 12.3701H29.6057L33.003 7.85041V15.3243H35.0264V4.32031H33.1063L29.5319 9.28313L25.8689 4.32031H23.9487V15.3243Z" fill="white"/>
<path d="M40.7832 15.4989C41.6005 15.4989 42.3144 15.3168 42.9249 14.9524C43.5453 14.5783 43.9785 14.1056 44.2246 13.5345L42.6591 12.7664C42.4818 13.0717 42.2357 13.3228 41.9205 13.5197C41.6152 13.7068 41.2411 13.8004 40.798 13.8004C40.217 13.8004 39.7295 13.6231 39.3357 13.2686C38.9417 12.9141 38.7153 12.4415 38.6563 11.8507H44.4463C44.4856 11.7424 44.5102 11.6192 44.52 11.4814C44.5397 11.3337 44.5496 11.186 44.5496 11.0383C44.5496 10.3195 44.3969 9.66467 44.0918 9.07386C43.7864 8.48299 43.3434 8.01039 42.7624 7.65584C42.1814 7.29154 41.4726 7.10938 40.6354 7.10938C39.8871 7.10938 39.2077 7.29154 38.5972 7.65584C37.9965 8.02024 37.5189 8.51746 37.1645 9.14767C36.8198 9.76802 36.6475 10.482 36.6475 11.2894C36.6475 12.0673 36.8198 12.7763 37.1645 13.4164C37.509 14.0564 37.9915 14.5635 38.612 14.9377C39.2323 15.3118 39.956 15.4989 40.7832 15.4989ZM40.6354 8.70455C41.1475 8.70455 41.5709 8.86215 41.9057 9.17722C42.2504 9.48251 42.4424 9.8813 42.4818 10.3736H38.7006C38.8089 9.8419 39.0354 9.43326 39.3801 9.14767C39.7345 8.8523 40.153 8.70455 40.6354 8.70455Z" fill="white"/>
<path d="M46.0156 15.3217H47.9504V10.6099C47.9504 10.0881 48.0932 9.66959 48.3788 9.35445C48.6644 9.03939 49.0386 8.88178 49.5014 8.88178C49.9739 8.88178 50.3483 9.03939 50.624 9.35445C50.9094 9.65974 51.0522 10.0782 51.0522 10.6099V15.3217H52.9872V10.6099C52.9872 10.0881 53.13 9.66959 53.4156 9.35445C53.7011 9.03939 54.0753 8.88178 54.538 8.88178C55.0107 8.88178 55.3848 9.03939 55.6606 9.35445C55.9462 9.65974 56.089 10.0782 56.089 10.6099V15.3217H58.0238V10.152C58.0238 9.55139 57.891 9.02461 57.625 8.57164C57.369 8.10882 57.0195 7.74942 56.5764 7.49339C56.1333 7.23738 55.6262 7.10938 55.0551 7.10938C54.5233 7.10938 54.0408 7.21769 53.6075 7.43432C53.1842 7.65099 52.8345 7.97591 52.5588 8.40918C52.3225 8.01531 51.9828 7.70017 51.5396 7.46383C51.1065 7.22754 50.619 7.10938 50.0775 7.10938C49.5752 7.10938 49.1273 7.20783 48.7333 7.40478C48.3394 7.60174 48.0391 7.89711 47.8324 8.29098V7.28662H46.0156V15.3217Z" fill="white"/>
<path d="M64.0435 15.5015C64.8217 15.5015 65.5157 15.3193 66.1261 14.955C66.7365 14.5808 67.2194 14.0786 67.5738 13.4484C67.9283 12.8083 68.1052 12.0945 68.1052 11.3067C68.1052 10.5189 67.9283 9.80999 67.5738 9.17978C67.2194 8.53972 66.7365 8.0375 66.1261 7.67318C65.5157 7.299 64.8261 7.11192 64.0584 7.11192C63.0146 7.11192 62.1923 7.44179 61.5916 8.10153V4.32031H59.6567V15.3243H61.4735V14.4233C61.7689 14.7679 62.1382 15.0339 62.5814 15.2209C63.0342 15.408 63.5216 15.5015 64.0435 15.5015ZM63.822 13.7291C63.3986 13.7291 63.0146 13.6256 62.6699 13.4188C62.3351 13.2121 62.0693 12.9265 61.8723 12.5622C61.6852 12.1978 61.5916 11.7793 61.5916 11.3067C61.5916 10.8341 61.6852 10.4156 61.8723 10.0512C62.0693 9.68686 62.3351 9.40134 62.6699 9.19456C63.0146 8.98777 63.3986 8.88434 63.822 8.88434C64.265 8.88434 64.6538 8.9927 64.9888 9.20933C65.3336 9.41612 65.6045 9.70163 65.8015 10.066C65.9985 10.4303 66.0963 10.8439 66.0963 11.3067C66.0963 11.7696 65.9985 12.188 65.8015 12.5622C65.6045 12.9265 65.3336 13.2121 64.9888 13.4188C64.6538 13.6256 64.265 13.7291 63.822 13.7291Z" fill="white"/>
<path d="M73.3964 15.4989C74.2136 15.4989 74.9277 15.3168 75.5382 14.9524C76.1583 14.5783 76.5919 14.1056 76.8381 13.5345L75.2718 12.7664C75.0949 13.0717 74.8486 13.3228 74.5337 13.5197C74.2285 13.7068 73.8539 13.8004 73.4114 13.8004C72.83 13.8004 72.3427 13.6231 71.9487 13.2686C71.5547 12.9141 71.3286 12.4415 71.2696 11.8507H77.059C77.0986 11.7424 77.1232 11.6192 77.1329 11.4814C77.1531 11.3337 77.1628 11.186 77.1628 11.0383C77.1628 10.3195 77.0098 9.66467 76.7046 9.07386C76.3993 8.48299 75.9561 8.01039 75.3755 7.65584C74.7942 7.29154 74.0852 7.10938 73.2487 7.10938C72.5002 7.10938 71.8204 7.29154 71.2099 7.65584C70.6092 8.02024 70.1316 8.51746 69.7779 9.14767C69.4331 9.76802 69.2607 10.482 69.2607 11.2894C69.2607 12.0673 69.4331 12.7763 69.7779 13.4164C70.1219 14.0564 70.6047 14.5635 71.2249 14.9377C71.845 15.3118 72.5689 15.4989 73.3964 15.4989ZM73.2487 8.70455C73.7606 8.70455 74.1837 8.86215 74.5188 9.17722C74.8636 9.48251 75.0554 9.8813 75.0949 10.3736H71.3137C71.4219 9.8419 71.6487 9.43326 71.9928 9.14767C72.3472 8.8523 72.7659 8.70455 73.2487 8.70455Z" fill="white"/>
<path d="M78.6284 15.321H80.5634V10.8456C80.5634 10.2351 80.7313 9.76238 81.0657 9.42761C81.4104 9.08292 81.8537 8.91061 82.3955 8.91061H83.0895V7.19727H82.6164C82.1246 7.19727 81.691 7.28589 81.3171 7.46312C80.9425 7.64035 80.6522 7.96042 80.4455 8.42324V7.28589H78.6284V15.321Z" fill="white"/>
<path d="M87.207 15.4989C87.8175 15.4989 88.3488 15.3955 88.8018 15.1888C89.2548 14.982 89.6092 14.6964 89.8652 14.3321C90.1211 13.9579 90.2495 13.5296 90.2495 13.047C90.2495 12.4858 90.0719 12.0033 89.7174 11.5995C89.363 11.1958 88.851 10.9005 88.1816 10.7134L86.8966 10.3294C86.6205 10.2505 86.3944 10.1471 86.2168 10.0191C86.0399 9.89116 85.9511 9.71385 85.9511 9.48736C85.9511 9.2511 86.0444 9.05909 86.2317 8.91133C86.419 8.76365 86.675 8.68977 86.9996 8.68977C87.404 8.68977 87.7682 8.79813 88.0928 9.01476C88.4279 9.2314 88.6592 9.52184 88.7868 9.88623L90.2644 9.192C90.0182 8.54209 89.6047 8.03501 89.0234 7.67062C88.4428 7.29646 87.7727 7.10938 87.0145 7.10938C86.4339 7.10938 85.9168 7.21276 85.4638 7.41955C85.0205 7.62629 84.6713 7.91681 84.4153 8.29098C84.1691 8.65537 84.0459 9.08364 84.0459 9.57601C84.0459 10.1274 84.2183 10.605 84.5631 11.0087C84.9176 11.4125 85.434 11.7128 86.1138 11.9098L87.4287 12.279C87.6846 12.348 87.9011 12.4513 88.0779 12.5892C88.2652 12.7172 88.3585 12.8944 88.3585 13.1209C88.3585 13.3868 88.2503 13.5985 88.0339 13.756C87.8272 13.9037 87.5511 13.9776 87.207 13.9776C86.7541 13.9776 86.3451 13.8496 85.981 13.5936C85.616 13.3376 85.3258 12.9831 85.1093 12.5301L83.6616 13.2243C83.8982 13.9136 84.3317 14.4651 84.9616 14.8786C85.6019 15.2921 86.3503 15.4989 87.207 15.4989Z" fill="white"/>
<path d="M95.4037 15.4143C95.7291 15.4143 96.0485 15.3897 96.3642 15.3403V13.6713C96.1768 13.7008 96.0045 13.7156 95.847 13.7156C95.3739 13.7156 95.0299 13.6073 94.8127 13.3907C94.5963 13.1741 94.4881 12.8638 94.4881 12.4601V9.01865H96.3343V7.29051H94.4881V5.45898H92.5531V6.07933C92.5531 6.47322 92.4449 6.77355 92.2284 6.98034C92.0113 7.18712 91.7061 7.29051 91.3128 7.29051H91.165V9.01865H92.5531V12.5636C92.5531 13.4596 92.7993 14.1587 93.2918 14.661C93.7941 15.1632 94.4978 15.4143 95.4037 15.4143Z" fill="white"/>
<path d="M100.231 15.4989C101.274 15.4989 102.111 15.1544 102.741 14.4651V15.3217H104.573V9.97481C104.573 9.41356 104.43 8.91626 104.144 8.48299C103.859 8.04979 103.465 7.71495 102.963 7.47861C102.47 7.23246 101.894 7.10938 101.235 7.10938C100.427 7.10938 99.7085 7.30138 99.0787 7.6854C98.4481 8.06942 98.0153 8.57657 97.7787 9.20677L99.3593 9.97481C99.507 9.61049 99.7383 9.31998 100.053 9.10334C100.368 8.87686 100.738 8.76365 101.161 8.76365C101.604 8.76365 101.958 8.88178 102.224 9.11812C102.5 9.3446 102.638 9.63019 102.638 9.97481V10.2407L100.245 10.6247C99.3003 10.7822 98.6011 11.0826 98.1481 11.5257C97.6951 11.9689 97.4683 12.5252 97.4683 13.1948C97.4683 13.9037 97.7197 14.4651 98.222 14.8786C98.7242 15.2921 99.3936 15.4989 100.231 15.4989ZM99.4771 13.1209C99.4771 12.5597 99.8562 12.2051 100.614 12.0574L102.638 11.7177V12.0427C102.638 12.5941 102.446 13.0618 102.062 13.4459C101.688 13.8299 101.196 14.0219 100.585 14.0219C100.26 14.0219 99.9943 13.9431 99.7876 13.7856C99.5809 13.6182 99.4771 13.3967 99.4771 13.1209Z" fill="white"/>
<path d="M110.237 15.4989C110.818 15.4989 111.354 15.4005 111.847 15.2035C112.339 14.9968 112.763 14.7161 113.117 14.3616C113.471 13.9973 113.728 13.5887 113.886 13.1357L112.187 12.3677C112.029 12.7911 111.778 13.1258 111.433 13.372C111.098 13.6084 110.7 13.7265 110.237 13.7265C109.813 13.7265 109.434 13.6231 109.1 13.4164C108.774 13.2096 108.519 12.924 108.331 12.5597C108.145 12.1854 108.051 11.767 108.051 11.3042C108.051 10.8315 108.145 10.413 108.331 10.0487C108.519 9.68437 108.774 9.39878 109.1 9.192C109.434 8.98521 109.813 8.88178 110.237 8.88178C110.7 8.88178 111.098 9.00491 111.433 9.2511C111.778 9.49729 112.029 9.8222 112.187 10.2259L113.886 9.48736C113.718 9.01476 113.457 8.60119 113.103 8.24672C112.748 7.88233 112.324 7.60174 111.833 7.40478C111.34 7.20784 110.808 7.10938 110.237 7.10938C109.439 7.10938 108.721 7.29154 108.08 7.65584C107.451 8.02024 106.953 8.51746 106.589 9.14767C106.225 9.77787 106.042 10.4918 106.042 11.2894C106.042 12.087 106.225 12.8059 106.589 13.4459C106.953 14.0761 107.451 14.5783 108.08 14.9524C108.721 15.3168 109.439 15.4989 110.237 15.4989Z" fill="white"/>
<path d="M115.348 15.3237H117.283V12.8717L118.317 11.7492L120.577 15.3237H122.793L119.764 10.5233L122.734 7.28855H120.326L117.283 10.479V4.27539H115.348V15.3237Z" fill="white"/>
</g>
</svg>
