<svg width="94" height="13" viewBox="0 0 94 13" fill="none" xmlns="http://www.w3.org/2000/svg">
<mask id="mask0_3172_293" style="mask-type:luminance" maskUnits="userSpaceOnUse" x="-13" y="0" width="107" height="13">
<path d="M93.4925 0H-13V12.6067H93.4925V0Z" fill="white"/>
</mask>
<g mask="url(#mask0_3172_293)">
<path d="M4.2041 7.78699C4.2041 4.96903 6.72556 2.9668 10.2743 2.9668C13.823 2.9668 16.3444 4.96903 16.3444 7.78699C16.3444 10.6173 13.823 12.6072 10.2743 12.6072C6.72556 12.6072 4.2041 10.6173 4.2041 7.78699ZM13.3094 7.78699C13.3094 6.20498 12.1264 5.1915 10.2743 5.1915C8.43765 5.1915 7.23918 6.20498 7.23918 7.78699C7.23918 9.35665 8.42209 10.3825 10.2743 10.3825C12.1109 10.3825 13.3094 9.35665 13.3094 7.78699Z" fill="white"/>
<path d="M18.2085 3.15219H21.2436V3.70837C21.9129 3.23871 22.7845 2.9668 23.765 2.9668C25.0258 2.9668 26.1153 3.31286 26.9402 3.93084C27.8274 3.31286 29.0414 2.9668 30.4111 2.9668C33.3217 2.9668 35.4696 4.52409 35.4696 6.76116V12.4094H32.4501V6.76116C32.4501 5.83419 31.6563 5.17914 30.4267 5.17914C29.1971 5.17914 28.3721 5.82184 28.3721 6.76116V12.4094H25.3371V6.76116C25.3371 5.83419 24.5433 5.17914 23.3137 5.17914C22.0841 5.17914 21.2436 5.83419 21.2436 6.76116V12.4094H18.2085V3.15219Z" fill="white"/>
<path d="M37.3535 7.78699C37.3535 4.96903 39.875 2.9668 43.4237 2.9668C44.591 2.9668 45.6183 3.23871 46.4588 3.74544V3.15219H49.4938V12.4218H46.4588V11.8285C45.6183 12.3229 44.591 12.6072 43.4237 12.6072C39.875 12.6072 37.3535 10.6173 37.3535 7.78699ZM46.4588 7.78699C46.4588 6.20498 45.2759 5.1915 43.4237 5.1915C41.5715 5.1915 40.3886 6.20498 40.3886 7.78699C40.3886 9.35665 41.5871 10.3825 43.4237 10.3825C45.2603 10.3825 46.4588 9.35665 46.4588 7.78699Z" fill="white"/>
<path d="M59.2987 5.37637H55.7967V8.97297C55.7967 9.78869 56.3103 10.1966 57.3531 10.1966H59.2987V12.4213H57.1196C54.2091 12.4213 52.7616 11.2718 52.7616 8.97297V5.37637H51.5942V3.15166H52.7616V0H55.7967V3.15166H59.2987V5.37637Z" fill="white"/>
<path d="M61.4048 3.1543H64.4399V4.36552L67.9419 3.1543V5.65091L64.4399 6.76326V12.4115H61.4048V3.1543Z" fill="white"/>
<path d="M69.105 7.78699C69.105 4.96903 71.6264 2.9668 75.1751 2.9668C78.7239 2.9668 81.2453 4.96903 81.2453 7.78699C81.2453 10.6173 78.7239 12.6072 75.1751 12.6072C71.6264 12.6072 69.105 10.6173 69.105 7.78699ZM78.2102 7.78699C78.2102 6.20498 77.0273 5.1915 75.1751 5.1915C73.323 5.1915 72.1401 6.20498 72.1401 7.78699C72.1401 9.35665 73.323 10.3825 75.1751 10.3825C77.0273 10.3825 78.2102 9.35665 78.2102 7.78699Z" fill="white"/>
<path d="M83.1143 3.15219H86.1493V3.74544C86.8497 3.25106 87.7525 2.9668 88.7797 2.9668C91.5035 2.9668 93.4958 4.57353 93.4958 6.86003V12.4218H90.4607V6.86003C90.4607 5.87127 89.558 5.1915 88.3128 5.1915C87.0365 5.1915 86.1493 5.87127 86.1493 6.86003V12.4218H83.1143V3.15219Z" fill="white"/>
<path d="M-0.947754 10.0075H2.24297V2.66602H-0.947754V10.0075Z" fill="white"/>
</g>
</svg>
