<svg width="239" height="108" viewBox="0 0 239 108" fill="none" xmlns="http://www.w3.org/2000/svg">
<g clip-path="url(#clip0_3172_369)">
<g clip-path="url(#clip1_3172_369)">
<g clip-path="url(#clip2_3172_369)">
<path d="M50.8757 62.6817C50.3147 58.426 49.4733 54.2401 49.2629 50.0542C49.0526 46.7054 47.7904 43.7753 46.5984 40.8451C45.3362 37.7754 44.0741 34.6359 42.882 31.4965C42.5314 30.6593 42.4613 29.6826 42.3211 28.7059C42.251 27.8687 42.3912 27.1013 43.3728 26.8222C44.2143 26.5432 44.7753 26.9618 45.2661 27.5896C45.4764 27.8687 45.6868 28.078 45.8972 28.4268C46.3881 26.8222 46.8087 25.3571 47.2996 23.8921C47.4398 23.4735 47.6502 23.0549 47.7904 22.6363C48.6319 20.8922 49.4032 20.6828 51.1562 21.8688C51.4366 21.52 51.647 21.1712 51.9275 20.8223C52.5585 20.055 53.1897 19.2178 53.9609 18.5898C56.0645 16.7759 58.098 17.334 59.0796 19.9852C59.29 20.6131 59.5003 21.2409 59.5705 21.9386C59.7108 24.9385 59.7809 27.9385 59.851 30.9384C59.851 31.357 59.851 31.8453 59.851 32.4732C60.2717 32.1942 60.6223 31.9151 60.9729 31.7058C62.5155 30.7989 63.988 29.7523 65.5307 28.9152C67.0733 28.1477 68.686 28.3571 70.1586 29.264C71.9817 30.3803 73.7347 31.4965 75.698 32.7523C75.9084 31.7756 76.1889 30.7989 76.3992 29.8918C76.5395 29.264 76.6096 28.5663 76.7498 27.9385C77.0303 26.4734 77.451 26.1943 78.9235 26.4734C82.2191 27.171 85.5148 27.799 88.8103 28.4966C103.886 31.9151 118.962 35.3336 133.967 38.8916C138.945 40.0777 143.784 41.6126 148.693 42.9381C149.044 43.0079 149.394 43.0776 149.884 43.2171C149.604 42.1009 149.394 41.194 149.183 40.2172C148.832 37.9149 149.394 35.822 150.936 34.0081C152.9 31.636 155.424 30.1709 158.299 29.1943C159.21 28.8454 160.192 28.5663 161.314 28.1477C160.613 27.5199 160.122 27.0315 159.631 26.6129C157.387 24.6594 156.055 22.2177 155.705 19.2875C155.634 18.5898 155.634 17.8225 155.774 17.1248C156.265 14.8923 158.159 13.776 160.332 14.3341C161.173 14.5434 161.945 14.8923 162.857 15.2411C163.558 14.3341 164.259 13.3574 165.661 13.3574C166.994 13.3574 167.975 14.1248 168.957 14.8923C169.097 14.8225 169.308 14.8225 169.377 14.6829C171.271 13.0784 172.534 13.0784 174.356 14.8225C174.917 15.3806 175.548 16.0783 175.899 16.7759C177.652 19.7759 179.335 22.7758 181.088 25.7757C182.7 28.5663 184.243 31.4267 185.786 34.2872C186.978 36.3801 188.1 38.473 189.362 40.566C190.554 42.659 191.816 44.6823 193.008 46.5659C200.581 46.0078 207.943 45.4496 215.306 44.8915C222.669 44.3334 230.031 43.9148 237.393 44.4032C237.393 44.5427 237.464 44.6823 237.464 44.8915C236.903 45.031 236.342 45.2404 235.711 45.3101C230.802 45.8682 225.894 46.4961 220.986 46.9845C214.325 47.6123 207.733 48.2403 201.072 48.7984C198.478 49.0077 195.812 49.2867 193.218 49.4263C191.326 49.5658 191.255 49.4961 190.413 47.8217C190.203 47.4031 189.922 47.0542 189.712 46.7054C188.87 45.4496 187.959 44.1939 187.329 42.8683C184.734 37.9149 180.457 34.7058 175.548 32.3337C174.566 31.8453 173.445 31.636 172.322 31.4267C170.64 31.0779 168.887 30.7989 167.204 30.5895C166.854 30.5198 166.432 30.45 166.012 30.5895C163.628 31.2175 161.244 31.8453 158.93 32.6128C156.756 33.3104 155.003 34.7755 153.53 36.4499C152.268 37.8452 152.128 41.194 153.251 42.7288C153.811 43.4962 154.443 43.6357 155.283 43.0776C155.845 42.7288 156.265 42.1707 156.756 41.7521C158.089 40.566 159.421 39.38 160.823 38.2638C162.716 36.8685 164.82 36.5894 166.994 37.6358C167.975 38.1242 169.027 38.6126 169.939 39.2405C172.253 40.9149 172.954 44.1938 171.552 46.7751C170.71 48.31 169.377 49.0077 167.695 49.0775C166.222 49.1472 164.82 49.0077 163.348 48.9379C162.085 48.8681 160.753 48.7286 159.491 48.7286C158.93 48.7286 158.228 48.8681 157.738 49.1472C156.546 49.7751 156.406 50.8914 157.458 51.6588C158.86 52.7053 160.262 53.682 161.875 54.3796C165.802 56.054 169.799 57.5191 173.795 58.9842C174.847 59.333 175.969 59.333 177.091 59.4726C179.475 59.7516 181.859 59.9609 184.243 60.3098C195.111 61.9143 205.77 64.6352 216.498 67.0072C221.617 68.1235 226.735 69.5188 231.784 70.8443C232.906 71.1234 234.028 71.542 235.149 71.9606C235.711 72.1699 236.201 72.5187 236.692 72.7978C236.622 72.9373 236.622 73.0768 236.552 73.1466C235.29 73.0071 234.098 72.8676 232.836 72.6582C225.193 71.2629 217.48 69.9374 209.837 68.4724C199.88 66.5189 189.993 64.4259 180.036 62.4725C173.094 61.0772 166.573 58.6354 160.052 56.054C158.44 55.4261 157.036 54.4494 155.424 53.5424C155.283 53.961 155.144 54.3099 155.073 54.7285C153.251 61.6353 151.357 68.5421 149.534 75.3792C149.394 75.9373 149.183 76.5651 148.973 77.1233C148.482 78.1697 147.851 78.3092 146.869 77.6814C146.519 77.4721 146.098 77.2628 145.677 77.1233C139.647 75.9373 133.546 75.1001 127.517 73.5652C112.791 69.9374 97.9257 66.9375 82.9905 64.0073C79.204 63.2399 75.4175 62.5422 71.6311 61.7748C70.6494 61.5656 70.0884 61.8445 69.5275 62.5422C65.6709 67.3561 61.8143 72.1699 57.9578 76.914C49.1227 87.7974 40.2876 98.6808 31.3824 109.564C31.102 109.913 30.8215 110.332 30.4709 110.541C30.1203 110.75 29.4892 110.82 29.2788 110.611C28.9282 110.332 28.7179 109.774 28.788 109.355C28.9282 108.797 29.2788 108.238 29.6295 107.75C30.9617 106.006 32.3642 104.332 33.6964 102.657C41.4096 93.3089 49.1227 83.8905 56.7657 74.542C61.5338 68.7514 66.3019 62.9608 70.9298 57.1005C73.5945 53.7518 75.9785 50.1239 78.5028 46.6356C78.9936 45.938 79.3442 45.1706 79.6247 44.4032C79.7649 44.0543 79.6247 43.4265 79.4143 43.2171C79.1339 43.0079 78.5729 43.0776 78.2224 43.2869C77.6613 43.566 77.1705 43.9148 76.7498 44.4032C74.2956 46.9147 71.9116 49.4961 69.4574 52.0774C68.4757 53.1239 67.5641 53.3332 66.2318 52.8448C64.3387 52.1472 63.1466 50.7519 62.796 48.8681C62.4454 46.9845 62.3052 45.1009 62.3052 43.2171C62.3052 41.473 63.0765 39.9382 64.3387 38.7521C65.8111 37.3569 67.5641 36.7987 69.5976 37.5661C70.8597 38.0544 71.9817 37.8452 73.0334 36.9383C73.8048 36.2406 73.8749 35.822 73.1035 35.1244C72.5426 34.5662 71.8414 34.0778 71.1403 33.5895C70.5793 33.1709 69.8781 32.822 69.3172 32.3337C67.9848 31.2174 66.7227 31.357 65.3203 32.1942C62.4454 33.8686 60.1315 36.1011 57.9578 38.5428C56.1346 40.4963 54.592 42.659 52.9092 44.752C51.7872 46.1473 51.3665 47.6822 51.647 49.4263C51.9976 52.2867 52.3482 55.2168 52.6988 58.0773C52.8391 59.2632 52.9092 60.519 52.9092 61.7748C52.9092 62.612 52.769 63.3097 51.7171 63.4492C51.3665 63.5189 51.0861 63.8678 50.8056 64.1469C49.1928 65.7514 47.58 67.4258 45.8972 68.9607C34.1171 79.4255 22.6175 90.0299 10.2063 99.7971C8.10276 101.472 5.92905 103.006 3.75535 104.611C3.26451 104.96 2.70355 105.378 2.1426 105.518C1.65176 105.657 1.02069 105.518 0.599968 105.238C0.0390108 104.82 0.17925 104.123 0.599968 103.564C1.02069 103.006 1.51152 102.518 2.00236 102.1C4.24619 100.286 6.56013 98.4716 8.80395 96.6577C14.1331 92.2625 19.392 87.8671 24.721 83.5417C33.2055 76.6349 41.5498 69.4491 50.455 63.1003C50.5251 63.0306 50.6654 62.9608 50.8757 62.6817ZM47.5099 37.4963C47.7203 38.1242 47.8605 38.6824 48.0709 39.3102C48.6319 40.9846 49.1928 42.7288 49.894 44.5427C50.1744 44.1939 50.3848 43.9846 50.3848 43.9846C49.6135 42.4497 48.8422 40.9149 48.0709 39.3102C47.8605 38.6824 47.6502 38.1242 47.5099 37.4963C47.2996 37.1475 47.1593 36.7289 47.0191 36.3103C46.949 36.3801 46.8088 36.4499 46.7386 36.4499C47.0191 36.7987 47.2295 37.1475 47.5099 37.4963ZM77.1004 60.9376C97.9257 64.9142 118.471 69.17 138.945 74.2629C139.998 72.5885 141.26 71.3327 142.942 70.6351C144.556 69.9374 146.309 69.5886 148.131 69.0305C149.254 64.9142 150.446 60.7284 151.637 56.5424C147.711 53.2634 145.887 49.1472 145.958 44.0543C127.306 38.8219 108.444 34.7058 89.5816 30.9384C86.7769 35.4731 81.3777 38.5428 76.9602 38.473C76.6797 39.5196 76.3291 40.6358 75.9785 41.9613C76.7498 41.6126 77.3107 41.2637 77.8717 41.0544C79.1339 40.7055 80.3258 40.7055 81.3076 41.6823C82.2191 42.659 82.3593 43.7753 81.8685 44.9613C81.3076 46.2868 80.6064 47.6123 79.9051 48.7984C78.8534 50.5425 77.7314 52.1472 76.6096 53.8913C77.9418 56.054 77.3808 58.426 77.1004 60.9376ZM56.4852 19.8456C55.7841 20.2642 55.3634 20.4038 55.153 20.6828C53.1897 22.6363 52.0677 25.0083 52.2079 27.8687C52.3482 31.2872 52.4884 34.6359 52.6286 38.0544C52.6286 38.7521 52.6988 39.4498 52.6988 40.4963C53.2598 39.8684 53.5402 39.5893 53.8207 39.2405C54.8023 38.1242 55.7841 36.9383 56.8358 35.822C57.467 35.1941 57.6773 34.5662 57.6072 33.729C57.467 30.5895 57.3968 27.3804 57.1864 24.2408C57.0462 22.8455 56.7657 21.52 56.4852 19.8456ZM170.71 28.2873C169.799 27.2408 168.887 26.3338 167.975 25.2874C167.064 24.2408 166.152 23.1944 165.311 22.0781C164.61 21.1712 163.839 20.2642 163.558 19.2875C163.067 17.7526 161.875 17.1248 160.543 16.7759C158.79 16.2876 158.159 16.8457 158.159 18.6596C158.159 18.9387 158.159 19.2178 158.228 19.4968C158.719 22.7758 162.647 26.892 165.871 27.6594C166.012 27.6594 166.082 27.7291 166.222 27.7291C167.695 27.8687 169.238 28.078 170.71 28.2873ZM74.3657 39.7986C71.561 41.1241 71.561 41.1241 68.6159 40.7055C67.1434 40.4963 66.3019 40.9846 65.8812 42.4497C65.2502 44.5427 65.6008 46.6356 66.3019 48.6589C66.5825 49.5658 67.4239 49.9844 68.4055 50.0542C69.9482 48.31 71.4207 46.6356 72.9633 44.8915C73.1035 44.752 73.1737 44.6124 73.2438 44.4729C73.6646 43.0079 74.0152 41.473 74.3657 39.7986ZM155.073 46.4264C155.144 46.4961 155.144 46.6356 155.214 46.7054C157.458 44.9613 159.981 45.3101 162.506 45.5892C162.857 45.6589 163.137 45.7287 163.488 45.7984C164.75 45.938 166.012 46.0775 167.345 46.217C168.046 46.2868 168.676 46.0078 169.027 45.3799C169.728 44.1938 169.377 42.3102 168.326 41.4032C165.942 39.2405 163.768 39.1707 161.314 41.2637C160.823 41.6823 160.403 42.1009 159.912 42.5195C158.439 43.8451 157.036 45.3799 155.144 46.1473C155.144 46.1473 155.144 46.3566 155.073 46.4264ZM88.0391 30.5895C84.8135 30.0314 81.9386 29.5431 78.8534 28.9849C78.3626 31.5662 77.5211 34.0081 77.3808 36.6592C81.8685 36.1708 84.9537 33.7987 88.0391 30.5895ZM171.481 16.4271C171.692 17.1248 171.762 17.6829 171.972 18.1712C173.164 20.8223 174.356 23.4735 175.618 26.0548C176.39 27.5896 177.371 28.9849 178.353 30.45C178.844 31.2174 179.615 31.8453 180.807 31.9151C179.896 30.0314 179.195 28.2873 178.283 26.6129C176.741 23.8222 175.198 21.1014 173.585 18.3108C173.164 17.6131 172.673 16.8457 171.481 16.4271ZM152.549 54.2401C153.04 52.5658 153.53 51.1705 153.742 49.7751C153.952 48.4495 153.601 47.1937 152.479 46.3565C151.286 45.5194 149.955 45.031 148.341 44.8915C148.763 48.4495 150.235 51.2402 152.549 54.2401ZM165.661 15.5201C165.17 17.1248 165.802 18.3108 166.503 19.4968C168.115 22.1479 170.149 24.5199 172.463 26.6827C172.744 26.9618 173.094 27.171 173.445 27.4501C172.603 25.4269 171.621 23.5432 170.57 21.5897C170.009 20.4736 169.308 19.3573 168.957 18.1015C168.396 16.4968 167.274 15.869 165.661 15.5201ZM49.2629 25.2176C49.1227 25.2176 49.0526 25.2176 48.9123 25.2176C48.7721 25.8455 48.5618 26.4734 48.4215 27.1013C48.1411 28.5663 47.9306 30.0314 47.7203 31.5662C47.6502 32.1942 47.6502 32.8918 47.8605 33.5197C48.7721 36.5197 49.7537 39.4498 50.7355 42.3799C50.8056 42.5195 50.8757 42.5893 51.0159 42.7288C50.455 36.8685 49.894 31.0081 49.2629 25.2176ZM147.64 70.6351C144.906 71.3327 142.662 72.2396 141.12 74.6815C142.942 75.1698 144.625 75.5884 146.378 76.0768C146.869 74.2629 147.22 72.5885 147.64 70.6351ZM75.4175 60.6586C75.2773 59.1237 75.137 57.7982 74.9267 56.1935C73.5945 57.3796 72.753 58.5656 71.8414 59.8912C73.1035 60.1004 74.1554 60.3795 75.4175 60.6586Z" fill="#F9F9F9"/>
<path d="M119.943 50.1239C119.592 51.7286 119.382 53.403 118.751 54.9379C116.577 60.3795 109.705 61.7748 105.429 57.6587C104.167 56.4029 103.676 54.7983 103.676 53.1239C103.676 49.0775 105.358 45.7287 108.724 43.4265C110.897 41.8916 113.212 41.8218 115.455 43.4265C116.157 43.9148 116.788 44.4032 117.489 44.8915C119.242 46.2869 119.873 48.0311 119.943 50.1239ZM117.77 51.3797C117.91 49.3566 117.348 47.752 115.666 46.5659C115.245 46.2869 114.825 46.0078 114.474 45.659C113.141 44.4729 111.669 44.5428 110.337 45.4497C107.251 47.5426 105.779 50.5425 106.059 54.1704C106.27 57.8679 111.388 60.3795 114.474 58.0075C116.718 56.2634 117.839 54.1704 117.77 51.3797Z" fill="#F9F9F9"/>
<path d="M142.207 14.1963C141.669 14.2442 141.133 14.2681 140.608 14.3399C139.828 14.4595 139.23 14.8663 138.863 15.5602C138.619 16.0268 138.4 16.5053 138.216 17.0078C137.728 18.3119 137.435 19.6758 137.07 21.0037C137.021 21.1832 137.008 21.3866 136.972 21.5661C136.96 21.6378 136.947 21.7216 136.911 21.7814C136.826 21.9609 136.667 22.0566 136.483 22.0326C136.301 22.0087 136.155 21.8651 136.142 21.6618C136.13 21.5541 136.13 21.4345 136.155 21.3148C136.228 20.8602 136.203 20.4175 136.155 19.9748C136.056 19.1015 135.922 18.2281 135.642 17.3906C135.288 16.3977 134.751 15.5243 133.909 14.8423C133.482 14.4954 133.043 14.1605 132.603 13.8135C131.932 13.2871 131.164 12.9401 130.371 12.6291C130.248 12.5812 130.102 12.5692 129.955 12.5214C129.858 12.4974 129.748 12.4735 129.651 12.4257C129.443 12.33 129.357 12.1266 129.407 11.9232C129.455 11.7318 129.638 11.6121 129.858 11.6361C130.017 11.648 130.188 11.6839 130.346 11.7318C131.249 12.0069 132.176 11.9471 133.104 11.8634C133.445 11.8394 133.787 11.8035 134.116 11.7318C134.886 11.5523 135.484 11.1336 135.837 10.4277C136.118 9.87737 136.313 9.30309 136.447 8.69294C136.667 7.7478 136.972 6.81461 137.094 5.84554C137.155 5.35502 137.228 4.8645 137.29 4.36202C137.314 4.23041 137.325 4.09881 137.362 3.96721C137.435 3.83561 137.545 3.72793 137.704 3.71597C137.862 3.704 138.009 3.78775 138.058 3.95525C138.119 4.1347 138.168 4.32613 138.18 4.51755C138.241 5.40288 138.302 6.2882 138.363 7.18549C138.424 7.99903 138.46 8.81258 138.546 9.61415C138.619 10.2722 138.851 10.8943 139.23 11.4566C139.571 11.971 140.047 12.2941 140.608 12.5214C140.974 12.6649 141.328 12.8205 141.694 12.9401C141.889 13.0119 142.109 13.0358 142.316 13.0837C142.72 13.1794 143.134 13.2631 143.536 13.3708C143.719 13.4186 143.842 13.5503 143.854 13.7417C143.879 13.9211 143.769 14.1006 143.573 14.1724C143.439 14.2203 143.292 14.2561 143.147 14.2561C142.829 14.2681 142.5 14.2561 142.182 14.2561C142.207 14.2322 142.207 14.2083 142.207 14.1963Z" fill="#F9F9F9"/>
<path fill-rule="evenodd" clip-rule="evenodd" d="M92.1949 81.8138C92.2218 81.302 92.2757 80.7902 92.3296 80.2784C92.321 80.159 92.3152 80.0423 92.3096 79.9283C92.2972 79.6822 92.2855 79.4487 92.2488 79.2279C92.2218 79.0663 92.0602 78.7969 91.9525 78.7969C91.7909 78.7969 91.5214 78.9316 91.4406 79.0663C91.2251 79.4164 91.0097 79.8205 90.9019 80.2245C90.5518 81.4906 90.2554 82.7566 89.986 84.0496C89.8244 84.8038 89.7975 85.5581 90.0668 86.2853C90.2285 86.6895 90.471 87.0127 90.9558 87.0127C91.4406 87.0127 91.7101 86.6895 91.8447 86.2853C91.9794 85.9083 92.0333 85.5042 92.0602 85.1001C92.0871 84.548 92.1073 84.0025 92.1275 83.457C92.1478 82.9115 92.168 82.3661 92.1949 81.8138ZM88.5584 99.8079C88.6123 100.05 88.6931 100.319 89.0701 100.373C89.097 100.234 89.125 100.093 89.1532 99.951L89.1534 99.9496C89.2663 99.3809 89.3827 98.7948 89.4473 98.1917C89.6897 96.4408 89.8783 94.69 90.0668 92.939C90.0938 92.6966 90.0668 92.4272 90.013 92.1847C89.8513 91.646 89.4204 91.3497 88.9624 91.4305C88.5045 91.5113 88.289 91.8615 88.289 92.4542C88.316 93.1545 88.316 93.8818 88.316 94.5821C88.316 94.9601 88.3129 95.3382 88.3099 95.7153C88.3039 96.4666 88.298 97.214 88.316 97.9492C88.316 98.4655 88.4095 98.9819 88.503 99.4982C88.5217 99.6014 88.5405 99.7046 88.5584 99.8079ZM100.068 90.1515C99.7056 90.2415 99.3373 90.333 98.9834 90.3528L98.725 90.3769C96.7925 90.5573 94.8832 90.7356 92.9493 90.8645C92.6259 90.8915 92.2489 90.8106 91.9526 90.676C91.5485 90.5144 91.5754 90.0834 91.9526 89.8948C92.1681 89.787 92.4105 89.7332 92.6259 89.7332C95.185 89.6524 97.7443 89.6254 100.303 89.8409C100.357 89.8409 100.411 89.8678 100.465 89.8948V90.0565C100.334 90.0855 100.201 90.1184 100.068 90.1515ZM87.1308 88.539C87.445 88.5121 87.7593 88.4851 88.0735 88.4671C88.0735 88.4133 88.0735 88.3594 88.1004 88.2786C87.9927 88.2651 87.8917 88.245 87.7907 88.2247C87.6897 88.2045 87.5887 88.1843 87.4809 88.1708C86.5245 88.0631 85.5749 87.9553 84.6252 87.8476C83.6758 87.7399 82.7264 87.6321 81.7703 87.5243C81.6087 87.5108 81.4471 87.4907 81.2855 87.4704C81.1237 87.4503 80.9621 87.43 80.8005 87.4166C80.5312 87.4166 80.3157 87.5243 80.2618 87.7938C80.208 88.09 80.3696 88.3055 80.6389 88.3863C80.8275 88.4402 81.0429 88.4941 81.2585 88.4941C81.5807 88.5072 81.9046 88.522 82.2294 88.5367C83.2345 88.5826 84.2475 88.6287 85.2451 88.6287C85.8737 88.6468 86.5022 88.5929 87.1308 88.539Z" fill="#F9F9F9"/>
<path d="M102.393 15.506C102.447 14.8039 102.717 14.1559 103.221 13.634C103.599 13.2559 104.445 13.2739 104.913 13.7059C105.453 14.192 105.723 14.822 105.561 15.56C105.489 15.884 105.345 16.19 105.183 16.46C104.841 17.054 104.283 17.3061 103.707 17.1981C103.059 17.072 102.537 16.55 102.429 15.902C102.411 15.776 102.411 15.65 102.393 15.506Z" fill="#F9F9F9"/>
<path d="M160.25 83.006C160.304 82.304 160.574 81.656 161.078 81.134C161.456 80.7559 162.302 80.7739 162.77 81.2059C163.31 81.6919 163.58 82.322 163.418 83.06C163.346 83.384 163.202 83.69 163.04 83.96C162.698 84.554 162.14 84.8061 161.564 84.698C160.916 84.5721 160.394 84.05 160.286 83.402C160.268 83.276 160.268 83.15 160.25 83.006Z" fill="#F9F9F9"/>
</g>
</g>
</g>
<defs>
<clipPath id="clip0_3172_369">
<rect width="238.179" height="107.036" fill="white" transform="translate(0.178711 0.822266)"/>
</clipPath>
<clipPath id="clip1_3172_369">
<rect width="238.179" height="107.036" fill="white" transform="translate(0.178711 3.71484)"/>
</clipPath>
<clipPath id="clip2_3172_369">
<rect width="238.179" height="107.036" fill="white" transform="translate(0.178711 3.71484)"/>
</clipPath>
</defs>
</svg>
